<svg width="19" height="19" viewBox="0 0 19 19" fill="none" xmlns="http://www.w3.org/2000/svg">
<path opacity="0.2" d="M8.16343 0C8.46578 0.0446329 8.77309 0.0743881 9.07544 0.143817C12.208 0.848025 14.2451 2.74244 15.053 5.85187C15.6429 8.12814 15.167 10.2507 13.804 12.1699C13.7693 12.2145 13.7395 12.2592 13.7098 12.3038C13.7049 12.3137 13.6999 12.3286 13.685 12.3831C13.7247 12.4129 13.7941 12.4526 13.8436 12.5022C15.4545 14.1089 17.0604 15.7207 18.6713 17.3275C18.939 17.5953 19.0629 17.9077 18.9687 18.2846C18.8002 18.9442 18.017 19.2169 17.4768 18.8053C17.3975 18.7458 17.3281 18.6714 17.2587 18.602C15.6627 17.0051 14.0667 15.4083 12.4707 13.8114C12.4261 13.7668 12.3815 13.7271 12.3319 13.6825C11.8015 14.0841 11.2414 14.4164 10.6368 14.6793C6.19073 16.5886 1.04087 13.856 0.148696 9.11502C0.0892178 8.80259 0.0495655 8.48025 0 8.16286C0 7.81571 0 7.46857 0 7.12142C0.0495655 6.80403 0.0892178 6.48664 0.14374 6.17421C0.679047 3.24828 3.07802 0.788514 5.99247 0.183491C6.37908 0.104143 6.77064 0.0595105 7.15725 0C7.4943 0 7.82639 0 8.16343 0ZM13.3876 7.65206C13.3926 4.48808 10.8152 1.89938 7.64795 1.89938C4.48568 1.89938 1.89836 4.47817 1.8934 7.64214C1.88844 10.8012 4.47081 13.3849 7.63804 13.3948C10.8003 13.4047 13.3827 10.826 13.3876 7.65206Z" fill="#1C1C1C"/>
</svg>
