<svg width="22" height="22" viewBox="0 0 22 22" fill="none" xmlns="http://www.w3.org/2000/svg">
<path d="M11.6399 22C11.2096 22 10.7793 22 10.349 22C10.0585 21.9677 9.76808 21.9354 9.47762 21.8924C7.30992 21.5857 5.38966 20.7196 3.74909 19.2724C1.82345 17.567 0.613194 15.4419 0.166746 12.8919C0.0968202 12.4776 0.053789 12.0634 0 11.6437C0 11.2133 0 10.7829 0 10.3525C0.0107578 10.2826 0.0322734 10.2181 0.0376523 10.1481C0.102199 9.15821 0.311976 8.19521 0.650847 7.26449C2.57111 1.96531 8.15979 -1.02053 13.6355 0.319062C19.2887 1.70169 22.9087 7.35595 21.8007 13.064C21.3757 15.2536 20.386 17.1473 18.8154 18.729C17.1694 20.386 15.1954 21.4351 12.8932 21.8278C12.479 21.8978 12.0595 21.9408 11.6399 22ZM11.0052 19.8427C15.8677 19.8265 19.8535 15.8293 19.8374 10.9874C19.8212 6.1132 15.8247 2.14284 10.9568 2.15898C6.13732 2.17512 2.15694 6.167 2.15694 10.982C2.15694 15.8562 6.15346 19.8534 11.0052 19.8427Z" fill="white"/>
<path d="M10.2647 3.5254C10.2647 3.74597 10.2593 3.95041 10.2647 4.15485C10.2755 4.5422 10.5444 4.81119 10.9102 4.81657C11.2759 4.81657 11.5503 4.5422 11.5556 4.16023C11.561 3.94503 11.5556 3.72984 11.5556 3.52002C14.8959 3.64376 18.1555 6.50586 18.4729 10.2341C18.2147 10.2341 17.9619 10.2287 17.7037 10.2341C17.338 10.2503 17.0582 10.53 17.0582 10.8797C17.0529 11.2294 17.3272 11.5091 17.693 11.5307C17.8866 11.5414 18.0802 11.536 18.2739 11.536C18.3438 11.536 18.4137 11.536 18.4837 11.536C18.3653 14.8716 15.5199 18.2125 11.6417 18.4976C11.6417 18.2501 11.6417 17.9973 11.6417 17.7498C11.6363 17.3302 11.3728 17.0451 10.9962 17.0451C10.6197 17.0451 10.3508 17.3302 10.3454 17.7444C10.34 17.9919 10.3454 18.2448 10.3454 18.4922C7.00509 18.2932 3.79389 15.4795 3.49805 11.6167C3.75623 11.6167 4.00904 11.6275 4.26185 11.6114C4.51466 11.5952 4.68678 11.4553 4.78898 11.2294C4.89118 10.9927 4.85353 10.7667 4.69216 10.5677C4.55769 10.4009 4.37481 10.331 4.16503 10.3256C3.94987 10.3202 3.7401 10.3256 3.52494 10.3256C3.7132 6.94701 6.63394 3.80515 10.2647 3.5254ZM10.9801 10.105C10.9102 10.0189 10.8671 9.94898 10.8133 9.89518C9.80749 8.88914 8.80164 7.87773 7.79041 6.87169C7.73124 6.81251 7.67207 6.74795 7.60215 6.69953C7.38699 6.54351 7.15032 6.522 6.91365 6.64573C6.67698 6.76947 6.53175 6.97929 6.58016 7.2429C6.61243 7.42582 6.71463 7.62487 6.84372 7.75937C8.03784 8.97522 9.24809 10.1749 10.453 11.38C10.8241 11.7512 11.1737 11.7512 11.5503 11.38C12.2172 10.7129 12.8842 10.0458 13.5566 9.37333C13.605 9.32492 13.6588 9.27112 13.7018 9.21194C13.9761 8.82997 13.7771 8.30812 13.3145 8.20052C13.051 8.14134 12.8412 8.24356 12.6583 8.42648C12.1097 8.96984 11.5664 9.51859 10.9801 10.105Z" fill="white"/>
</svg>
