<svg xmlns="http://www.w3.org/2000/svg" width="32" height="32" viewBox="0 0 32 32" fill="none"><circle cx="16" cy="16.0002" r="16" fill="url(#paint0_linear_113_294)"></circle><path d="M17.611 8.5332C17.8708 8.5332 18.1276 8.5332 18.3874 8.5332C18.4322 8.54216 18.474 8.5541 18.5188 8.56007C19.319 8.63471 20.0835 8.84967 20.7822 9.24973C22.4186 10.1842 23.422 11.5755 23.7415 13.4414C23.7713 13.6176 23.7952 13.7937 23.8221 13.9698C23.8221 14.2296 23.8221 14.4863 23.8221 14.7461C23.8131 14.7879 23.8042 14.8327 23.7952 14.8745C23.7146 15.2835 23.6728 15.7044 23.5474 16.0985C23.0995 17.5047 22.2424 18.6064 20.9674 19.3528C19.3399 20.3051 17.6289 20.4365 15.8641 19.7648C15.5446 19.6424 15.246 19.4781 14.9145 19.3199C14.8847 19.3528 14.8518 19.4035 14.81 19.4453C13.5558 20.7022 12.2957 21.9561 11.0445 23.216C10.7549 23.5086 10.4503 23.7564 10.0292 23.8221C9.9307 23.8221 9.82918 23.8221 9.73063 23.8221C9.70674 23.8131 9.68584 23.8042 9.66195 23.7982C9.32751 23.7385 9.05279 23.5773 8.8348 23.3116C8.66758 23.1086 8.59591 22.8727 8.53619 22.6249C8.53619 22.5264 8.53619 22.4249 8.53619 22.3263C8.60188 21.8934 8.86466 21.5859 9.16327 21.2904C10.4204 20.0424 11.6716 18.7885 12.9258 17.5376C12.9676 17.4958 13.0243 17.4719 13.0661 17.445C12.9736 17.2778 12.9019 17.1584 12.8392 17.036C12.7765 16.9136 12.7138 16.7882 12.66 16.6598C12.1673 15.4984 12.0508 14.3012 12.3315 13.0682C12.3554 12.9607 12.3315 12.898 12.2569 12.8234C12.0031 12.5786 11.7552 12.3278 11.5074 12.074C11.4506 12.0173 11.4058 11.9934 11.3163 12.0263C10.6354 12.2771 9.92174 11.9815 9.62015 11.3217C9.58133 11.2381 9.53355 11.2202 9.44994 11.2202C9.13938 11.2232 8.83779 11.2202 8.5332 11.2202C8.5332 10.9216 8.5332 10.6231 8.5332 10.3245C8.83181 10.3245 9.13043 10.3185 9.42904 10.3275C9.53654 10.3305 9.58133 10.2917 9.62612 10.1991C9.93966 9.51246 10.7937 9.22883 11.4566 9.59008C12.0598 9.9155 12.3196 10.5992 12.0926 11.2441C12.0777 11.2918 12.0747 11.3695 12.1016 11.3993C12.2838 11.5964 12.4779 11.7815 12.6809 11.9845C12.7197 11.9098 12.7496 11.8471 12.7795 11.7874C13.6813 10.0528 15.0877 8.98999 17.0108 8.62277C17.2079 8.58396 17.4109 8.56306 17.611 8.5332ZM22.7262 15.6985C22.4933 15.6985 22.2753 15.7044 22.0573 15.6955C21.9707 15.6925 21.9379 15.7313 21.908 15.803C21.6034 16.4658 20.8569 16.7613 20.179 16.4926C19.5221 16.2299 19.1817 15.4656 19.4325 14.7879C19.4654 14.7013 19.4564 14.6476 19.3877 14.5819C19.1399 14.343 18.898 14.1012 18.6591 13.8534C18.6024 13.7967 18.5576 13.7847 18.477 13.8146C18.1634 13.937 17.8439 13.943 17.5304 13.8176C17.4408 13.7818 17.39 13.7997 17.3243 13.8654C17.0914 14.1042 16.8555 14.3401 16.6166 14.5729C16.5479 14.6416 16.53 14.6953 16.5658 14.7909C16.751 15.2865 16.6136 15.8716 16.2374 16.218C15.7656 16.6538 15.0788 16.7135 14.5592 16.3642C14.0456 16.0179 13.8365 15.3701 14.0575 14.77C14.0874 14.6894 14.0724 14.6446 14.0157 14.5908C13.7589 14.3401 13.5081 14.0863 13.2542 13.8325C13.2154 13.7937 13.1736 13.7549 13.1229 13.7071C12.7795 16.0806 14.3083 18.6303 17.0197 19.1796C19.8237 19.7439 22.1469 17.8809 22.7262 15.6985ZM22.8994 14.8028C22.9561 14.3012 22.9203 13.8206 22.8188 13.3489C22.5948 12.298 22.0842 11.3993 21.2749 10.6888C20.1014 9.65576 18.7248 9.23779 17.1929 9.5035C15.3863 9.81698 14.1322 10.8679 13.4125 12.5577C13.3767 12.6443 13.3856 12.695 13.4513 12.7607C13.8515 13.1548 14.2486 13.5519 14.6458 13.9519C14.7055 14.0116 14.7533 14.0325 14.8369 13.9967C15.1504 13.8713 15.4699 13.8713 15.7805 13.9967C15.8671 14.0296 15.9149 14.0116 15.9746 13.9519C16.2075 13.7131 16.4404 13.4743 16.6823 13.2474C16.7629 13.1697 16.7689 13.107 16.7331 13.0025C16.4165 12.1218 17.1302 11.1605 18.0499 11.2202C18.9846 11.2829 19.5609 12.1606 19.2504 13.0473C19.2354 13.0921 19.2444 13.1667 19.2742 13.1996C19.5251 13.4623 19.7819 13.7191 20.0447 13.9698C20.0745 13.9967 20.1432 14.0116 20.182 13.9997C20.9256 13.7549 21.5676 14.0206 21.914 14.7162C21.9319 14.7521 21.9797 14.7939 22.0155 14.7968C22.3081 14.8058 22.5978 14.8028 22.8994 14.8028ZM13.5529 18.1705C13.5349 18.1884 13.4991 18.2212 13.4633 18.2541C12.1882 19.5289 10.9161 20.8007 9.64105 22.0756C9.38723 22.3293 9.36036 22.5921 9.56043 22.7921C9.76348 22.9921 10.0203 22.9623 10.2771 22.7055C11.5522 21.4307 12.8242 20.1588 14.0993 18.884C14.1322 18.8512 14.165 18.8124 14.1799 18.7974C13.9739 18.5885 13.7679 18.3854 13.5529 18.1705ZM11.2804 10.7783C11.2834 10.5335 11.0833 10.3305 10.8385 10.3275C10.5936 10.3245 10.3906 10.5246 10.3876 10.7694C10.3846 11.0142 10.5847 11.2172 10.8295 11.2202C11.0714 11.2232 11.2774 11.0201 11.2804 10.7783ZM17.5542 12.5428C17.5423 12.7846 17.7364 12.9996 17.9783 13.0115C18.2201 13.0234 18.4351 12.8294 18.4471 12.5876C18.459 12.3457 18.2649 12.1308 18.0231 12.1188C17.7782 12.1039 17.5662 12.298 17.5542 12.5428ZM15.7596 15.2566C15.7626 15.0148 15.5625 14.8088 15.3176 14.8058C15.0758 14.8028 14.8697 15.0028 14.8667 15.2477C14.8638 15.4925 15.0638 15.6955 15.3087 15.6985C15.5506 15.7015 15.7566 15.4984 15.7596 15.2566ZM21.1346 15.2477C21.1316 15.0028 20.9286 14.8028 20.6837 14.8058C20.4388 14.8088 20.2388 15.0118 20.2417 15.2566C20.2447 15.5014 20.4478 15.7015 20.6926 15.6985C20.9345 15.6955 21.1346 15.4895 21.1346 15.2477Z" fill="white"></path><defs><linearGradient id="paint0_linear_113_294" x1="16" y1="0.000244141" x2="16" y2="32.0002" gradientUnits="userSpaceOnUse"><stop stop-color="#5C41F9"></stop><stop offset="1" stop-color="#4C92EB"></stop></linearGradient></defs></svg>