<svg xmlns="http://www.w3.org/2000/svg" width="13" height="11" viewBox="0 0 13 11" fill="none"><path d="M4.17234 6.25635C4.52039 5.86472 4.85298 5.4802 5.20103 5.10281C6.77888 3.38674 8.49982 1.80597 10.4721 0.474411C10.6771 0.335559 10.8898 0.203828 11.1064 0.0756565C11.176 0.0364932 11.2649 0.00445038 11.3461 0.00445038C11.7909 -0.00267023 12.2356 0.000890077 12.6765 0.000890077C12.8157 0.000890077 12.9279 0.0436138 12.9781 0.168225C13.0284 0.289275 12.9897 0.392524 12.8853 0.481532C11.0793 1.99822 9.59039 3.76413 8.17497 5.58701C6.8717 7.26392 5.66511 9.00135 4.53199 10.7851C4.49332 10.8491 4.44304 10.9168 4.3773 10.956C4.23808 11.045 4.07952 10.9951 3.9751 10.842C3.80108 10.5857 3.63865 10.3222 3.45302 10.073C2.36631 8.63107 1.27187 7.18915 0.181301 5.75079C0.138761 5.69738 0.0923536 5.64398 0.0536808 5.58701C-0.0236648 5.47308 -0.0197975 5.34847 0.0807518 5.2559C0.370798 4.98532 0.668578 4.71474 0.966359 4.44771C1.08238 4.34447 1.20613 4.35159 1.36082 4.44771C1.84036 4.7539 2.31991 5.06365 2.79558 5.36983C3.25192 5.66534 3.70826 5.95728 4.17234 6.25635Z" fill="url(#paint0_linear_112_80)"></path><defs><linearGradient id="paint0_linear_112_80" x1="6.5" y1="0" x2="6.5" y2="11" gradientUnits="userSpaceOnUse"><stop stop-color="#4A8FE9"></stop><stop offset="1" stop-color="#0C309A"></stop><stop offset="1" stop-color="white" stop-opacity="0"></stop></linearGradient></defs></svg>