<svg width="37" height="35" viewBox="0 0 37 35" fill="none" xmlns="http://www.w3.org/2000/svg">
<path d="M0 32.9757C0 31.1721 0 29.3585 0 27.5548C0.0387942 27.3157 0.0678899 27.0666 0.106684 26.8274C0.620708 23.0707 2.32765 20.0214 5.26632 17.7195C5.79974 17.301 6.38165 16.9522 6.94417 16.5736C6.94417 16.5537 6.94417 16.5238 6.92477 16.5138C6.86658 16.444 6.80839 16.3843 6.7502 16.3245C5.00446 14.5507 4.0443 12.3983 3.96671 9.87722C3.86972 6.59879 5.11114 3.89832 7.65216 1.93525C10.843 -0.516096 14.8291 -0.60578 18.2042 1.57652C18.437 1.72599 18.5921 1.70606 18.8152 1.56655C21.9769 -0.416448 25.2066 -0.536026 28.4362 1.31743C33.363 4.14744 34.5754 11.0531 30.9578 15.5173C30.6668 15.876 30.3468 16.2149 30.0267 16.5835C30.1722 16.6732 30.308 16.753 30.4341 16.8426C34.0516 19.0748 36.2726 22.3233 36.8254 26.6082C37.0873 28.631 36.9612 30.7037 36.9806 32.7565C36.9806 33.2846 36.6605 33.6932 36.1659 33.8725C35.9041 33.9722 35.6034 33.9921 35.3125 33.9921C24.1203 34.0021 12.9379 33.9921 1.74574 34.0021C0.94076 34.012 0.329751 33.7729 0 32.9757ZM23.7809 31.2518C23.7809 30.2952 23.81 29.3684 23.7712 28.4417C23.7421 27.7641 23.6839 27.0765 23.5481 26.4188C22.7431 22.5824 20.5222 19.9616 17.0307 18.447C16.8852 18.3872 16.6718 18.3673 16.5263 18.4171C14.3151 19.2541 12.1038 19.2541 9.89253 18.4171C9.76645 18.3673 9.60157 18.3673 9.48519 18.4071C8.18558 18.8854 7.03146 19.6129 6.0325 20.5794C3.76304 22.7717 2.64771 25.4821 2.64771 28.6809C2.64771 29.5279 2.64771 30.3848 2.64771 31.2518C9.70826 31.2518 16.7203 31.2518 23.7809 31.2518ZM6.61442 9.59821C6.7017 13.6539 9.96042 16.454 13.4519 16.3145C17.2052 16.165 20.076 12.8667 19.8045 9.05014C19.5523 5.52259 16.6233 2.63279 12.9961 2.76233C9.26212 2.89188 6.56592 6.05073 6.61442 9.59821ZM20.4931 3.69903C21.783 5.42294 22.4619 7.37605 22.4619 9.54838C22.4619 11.7107 21.783 13.6738 20.5028 15.3977C23.3153 17.0419 26.6031 16.4839 28.7659 13.9927C30.9093 11.5314 30.919 7.6451 28.8435 5.17382C26.5934 2.47335 23.005 2.14451 20.4931 3.69903ZM26.4383 31.2518C29.1054 31.2518 31.7143 31.2518 34.4105 31.2518C34.3523 29.777 34.4493 28.3022 34.2165 26.8772C33.5667 22.8514 31.3457 20.0314 27.6506 18.4669C27.4566 18.3872 27.1754 18.3772 26.9717 18.4569C25.6624 18.9452 24.3143 19.1146 22.9274 18.995C22.8401 18.9851 22.7528 18.995 22.6073 18.995C22.7722 19.1844 22.8789 19.3139 22.9953 19.4335C24.1882 20.7887 25.0805 22.3233 25.6721 24.0472C26.2055 25.5918 26.4189 27.1861 26.4286 28.8204C26.448 29.6175 26.4383 30.4247 26.4383 31.2518Z" fill="#3DCAB1"/>
</svg>
