<svg xmlns="http://www.w3.org/2000/svg" width="90" height="90" viewBox="0 0 90 90" fill="none"><circle cx="45" cy="45" r="45" fill="url(#paint0_linear_2_659)"></circle><path d="M55.5715 59.3411C55.5715 58.0573 55.5715 56.8517 55.5715 55.6462C56.6518 55.5992 57.7007 55.6149 58.7497 55.4896C63.6971 54.9104 67.6895 50.6831 68.0026 45.8297C68.3784 40.35 64.7931 35.794 59.8926 34.5884C58.233 34.1814 56.5578 34.197 54.8982 34.5884C53.4109 34.9329 52.7533 34.6041 52.1271 33.1793C50.2953 29.0148 46.2873 26.588 41.606 26.8072C37.4727 27.0107 33.6369 30.0011 32.3061 34.0874C32.1026 34.7137 31.9617 35.3712 31.8678 36.0288C31.6642 37.4222 31.1006 37.9859 29.6915 38.0798C25.5582 38.3616 21.9886 42.0095 21.7851 46.1741C21.5189 51.4816 25.4017 55.5679 30.7092 55.5836C31.2415 55.5836 31.7582 55.5836 32.3374 55.5836C32.3374 56.8361 32.3374 58.0573 32.3374 59.2941C28.893 59.576 25.6678 58.934 22.928 56.7422C18.8417 53.47 17.2134 49.1645 18.3563 44.0762C19.4992 38.9879 22.834 35.8409 27.891 34.5884C28.2511 34.4945 28.3451 34.3223 28.4234 34.0091C30.0829 28.138 33.8561 24.4901 39.8368 23.2689C45.5827 22.079 51.7513 24.9285 54.7104 30.0324C55.0235 30.5804 55.3366 30.69 55.9472 30.6274C62.9613 29.7976 69.8187 34.6667 71.3844 41.6025C73.2788 49.916 67.9556 57.8224 59.5169 59.2002C58.9846 59.2941 58.4366 59.3255 57.8886 59.3411C57.1371 59.3568 56.3699 59.3411 55.5715 59.3411Z" fill="white"></path><path d="M43.6253 66.0577C43.1556 66.0577 42.6859 66.0733 42.2162 66.0577C40.6036 65.9794 39.2258 64.6799 39.2885 63.0673C39.3354 61.7522 39.0067 60.8754 37.9733 59.9517C35.3431 57.5876 34.7794 53.6891 36.3764 50.5266C37.942 47.4266 41.3551 45.6261 44.7212 46.1115C48.2909 46.6281 51.1247 49.3367 51.6413 52.875C52.111 56.1002 50.9994 58.7618 48.4161 60.7502C48.1187 60.985 48.0091 61.2042 48.0091 61.5643C48.0247 62.2062 48.0247 62.8638 47.9308 63.49C47.7272 64.9147 46.5217 65.9794 45.0813 66.0577C44.6116 66.089 44.1106 66.0577 43.6253 66.0577ZM44.2828 62.2845C44.2828 61.6582 44.3142 61.0633 44.2828 60.484C44.1889 59.3098 44.6429 58.5583 45.7232 58.0103C47.7116 57.0083 48.5257 54.5972 47.7116 52.5306C46.8975 50.4952 44.6743 49.3836 42.545 49.9316C40.8071 50.3857 39.5233 51.873 39.3041 53.6891C39.0849 55.474 40.0243 57.2431 41.7152 58.0729C42.6546 58.5426 43.093 59.2315 43.046 60.2648C43.0147 60.9224 43.046 61.5799 43.046 62.2688C43.4531 62.2845 43.8132 62.2845 44.2828 62.2845Z" fill="white"></path><defs><linearGradient id="paint0_linear_2_659" x1="14.5" y1="90" x2="70" y2="2.17929e-06" gradientUnits="userSpaceOnUse"><stop stop-color="#5130EF"></stop><stop offset="1" stop-color="#4C92EB"></stop><stop offset="1" stop-color="#4E90ED"></stop></linearGradient></defs></svg>