<svg xmlns="http://www.w3.org/2000/svg" width="32" height="32" viewBox="0 0 32 32" fill="none"><circle cx="16" cy="16.0002" r="16" fill="url(#paint0_linear_113_237)"></circle><path d="M19.7611 21.099C19.7611 20.6425 19.7611 20.2139 19.7611 19.7853C20.1452 19.7686 20.5182 19.7741 20.8911 19.7296C22.6502 19.5236 24.0697 18.0206 24.181 16.295C24.3146 14.3466 23.0399 12.7267 21.2975 12.2981C20.7074 12.1533 20.1118 12.1589 19.5217 12.2981C18.9929 12.4205 18.7591 12.3036 18.5364 11.7971C17.8851 10.3163 16.46 9.45348 14.7956 9.53141C13.326 9.60378 11.9621 10.667 11.489 12.1199C11.4166 12.3426 11.3665 12.5764 11.3331 12.8102C11.2607 13.3056 11.0603 13.506 10.5593 13.5394C9.08972 13.6396 7.82051 14.9367 7.74814 16.4174C7.65351 18.3045 9.03405 19.7574 10.9212 19.763C11.1104 19.763 11.2941 19.763 11.5001 19.763C11.5001 20.2083 11.5001 20.6425 11.5001 21.0823C10.2754 21.1825 9.12869 20.9543 8.15451 20.1749C6.7016 19.0115 6.12267 17.4807 6.52904 15.6715C6.93541 13.8623 8.12111 12.7434 9.91916 12.2981C10.0472 12.2647 10.0806 12.2034 10.1084 12.0921C10.6985 10.0046 12.0401 8.70754 14.1666 8.27334C16.2095 7.85027 18.4028 8.86341 19.4549 10.6782C19.5663 10.873 19.6776 10.912 19.8947 10.8897C22.3886 10.5947 24.8268 12.3259 25.3835 14.7919C26.057 17.7479 24.1643 20.559 21.1639 21.0489C20.9746 21.0823 20.7798 21.0935 20.585 21.099C20.3178 21.1046 20.045 21.099 19.7611 21.099Z" fill="white"></path><path d="M15.513 23.4871C15.346 23.4871 15.179 23.4926 15.012 23.4871C14.4386 23.4592 13.9487 22.9972 13.971 22.4238C13.9877 21.9562 13.8708 21.6445 13.5034 21.3161C12.5682 20.4755 12.3678 19.0894 12.9356 17.9649C13.4923 16.8627 14.7058 16.2225 15.9027 16.3951C17.1719 16.5788 18.1794 17.5418 18.3631 18.7999C18.5301 19.9467 18.1349 20.893 17.2164 21.6C17.1106 21.6835 17.0717 21.7614 17.0717 21.8894C17.0772 22.1177 17.0772 22.3515 17.0438 22.5741C16.9715 23.0807 16.5428 23.4592 16.0307 23.4871C15.8637 23.4982 15.6856 23.4871 15.513 23.4871ZM15.7468 22.1455C15.7468 21.9228 15.7579 21.7113 15.7468 21.5053C15.7134 21.0878 15.8748 20.8206 16.2589 20.6258C16.9659 20.2695 17.2554 19.4123 16.9659 18.6775C16.6764 17.9538 15.886 17.5585 15.1289 17.7534C14.511 17.9148 14.0545 18.4436 13.9766 19.0894C13.8986 19.724 14.2326 20.353 14.8339 20.6481C15.1679 20.8151 15.3237 21.06 15.307 21.4274C15.2959 21.6612 15.307 21.895 15.307 22.1399C15.4518 22.1455 15.5798 22.1455 15.7468 22.1455Z" fill="white"></path><defs><linearGradient id="paint0_linear_113_237" x1="16" y1="0.000244141" x2="16" y2="32.0002" gradientUnits="userSpaceOnUse"><stop stop-color="#5C41F9"></stop><stop offset="1" stop-color="#4C92EB"></stop></linearGradient></defs></svg>