<svg width="54" height="44" viewBox="0 0 54 44" fill="none" xmlns="http://www.w3.org/2000/svg">
<path d="M37.5715 36.3411C37.5715 35.0573 37.5715 33.8517 37.5715 32.6462C38.6518 32.5992 39.7007 32.6149 40.7497 32.4896C45.6971 31.9104 49.6895 27.6831 50.0026 22.8297C50.3784 17.35 46.7931 12.794 41.8926 11.5884C40.233 11.1814 38.5578 11.197 36.8982 11.5884C35.4109 11.9329 34.7533 11.6041 34.1271 10.1793C32.2953 6.01476 28.2873 3.58803 23.606 3.80722C19.4727 4.01075 15.6369 7.00111 14.3061 11.0874C14.1026 11.7137 13.9617 12.3712 13.8678 13.0288C13.6642 14.4222 13.1006 14.9859 11.6915 15.0798C7.55824 15.3616 3.9886 19.0095 3.78506 23.1741C3.51891 28.4816 7.40168 32.5679 12.7092 32.5836C13.2415 32.5836 13.7582 32.5836 14.3374 32.5836C14.3374 33.8361 14.3374 35.0573 14.3374 36.2941C10.893 36.576 7.66784 35.934 4.92798 33.7422C0.84167 30.47 -0.78659 26.1645 0.356323 21.0762C1.49924 15.9879 4.83404 12.8409 9.89104 11.5884C10.2511 11.4945 10.3451 11.3223 10.4234 11.0091C12.0829 5.13801 15.8561 1.49008 21.8368 0.268882C27.5827 -0.921001 33.7513 1.92846 36.7104 7.03242C37.0235 7.5804 37.3366 7.68999 37.9472 7.62737C44.9613 6.79758 51.8187 11.6667 53.3844 18.6025C55.2788 26.916 49.9556 34.8224 41.5169 36.2002C40.9846 36.2941 40.4366 36.3255 39.8886 36.3411C39.1371 36.3568 38.3699 36.3411 37.5715 36.3411Z" fill="white"/>
<path d="M25.6253 43.0577C25.1556 43.0577 24.6859 43.0733 24.2162 43.0577C22.6036 42.9794 21.2258 41.6799 21.2885 40.0673C21.3354 38.7522 21.0067 37.8754 19.9733 36.9517C17.3431 34.5876 16.7794 30.6891 18.3764 27.5266C19.942 24.4266 23.3551 22.6261 26.7212 23.1115C30.2909 23.6281 33.1247 26.3367 33.6413 29.875C34.111 33.1002 32.9994 35.7618 30.4161 37.7502C30.1187 37.985 30.0091 38.2042 30.0091 38.5643C30.0247 39.2062 30.0247 39.8638 29.9308 40.49C29.7272 41.9147 28.5217 42.9794 27.0813 43.0577C26.6116 43.089 26.1106 43.0577 25.6253 43.0577ZM26.2828 39.2845C26.2828 38.6582 26.3142 38.0633 26.2828 37.484C26.1889 36.3098 26.6429 35.5583 27.7232 35.0103C29.7116 34.0083 30.5257 31.5972 29.7116 29.5306C28.8975 27.4952 26.6743 26.3836 24.545 26.9316C22.8071 27.3857 21.5233 28.873 21.3041 30.6891C21.0849 32.474 22.0243 34.2431 23.7152 35.0729C24.6546 35.5426 25.093 36.2315 25.046 37.2648C25.0147 37.9224 25.046 38.5799 25.046 39.2688C25.4531 39.2845 25.8132 39.2845 26.2828 39.2845Z" fill="white"/>
</svg>
