<svg width="16" height="16" viewBox="0 0 16 16" fill="none" xmlns="http://www.w3.org/2000/svg">
<path d="M15.5734 1.71197C15.5734 6.04987 15.5734 10.3878 15.5734 14.7257C15.5654 14.7498 15.5533 14.7698 15.5493 14.7939C15.3927 15.4808 14.8785 15.8985 14.1716 15.8985C9.97431 15.8985 5.77699 15.8985 1.57967 15.8985C0.764307 15.8985 0.177887 15.3121 0.177887 14.5048C0.177887 10.3155 0.177887 6.12217 0.177887 1.93288C0.177887 1.80435 0.193953 1.6718 0.226086 1.54729C0.386749 0.928735 0.920953 0.539127 1.59172 0.53511C4.82105 0.53511 8.05037 0.53511 11.2837 0.53511C12.2557 0.53511 13.2277 0.531094 14.1997 0.53511C14.7822 0.539127 15.1999 0.812254 15.4529 1.33843C15.5051 1.45892 15.5333 1.58745 15.5734 1.71197ZM14.6697 5.06581C10.131 5.06581 5.6083 5.06581 1.08162 5.06581C1.08162 5.13409 1.08162 5.19434 1.08162 5.25459C1.08162 8.3112 1.08162 11.3678 1.08162 14.4244C1.08162 14.8381 1.23826 14.9948 1.65197 14.9948C5.80109 14.9948 9.9462 14.9948 14.0953 14.9948C14.509 14.9948 14.6697 14.8381 14.6697 14.4244C14.6697 11.3638 14.6697 8.29915 14.6697 5.23852C14.6697 5.1863 14.6697 5.13007 14.6697 5.06581ZM14.6697 4.14601C14.6697 4.08576 14.6697 4.04158 14.6697 3.9974C14.6697 3.3186 14.6697 2.64381 14.6697 1.96501C14.6697 1.61557 14.493 1.43884 14.1435 1.43884C9.96628 1.43884 5.78904 1.43884 1.6118 1.43884C1.25835 1.43884 1.08563 1.61155 1.08162 1.96099C1.08162 2.6398 1.08162 3.31458 1.08162 3.99338C1.08162 4.04158 1.08563 4.08978 1.08965 4.14199C5.61633 4.14601 10.131 4.14601 14.6697 4.14601Z" fill="white"/>
<path d="M9.67557 6.90539C9.66352 6.94154 9.64745 7.02187 9.61532 7.09417C8.72766 9.17074 7.83999 11.2473 6.95233 13.3239C6.83585 13.593 6.58682 13.7095 6.34583 13.6091C6.10082 13.5046 6.00844 13.2435 6.12893 12.9624C7.0166 10.8858 7.90426 8.80925 8.79192 6.73268C8.89234 6.4957 9.09718 6.37922 9.31408 6.4234C9.52294 6.46357 9.67557 6.64833 9.67557 6.90539Z" fill="white"/>
<path d="M3.63946 10.0261C3.80012 10.1546 3.9407 10.2711 4.0853 10.3876C4.53515 10.7491 4.98501 11.1065 5.43486 11.468C5.58348 11.5885 5.65176 11.7452 5.60758 11.9339C5.56741 12.1187 5.44691 12.2512 5.26617 12.2673C5.14165 12.2794 4.98501 12.2512 4.88861 12.179C4.12948 11.5885 3.3824 10.986 2.63531 10.3795C2.40235 10.1907 2.40235 9.8654 2.63933 9.67663C3.38239 9.07414 4.12948 8.47567 4.88058 7.88122C5.09346 7.71252 5.36658 7.74465 5.52323 7.94146C5.68389 8.14631 5.64774 8.41542 5.43085 8.59617C4.88861 9.03397 4.34637 9.46776 3.80012 9.90155C3.75192 9.93369 3.70372 9.96983 3.63946 10.0261Z" fill="white"/>
<path d="M12.1115 10.0221C11.6014 9.61245 11.1113 9.21883 10.6173 8.8252C10.5129 8.74085 10.4044 8.66052 10.3 8.57216C10.1032 8.40346 10.0751 8.13435 10.2277 7.93754C10.3803 7.74073 10.6534 7.70056 10.8583 7.86524C11.6174 8.46773 12.3725 9.07021 13.1196 9.68073C13.3486 9.86951 13.3486 10.1868 13.1156 10.3756C12.3645 10.9861 11.6094 11.5886 10.8543 12.1911C10.6494 12.3518 10.3763 12.3076 10.2237 12.1148C10.067 11.9139 10.1032 11.6448 10.316 11.4721C10.8663 11.0263 11.4166 10.5885 11.9669 10.1467C12.011 10.1065 12.0512 10.0744 12.1115 10.0221Z" fill="white"/>
<path d="M11.9164 3.24614C11.4867 3.24614 11.0569 3.24614 10.6271 3.24614C10.3339 3.24614 10.1331 3.06137 10.1291 2.79628C10.1291 2.5352 10.3299 2.34241 10.6191 2.34241C11.4947 2.34241 12.3703 2.34241 13.2459 2.34241C13.5351 2.34241 13.74 2.5352 13.7359 2.8003C13.7319 3.05736 13.5311 3.24614 13.254 3.24614C12.8041 3.25015 12.3623 3.24614 11.9164 3.24614Z" fill="white"/>
<path d="M2.91355 2.80036C2.90954 3.04537 2.70469 3.2462 2.45968 3.2462C2.21065 3.2462 2.00581 3.0293 2.00982 2.78027C2.01786 2.53526 2.22672 2.33845 2.46771 2.34247C2.71674 2.3505 2.91757 2.55936 2.91355 2.80036Z" fill="white"/>
<path d="M4.71644 2.79634C4.71644 3.04135 4.51159 3.2462 4.26658 3.2462C4.01755 3.2462 3.80869 3.03332 3.81271 2.78429C3.81673 2.53928 4.02559 2.33845 4.2706 2.34247C4.51561 2.34648 4.72046 2.55534 4.71644 2.79634Z" fill="white"/>
<path d="M6.52119 2.80426C6.51717 3.04927 6.31233 3.2501 6.06731 3.2501C5.81829 3.2501 5.61344 3.03321 5.62147 2.78418C5.62951 2.53917 5.83837 2.34236 6.08338 2.34637C6.32438 2.35039 6.5252 2.55925 6.52119 2.80426Z" fill="white"/>
</svg>
