<svg width="18" height="14" viewBox="0 0 18 14" fill="none" xmlns="http://www.w3.org/2000/svg">
<path d="M2.8228 8.87788C6.95058 8.87788 11.0394 8.87788 15.1769 8.87788C14.904 8.60181 14.6359 8.37997 14.4215 8.10883C14.1584 7.77853 13.8465 7.64542 13.4322 7.69472C13.1301 7.72923 12.823 7.70458 12.5209 7.69965C12.1749 7.69472 11.9215 7.4433 11.9166 7.11793C11.9117 6.77777 12.17 6.52142 12.5258 6.52142C13.0911 6.51649 13.6564 6.50663 14.2217 6.53128C14.3777 6.53621 14.5628 6.61016 14.6749 6.71861C15.4596 7.4926 16.2344 8.27644 16.9996 9.07014C17.097 9.17367 17.1604 9.35114 17.1652 9.49904C17.1799 10.4653 17.175 11.4365 17.1701 12.4027C17.1701 13.1175 16.6682 13.6253 15.9615 13.6302C11.3172 13.6302 6.67279 13.6302 2.02843 13.6302C1.32666 13.6302 0.824702 13.1175 0.824702 12.4027C0.824702 11.4365 0.814956 10.4653 0.834449 9.49904C0.834449 9.35114 0.90755 9.16381 1.00989 9.06028C1.76527 8.27644 2.53527 7.50739 3.30039 6.72847C3.43198 6.59537 3.58305 6.52635 3.77312 6.52635C4.92324 6.52635 6.07337 6.52635 7.21862 6.52635C7.54026 6.52635 7.78881 6.74819 7.82292 7.05384C7.85703 7.34963 7.65722 7.63063 7.36482 7.69472C7.29659 7.70951 7.21862 7.70951 7.14552 7.70951C6.14159 7.70951 5.13767 7.70951 4.13862 7.71444C4.0509 7.71444 3.93881 7.76374 3.87546 7.82783C3.52945 8.15319 3.19318 8.50321 2.8228 8.87788ZM2.00407 10.0758C2.00407 10.8695 2.00407 11.6484 2.00407 12.4274C6.67279 12.4274 11.3269 12.4274 15.9908 12.4274C15.9908 11.6386 15.9908 10.8597 15.9908 10.0758C11.322 10.0758 6.66792 10.0758 2.00407 10.0758Z" fill="white"/>
<path d="M6.68832 3.86906C6.77117 3.79018 6.81503 3.74581 6.86376 3.70144C7.10256 3.49932 7.43882 3.51411 7.65813 3.73595C7.86768 3.95286 7.89692 4.30288 7.68737 4.52472C7.28775 4.95362 6.87351 5.37265 6.44952 5.78183C6.23509 5.99381 5.9037 5.98395 5.68927 5.7769C5.2799 5.36773 4.87541 4.95855 4.48066 4.54444C4.25649 4.31274 4.28085 3.95286 4.50503 3.72609C4.72433 3.50918 5.0606 3.49932 5.2994 3.7113C5.35788 3.76553 5.41149 3.81976 5.48946 3.89371C5.51383 3.74581 5.52845 3.62257 5.55281 3.50425C5.88908 1.77881 7.33161 0.580862 9.0568 0.600582C10.7284 0.620301 12.1563 1.86262 12.4536 3.56834C12.8191 5.67337 11.1719 7.68474 9.06167 7.69953C8.69129 7.70446 8.42325 7.4629 8.41351 7.12274C8.40376 6.77766 8.66205 6.52624 9.03243 6.51638C10.3629 6.47694 11.3765 5.38744 11.3278 4.0416C11.2839 2.74999 10.1826 1.73444 8.87648 1.78374C7.83357 1.82318 6.88813 2.65632 6.70294 3.69158C6.69319 3.73595 6.69319 3.78032 6.68832 3.86906Z" fill="white"/>
<path d="M5.79118 10.6623C6.06409 10.6623 6.337 10.6623 6.60991 10.6623C6.98029 10.6623 7.24346 10.9138 7.23858 11.2589C7.23858 11.5941 6.97542 11.8455 6.61966 11.8455C6.05922 11.8504 5.49878 11.8504 4.94321 11.8455C4.58745 11.8455 4.32429 11.5941 4.32429 11.2589C4.31941 10.9138 4.58258 10.6673 4.95296 10.6623C5.23561 10.6574 5.5134 10.6623 5.79118 10.6623Z" fill="white"/>
<path d="M3.75264 11.2492C3.75264 11.5745 3.49922 11.8358 3.18245 11.8408C2.8608 11.8457 2.58789 11.5745 2.58789 11.2492C2.58789 10.9287 2.84618 10.6625 3.16295 10.6576C3.48947 10.6576 3.75264 10.9189 3.75264 11.2492Z" fill="white"/>
</svg>
