<svg width="46" height="37" viewBox="0 0 46 37" fill="none" xmlns="http://www.w3.org/2000/svg">
<path d="M5.6265 23.2804C17.2359 23.2804 28.7356 23.2804 40.3724 23.2804C39.6048 22.5039 38.851 21.88 38.2479 21.1174C37.5077 20.1884 36.6305 19.8141 35.4655 19.9527C34.6157 20.0498 33.7522 19.9805 32.9024 19.9666C31.9292 19.9527 31.2165 19.2456 31.2028 18.3305C31.1891 17.3738 31.9155 16.6528 32.9161 16.6528C34.506 16.639 36.096 16.6112 37.6859 16.6806C38.1245 16.6944 38.6454 16.9024 38.9606 17.2074C41.1674 19.3843 43.3467 21.5888 45.4986 23.8211C45.7727 24.1123 45.9509 24.6114 45.9646 25.0274C46.0058 27.7449 45.9921 30.4764 45.9783 33.1939C45.9783 35.2044 44.5666 36.6325 42.5791 36.6464C29.5169 36.6464 16.4546 36.6464 3.39235 36.6464C1.41862 36.6464 0.00685323 35.2044 0.00685323 33.1939C0.00685323 30.4764 -0.0205597 27.7449 0.0342662 25.0274C0.0342662 24.6114 0.239863 24.0845 0.527699 23.7934C2.6522 21.5888 4.81782 19.4259 6.96974 17.2352C7.33981 16.8608 7.76471 16.6667 8.29927 16.6667C11.534 16.6667 14.7687 16.6667 17.9897 16.6667C18.8944 16.6667 19.5934 17.2906 19.6893 18.1503C19.7853 18.9822 19.2233 19.7725 18.4009 19.9527C18.209 19.9943 17.9897 19.9943 17.7841 19.9943C14.9606 19.9943 12.1371 19.9943 9.32725 20.0082C9.08053 20.0082 8.76529 20.1468 8.5871 20.3271C7.61394 21.2422 6.6682 22.2266 5.6265 23.2804ZM3.32382 26.6496C3.32382 28.8819 3.32382 31.0726 3.32382 33.2633C16.4546 33.2633 29.5443 33.2633 42.6614 33.2633C42.6614 31.0448 42.6614 28.8542 42.6614 26.6496C29.5306 26.6496 16.4409 26.6496 3.32382 26.6496Z" fill="white"/>
<path d="M16.496 9.19326C16.729 8.97142 16.8523 8.84664 16.9894 8.72185C17.661 8.15338 18.6067 8.19497 19.2235 8.8189C19.8129 9.42897 19.8952 10.4134 19.3058 11.0373C18.1818 12.2436 17.0168 13.4221 15.8243 14.5729C15.2213 15.1691 14.2892 15.1414 13.6861 14.5591C12.5348 13.4083 11.3971 12.2575 10.2869 11.0928C9.65643 10.4411 9.72496 9.42897 10.3555 8.79117C10.9722 8.18111 11.918 8.15338 12.5896 8.74958C12.7541 8.9021 12.9049 9.05461 13.1242 9.26259C13.1927 8.84664 13.2338 8.50001 13.3023 8.16724C14.2481 3.31444 18.3052 -0.0547859 23.1573 0.000674644C27.8586 0.0561352 31.8746 3.55015 32.7107 8.34749C33.7387 14.2679 29.1059 19.9249 23.171 19.9665C22.1293 19.9803 21.3755 19.301 21.348 18.3443C21.3206 17.3737 22.0471 16.6666 23.0888 16.6388C26.8306 16.5279 29.6816 13.4637 29.5445 9.67854C29.4212 6.04588 26.3235 3.18966 22.6502 3.32831C19.717 3.43923 17.0579 5.78244 16.5371 8.69412C16.5097 8.8189 16.5097 8.94369 16.496 9.19326Z" fill="white"/>
<path d="M13.9737 28.2994C14.7413 28.2994 15.5089 28.2994 16.2764 28.2994C17.3181 28.2994 18.0583 29.0065 18.0446 29.9771C18.0446 30.9199 17.3044 31.627 16.3038 31.627C14.7276 31.6409 13.1513 31.6409 11.5888 31.627C10.5882 31.627 9.84809 30.9199 9.84809 29.9771C9.83438 29.0065 10.5745 28.3132 11.6162 28.2994C12.4112 28.2855 13.1925 28.2994 13.9737 28.2994Z" fill="white"/>
<path d="M8.24435 29.9495C8.24435 30.8646 7.53162 31.5994 6.64069 31.6133C5.73607 31.6271 4.96851 30.8646 4.96851 29.9495C4.96851 29.0482 5.69495 28.2995 6.58587 28.2856C7.5042 28.2856 8.24435 29.0205 8.24435 29.9495Z" fill="white"/>
</svg>
