<svg xmlns="http://www.w3.org/2000/svg" width="32" height="32" viewBox="0 0 32 32" fill="none"><circle cx="16" cy="16.0002" r="16" fill="url(#paint0_linear_113_286)"></circle><path d="M23.8222 21.314C23.8222 21.4733 23.8222 21.6325 23.8222 21.7918C23.814 21.8236 23.8018 21.8555 23.7936 21.8913C23.614 22.8429 23.0467 23.464 22.0997 23.7427C21.9854 23.7785 21.863 23.7984 21.7446 23.8223C21.5814 23.8223 21.4181 23.8223 21.2548 23.8223C21.2426 23.8144 21.2263 23.8064 21.214 23.8024C20.6262 23.7308 20.1569 23.456 19.7446 23.0499C18.6548 21.9749 17.5569 20.9119 16.4671 19.8409C16.4262 19.801 16.3977 19.7413 16.365 19.6935C16.3405 19.6935 16.316 19.6935 16.2956 19.6935C16.263 19.7413 16.2344 19.801 16.1936 19.8409C15.0385 20.9716 13.8834 22.0984 12.7323 23.2291C12.4589 23.4998 12.1813 23.7427 11.7895 23.8184C11.667 23.8184 11.5446 23.8184 11.4221 23.8184C11.0344 23.7467 10.7527 23.5118 10.4834 23.245C9.87519 22.6359 9.25478 22.0386 8.63845 21.4374C8.02212 20.8362 8.0262 20.1235 8.63845 19.5223C9.8507 18.3359 11.067 17.1494 12.2793 15.9629C12.316 15.9271 12.3446 15.8912 12.3854 15.8514C12.3405 15.8036 12.3038 15.7638 12.263 15.728C11.4548 14.9397 10.6507 14.1513 9.84254 13.363C9.3609 12.9011 9.03437 12.3597 8.87111 11.7186C8.66294 10.8905 8.44661 10.0623 8.23029 9.23419C8.13233 8.84798 8.17723 8.72854 8.516 8.53345C8.59764 8.53345 8.67927 8.53345 8.7609 8.53345C8.80172 8.54937 8.84253 8.56928 8.88335 8.58123C9.63029 8.76437 10.3772 8.96743 11.1323 9.13067C11.9854 9.31382 12.6997 9.704 13.3038 10.3251C14.0385 11.0776 14.8058 11.7983 15.5568 12.5348C15.5936 12.5707 15.6344 12.6065 15.6956 12.6583C15.7324 12.6105 15.7568 12.5707 15.7895 12.5388C16.9568 11.4001 18.1242 10.2614 19.2875 9.11474C19.5528 8.84798 19.8303 8.61308 20.2181 8.53345C20.3405 8.53345 20.463 8.53345 20.5854 8.53345C20.9732 8.60511 21.2548 8.84002 21.5242 9.10678C22.0834 9.66817 22.6548 10.2256 23.2263 10.771C23.5038 11.0338 23.7487 11.3125 23.8222 11.6987C23.8222 11.8182 23.8222 11.9376 23.8222 12.0571C23.7405 12.4393 23.4916 12.714 23.2181 12.9808C22.0548 14.1075 20.8997 15.2422 19.7405 16.373C19.6997 16.4088 19.6467 16.4327 19.6018 16.4646C19.6018 16.4884 19.6018 16.5123 19.6018 16.5322C19.6548 16.5641 19.712 16.592 19.7528 16.6318C20.8752 17.7227 21.9895 18.8176 23.112 19.9125C23.4222 20.2151 23.6385 20.5655 23.7487 20.9796C23.7732 21.091 23.7977 21.2025 23.8222 21.314ZM17.6589 17.1096C17.4262 16.8866 17.1936 16.6636 16.965 16.4367C16.7732 16.2456 16.7691 15.9709 16.9487 15.7957C17.1283 15.6165 17.4099 15.6165 17.6058 15.7997C17.7732 15.9549 17.9324 16.1142 18.0915 16.2734C18.165 16.3451 18.2262 16.4287 18.2793 16.4884C18.5405 16.2336 18.7691 16.0107 19.0018 15.7797C18.5609 15.3497 18.1079 14.9118 17.6671 14.4659C17.5895 14.3902 17.5283 14.2787 17.5038 14.1752C17.4589 13.9881 17.5732 13.8049 17.7446 13.7213C17.9283 13.6337 18.1201 13.6576 18.2793 13.8089C18.7079 14.223 19.1283 14.6371 19.5569 15.0511C19.5936 15.087 19.6344 15.1228 19.6548 15.1427C19.8956 14.9078 20.1242 14.6848 20.365 14.4499C20.1569 14.2469 19.9365 14.0359 19.716 13.8209C19.4875 13.5979 19.4671 13.3272 19.6671 13.136C19.863 12.9489 20.1324 12.9648 20.3569 13.1838C20.5814 13.4028 20.8018 13.6218 20.9977 13.8129C21.2385 13.578 21.4712 13.351 21.7201 13.1122C21.6916 13.0883 21.6467 13.0604 21.6058 13.0206C21.1895 12.6184 20.7732 12.2123 20.365 11.8062C20.112 11.5554 20.1814 11.1732 20.4997 11.0577C20.7038 10.9821 20.8752 11.0378 21.0263 11.1851C21.4385 11.5912 21.8548 11.9934 22.2671 12.3995C22.3038 12.4353 22.3446 12.4711 22.4018 12.5229C22.5242 12.3955 22.6385 12.276 22.7569 12.1606C22.961 11.9535 22.965 11.7823 22.7569 11.5793C22.0793 10.9184 21.4018 10.2574 20.7242 9.5965C20.4875 9.36558 20.3242 9.36558 20.0875 9.5965C16.4793 13.1241 12.8711 16.6477 9.26294 20.1753C9.03437 20.3983 9.03437 20.5615 9.26294 20.7845C9.93642 21.4414 10.6099 22.1023 11.2834 22.7593C11.3119 22.7872 11.3405 22.815 11.3732 22.8389C11.5119 22.9464 11.6793 22.9584 11.8058 22.8469C11.9609 22.7115 12.0997 22.5602 12.2507 22.4089C12.214 22.3691 12.1813 22.3333 12.1446 22.2974C11.9446 22.0984 11.7364 21.9072 11.5405 21.7042C11.2997 21.4573 11.3976 21.0672 11.7201 20.9676C11.9079 20.9079 12.0711 20.9597 12.2099 21.095C12.4385 21.322 12.667 21.5449 12.8793 21.7559C13.1242 21.5171 13.3528 21.2901 13.5895 21.0592C13.1528 20.6372 12.7038 20.1992 12.2548 19.7572C12.0466 19.5542 12.0344 19.2795 12.2181 19.0923C12.4099 18.9052 12.6834 18.9132 12.8956 19.1202C13.2058 19.4228 13.516 19.7254 13.8262 20.028C13.9691 20.1673 14.1079 20.3147 14.2303 20.4381C14.4793 20.1952 14.7119 19.9683 14.9487 19.7373C14.7324 19.5303 14.5079 19.3073 14.2793 19.0884C14.1691 18.9809 14.1079 18.8534 14.1242 18.7022C14.1446 18.523 14.2426 18.3956 14.414 18.3319C14.5977 18.2642 14.765 18.304 14.9038 18.4354C15.1405 18.6623 15.3773 18.8972 15.5977 19.1162C15.8385 18.8813 16.067 18.6584 16.3038 18.4274C16.2793 18.3996 16.2466 18.3637 16.2099 18.3319C15.8017 17.9297 15.3854 17.5316 14.9813 17.1255C14.9079 17.0498 14.8385 16.9503 14.814 16.8508C14.7568 16.6557 14.8589 16.4646 15.0344 16.369C15.214 16.2734 15.4344 16.3013 15.5936 16.4566C16.0181 16.8667 16.4385 17.2808 16.8589 17.6909C16.8956 17.7267 16.9364 17.7625 16.965 17.7904C17.1977 17.5634 17.4181 17.3445 17.6589 17.1096ZM18.9691 17.1733C18.3201 17.8063 17.663 18.4473 17.0303 19.0684C17.6589 19.6856 18.2997 20.3107 18.9324 20.9278C19.5732 20.3027 20.2262 19.6617 20.8752 19.0286C20.2426 18.4155 19.6018 17.7904 18.9691 17.1733ZM19.6018 21.5927C19.9405 21.9351 20.2548 22.2974 20.614 22.612C21.1365 23.0659 21.9324 23.03 22.4548 22.5642C22.965 22.1063 23.0793 21.322 22.6548 20.7884C22.3324 20.3823 21.9365 20.0359 21.5773 19.6657C20.8956 20.3226 20.2426 20.9636 19.6018 21.5927ZM12.7568 11.0736C12.3405 10.6038 11.8548 10.2216 11.2058 10.0743C10.6874 9.95484 10.1691 9.81947 9.65478 9.69206C9.53641 9.66419 9.41396 9.63234 9.27519 9.60048C9.44254 10.2415 9.60988 10.8547 9.75682 11.4718C9.90376 12.1168 10.2956 12.5985 10.7813 13.0086C11.4344 12.3676 12.0915 11.7266 12.7568 11.0736ZM13.0262 15.1825C13.6793 14.5455 14.3364 13.9045 14.9854 13.2714C14.4711 12.7697 13.9487 12.2561 13.4303 11.7505C12.7813 12.3875 12.1242 13.0285 11.4752 13.6616C11.9895 14.1672 12.5119 14.6809 13.0262 15.1825Z" fill="white"></path><defs><linearGradient id="paint0_linear_113_286" x1="16" y1="0.000244141" x2="16" y2="32.0002" gradientUnits="userSpaceOnUse"><stop stop-color="#5C41F9"></stop><stop offset="1" stop-color="#4C92EB"></stop></linearGradient></defs></svg>