<svg xmlns="http://www.w3.org/2000/svg" width="32" height="32" viewBox="0 0 32 32" fill="none"><circle cx="16" cy="16.0002" r="16" fill="url(#paint0_linear_113_270)"></circle><path d="M23.5733 9.71197C23.5733 14.0499 23.5733 18.3878 23.5733 22.7257C23.5652 22.7498 23.5532 22.7698 23.5492 22.7939C23.3925 23.4808 22.8784 23.8985 22.1715 23.8985C17.9742 23.8985 13.7768 23.8985 9.57952 23.8985C8.76415 23.8985 8.17773 23.3121 8.17773 22.5048C8.17773 18.3155 8.17773 14.1222 8.17773 9.93288C8.17773 9.80435 8.1938 9.6718 8.22593 9.54729C8.3866 8.92873 8.9208 8.53913 9.59157 8.53511C12.8209 8.53511 16.0502 8.53511 19.2836 8.53511C20.2556 8.53511 21.2276 8.53109 22.1996 8.53511C22.782 8.53913 23.1997 8.81225 23.4528 9.33843C23.505 9.45892 23.5331 9.58745 23.5733 9.71197ZM22.6695 13.0658C18.1308 13.0658 13.6081 13.0658 9.08146 13.0658C9.08146 13.1341 9.08146 13.1943 9.08146 13.2546C9.08146 16.3112 9.08146 19.3678 9.08146 22.4244C9.08146 22.8381 9.23811 22.9948 9.65182 22.9948C13.8009 22.9948 17.946 22.9948 22.0952 22.9948C22.5089 22.9948 22.6695 22.8381 22.6695 22.4244C22.6695 19.3638 22.6695 16.2991 22.6695 13.2385C22.6695 13.1863 22.6695 13.1301 22.6695 13.0658ZM22.6695 12.146C22.6695 12.0858 22.6695 12.0416 22.6695 11.9974C22.6695 11.3186 22.6695 10.6438 22.6695 9.96501C22.6695 9.61557 22.4928 9.43884 22.1434 9.43884C17.9661 9.43884 13.7889 9.43884 9.61165 9.43884C9.25819 9.43884 9.08548 9.61155 9.08146 9.96099C9.08146 10.6398 9.08146 11.3146 9.08146 11.9934C9.08146 12.0416 9.08548 12.0898 9.0895 12.142C13.6162 12.146 18.1308 12.146 22.6695 12.146Z" fill="white"></path><path d="M17.6754 14.9054C17.6634 14.9415 17.6473 15.0219 17.6152 15.0942C16.7275 17.1707 15.8398 19.2473 14.9522 21.3239C14.8357 21.593 14.5867 21.7095 14.3457 21.6091C14.1007 21.5046 14.0083 21.2435 14.1288 20.9624C15.0164 18.8858 15.9041 16.8092 16.7918 14.7327C16.8922 14.4957 17.097 14.3792 17.3139 14.4234C17.5228 14.4636 17.6754 14.6483 17.6754 14.9054Z" fill="white"></path><path d="M11.6393 18.0261C11.8 18.1546 11.9405 18.2711 12.0851 18.3876C12.535 18.7491 12.9849 19.1065 13.4347 19.468C13.5833 19.5885 13.6516 19.7452 13.6074 19.9339C13.5673 20.1187 13.4468 20.2512 13.266 20.2673C13.1415 20.2794 12.9849 20.2512 12.8885 20.179C12.1293 19.5885 11.3822 18.986 10.6352 18.3795C10.4022 18.1907 10.4022 17.8654 10.6392 17.6766C11.3822 17.0741 12.1293 16.4757 12.8804 15.8812C13.0933 15.7125 13.3664 15.7447 13.5231 15.9415C13.6837 16.1463 13.6476 16.4154 13.4307 16.5962C12.8885 17.034 12.3462 17.4678 11.8 17.9016C11.7518 17.9337 11.7036 17.9698 11.6393 18.0261Z" fill="white"></path><path d="M20.1113 18.0221C19.6012 17.6125 19.1112 17.2188 18.6171 16.8252C18.5127 16.7409 18.4043 16.6605 18.2998 16.5722C18.103 16.4035 18.0749 16.1344 18.2275 15.9375C18.3802 15.7407 18.6533 15.7006 18.8581 15.8652C19.6173 16.4677 20.3724 17.0702 21.1195 17.6807C21.3484 17.8695 21.3484 18.1868 21.1154 18.3756C20.3643 18.9861 19.6092 19.5886 18.8541 20.1911C18.6493 20.3518 18.3761 20.3076 18.2235 20.1148C18.0669 19.9139 18.103 19.6448 18.3159 19.4721C18.8662 19.0263 19.4164 18.5885 19.9667 18.1467C20.0109 18.1065 20.0511 18.0744 20.1113 18.0221Z" fill="white"></path><path d="M19.9163 11.2461C19.4865 11.2461 19.0567 11.2461 18.627 11.2461C18.3338 11.2461 18.1329 11.0614 18.1289 10.7963C18.1289 10.5352 18.3297 10.3424 18.6189 10.3424C19.4945 10.3424 20.3702 10.3424 21.2458 10.3424C21.535 10.3424 21.7398 10.5352 21.7358 10.8003C21.7318 11.0574 21.5309 11.2461 21.2538 11.2461C20.8039 11.2502 20.3621 11.2461 19.9163 11.2461Z" fill="white"></path><path d="M10.9136 10.8004C10.9095 11.0454 10.7047 11.2462 10.4597 11.2462C10.2107 11.2462 10.0058 11.0293 10.0098 10.7803C10.0179 10.5353 10.2267 10.3385 10.4677 10.3425C10.7167 10.3505 10.9176 10.5594 10.9136 10.8004Z" fill="white"></path><path d="M12.7163 10.7963C12.7163 11.0414 12.5114 11.2462 12.2664 11.2462C12.0174 11.2462 11.8085 11.0333 11.8126 10.7843C11.8166 10.5393 12.0254 10.3384 12.2704 10.3425C12.5155 10.3465 12.7203 10.5553 12.7163 10.7963Z" fill="white"></path><path d="M14.521 10.8043C14.517 11.0493 14.3122 11.2501 14.0672 11.2501C13.8181 11.2501 13.6133 11.0332 13.6213 10.7842C13.6294 10.5392 13.8382 10.3424 14.0832 10.3464C14.3242 10.3504 14.5251 10.5593 14.521 10.8043Z" fill="white"></path><defs><linearGradient id="paint0_linear_113_270" x1="16" y1="0.000244141" x2="16" y2="32.0002" gradientUnits="userSpaceOnUse"><stop stop-color="#5C41F9"></stop><stop offset="1" stop-color="#4C92EB"></stop></linearGradient></defs></svg>