<svg width="73" height="73" viewBox="0 0 73 73" fill="none" xmlns="http://www.w3.org/2000/svg">
<ellipse cx="36.5" cy="36.9007" rx="36" ry="36.0071" fill="#3DCAB1"/>
<path d="M53.5404 22.7501C53.5404 32.5124 53.5404 42.2746 53.5404 52.0368C53.5223 52.091 53.4952 52.1362 53.4862 52.1905C53.1337 53.7362 51.9769 54.6762 50.3864 54.6762C40.9424 54.6762 31.4984 54.6762 22.0544 54.6762C20.2198 54.6762 18.9004 53.3565 18.9004 51.5397C18.9004 42.1119 18.9004 32.6751 18.9004 23.2473C18.9004 22.958 18.9365 22.6597 19.0088 22.3795C19.3703 20.9875 20.5723 20.1107 22.0815 20.1017C29.3475 20.1017 36.6135 20.1017 43.8885 20.1017C46.0756 20.1017 48.2626 20.0926 50.4496 20.1017C51.76 20.1107 52.6999 20.7254 53.2693 21.9095C53.3867 22.1807 53.45 22.4699 53.5404 22.7501ZM51.507 30.2978C41.2948 30.2978 31.1188 30.2978 20.9338 30.2978C20.9338 30.4514 20.9338 30.587 20.9338 30.7226C20.9338 37.6014 20.9338 44.4801 20.9338 51.3589C20.9338 52.2899 21.2862 52.6424 22.2171 52.6424C31.5526 52.6424 40.8791 52.6424 50.2147 52.6424C51.1455 52.6424 51.507 52.2899 51.507 51.3589C51.507 44.4711 51.507 37.5742 51.507 30.6865C51.507 30.5689 51.507 30.4424 51.507 30.2978ZM51.507 28.2278C51.507 28.0922 51.507 27.9928 51.507 27.8934C51.507 26.3658 51.507 24.8472 51.507 23.3196C51.507 22.5332 51.1093 22.1355 50.3231 22.1355C40.9243 22.1355 31.5255 22.1355 22.1267 22.1355C21.3314 22.1355 20.9428 22.5242 20.9338 23.3106C20.9338 24.8382 20.9338 26.3567 20.9338 27.8843C20.9338 27.9928 20.9428 28.1013 20.9519 28.2188C31.1369 28.2278 41.2948 28.2278 51.507 28.2278Z" fill="white"/>
<path d="M40.2741 34.4377C40.247 34.519 40.2108 34.6998 40.1385 34.8625C38.1413 39.5357 36.144 44.2089 34.1468 48.8821C33.8847 49.4877 33.3244 49.7499 32.7822 49.5239C32.2309 49.2889 32.023 48.7013 32.2942 48.0686C34.2914 43.3954 36.2886 38.7222 38.2859 34.049C38.5118 33.5157 38.9727 33.2535 39.4607 33.353C39.9307 33.4434 40.2741 33.8592 40.2741 34.4377Z" fill="white"/>
<path d="M26.6904 41.4611C27.0519 41.7503 27.3682 42.0124 27.6935 42.2746C28.7057 43.0881 29.7179 43.8926 30.7301 44.7061C31.0644 44.9773 31.2181 45.3298 31.1187 45.7546C31.0283 46.1704 30.7572 46.4687 30.3505 46.5049C30.0703 46.532 29.7179 46.4687 29.501 46.306C27.7929 44.9773 26.112 43.6214 24.4311 42.2565C23.9069 41.8317 23.9069 41.0995 24.4401 40.6747C26.112 39.3188 27.7929 37.972 29.4829 36.6342C29.9619 36.2545 30.5764 36.3269 30.9289 36.7698C31.2904 37.2308 31.209 37.8364 30.721 38.2431C29.501 39.2284 28.281 40.2046 27.0519 41.1808C26.9434 41.2532 26.835 41.3345 26.6904 41.4611Z" fill="white"/>
<path d="M45.75 41.452C44.6022 40.5301 43.4997 39.6442 42.3881 38.7584C42.1531 38.5686 41.9091 38.3878 41.6741 38.1889C41.2313 37.8093 41.168 37.2037 41.5115 36.7608C41.8549 36.3178 42.4694 36.2275 42.9303 36.5981C44.6384 37.9539 46.3374 39.3098 48.0183 40.6837C48.5334 41.1086 48.5334 41.8227 48.0093 42.2475C46.3193 43.6214 44.6203 44.9773 42.9213 46.3332C42.4604 46.6947 41.8458 46.5953 41.5024 46.1614C41.15 45.7095 41.2313 45.1038 41.7103 44.7152C42.9484 43.7118 44.1865 42.7266 45.4246 41.7323C45.524 41.6419 45.6144 41.5696 45.75 41.452Z" fill="white"/>
<path d="M45.3165 26.2023C44.3495 26.2023 43.3825 26.2023 42.4155 26.2023C41.7558 26.2023 41.304 25.7866 41.2949 25.1902C41.2949 24.6027 41.7468 24.1689 42.3975 24.1689C44.3676 24.1689 46.3377 24.1689 48.3079 24.1689C48.9586 24.1689 49.4195 24.6027 49.4104 25.1992C49.4014 25.7776 48.9495 26.2023 48.3259 26.2023C47.3138 26.2114 46.3197 26.2023 45.3165 26.2023Z" fill="white"/>
<path d="M25.055 25.1993C25.046 25.7506 24.5851 26.2025 24.0338 26.2025C23.4735 26.2025 23.0126 25.7145 23.0216 25.1541C23.0397 24.6029 23.5096 24.16 24.0519 24.1691C24.6122 24.1872 25.064 24.6571 25.055 25.1993Z" fill="white"/>
<path d="M29.1116 25.1903C29.1116 25.7416 28.6507 26.2025 28.0995 26.2025C27.5392 26.2025 27.0692 25.7235 27.0783 25.1632C27.0873 24.6119 27.5572 24.16 28.1085 24.1691C28.6598 24.1781 29.1207 24.6481 29.1116 25.1903Z" fill="white"/>
<path d="M33.1714 25.2081C33.1623 25.7594 32.7014 26.2113 32.1501 26.2113C31.5898 26.2113 31.1289 25.7232 31.147 25.1629C31.1651 24.6117 31.635 24.1688 32.1863 24.1779C32.7285 24.1869 33.1804 24.6568 33.1714 25.2081Z" fill="white"/>
</svg>
