<svg xmlns="http://www.w3.org/2000/svg" width="72" height="72" viewBox="0 0 72 72" fill="none"><circle cx="36" cy="36" r="36" fill="url(#paint0_linear_112_43)"></circle><path d="M53.0399 21.8519C53.0399 31.6122 53.0399 41.3725 53.0399 51.1328C53.0218 51.187 52.9947 51.2322 52.9857 51.2864C52.6332 52.8318 51.4764 53.7717 49.8859 53.7717C40.4419 53.7717 30.9979 53.7717 21.5539 53.7717C19.7193 53.7717 18.3999 52.4522 18.3999 50.6357C18.3999 41.2098 18.3999 31.7749 18.3999 22.3489C18.3999 22.0598 18.4361 21.7615 18.5084 21.4814C18.8698 20.0896 20.0718 19.213 21.581 19.204C28.847 19.204 36.113 19.204 43.3881 19.204C45.5751 19.204 47.7621 19.1949 49.9491 19.204C51.2595 19.213 52.1994 19.8275 52.7688 21.0114C52.8863 21.2825 52.9495 21.5717 53.0399 21.8519ZM51.0065 29.398C40.7943 29.398 30.6183 29.398 20.4333 29.398C20.4333 29.5517 20.4333 29.6872 20.4333 29.8228C20.4333 36.7002 20.4333 43.5776 20.4333 50.455C20.4333 51.3858 20.7858 51.7383 21.7166 51.7383C31.0521 51.7383 40.3786 51.7383 49.7142 51.7383C50.645 51.7383 51.0065 51.3858 51.0065 50.455C51.0065 43.5685 51.0065 36.6731 51.0065 29.7867C51.0065 29.6692 51.0065 29.5426 51.0065 29.398ZM51.0065 27.3285C51.0065 27.1929 51.0065 27.0935 51.0065 26.9941C51.0065 25.4668 51.0065 23.9486 51.0065 22.4212C51.0065 21.635 50.6089 21.2374 49.8226 21.2374C40.4238 21.2374 31.025 21.2374 21.6262 21.2374C20.8309 21.2374 20.4423 21.626 20.4333 22.4122C20.4333 23.9395 20.4333 25.4578 20.4333 26.9851C20.4333 27.0935 20.4423 27.202 20.4514 27.3195C30.6364 27.3285 40.7943 27.3285 51.0065 27.3285Z" fill="white"></path><path d="M39.7731 33.5371C39.746 33.6184 39.7099 33.7992 39.6376 33.9619C37.6403 38.6341 35.6431 43.3064 33.6458 47.9787C33.3837 48.5842 32.8234 48.8463 32.2812 48.6204C31.7299 48.3854 31.5221 47.798 31.7932 47.1654C33.7904 42.4931 35.7877 37.8208 37.7849 33.1485C38.0108 32.6153 38.4717 32.3532 38.9598 32.4526C39.4297 32.543 39.7731 32.9587 39.7731 33.5371Z" fill="white"></path><path d="M26.1904 40.5591C26.5519 40.8483 26.8682 41.1104 27.1935 41.3725C28.2057 42.1858 29.2179 42.9902 30.2301 43.8035C30.5644 44.0746 30.7181 44.4271 30.6187 44.8518C30.5283 45.2676 30.2572 45.5658 29.8505 45.6019C29.5703 45.629 29.2179 45.5658 29.001 45.4031C27.2929 44.0746 25.612 42.719 23.9311 41.3544C23.4069 40.9296 23.4069 40.1976 23.9401 39.7729C25.612 38.4173 27.2929 37.0707 28.9829 35.7332C29.4619 35.3536 30.0764 35.4259 30.4289 35.8688C30.7904 36.3297 30.709 36.9352 30.221 37.3418C29.001 38.3269 27.781 39.3029 26.5519 40.279C26.4434 40.3513 26.335 40.4326 26.1904 40.5591Z" fill="white"></path><path d="M45.25 40.5501C44.1022 39.6283 42.9997 38.7426 41.8881 37.857C41.6531 37.6672 41.4091 37.4865 41.1741 37.2876C40.7313 36.9081 40.668 36.3026 41.0115 35.8597C41.3549 35.4169 41.9694 35.3265 42.4303 35.6971C44.1384 37.0527 45.8374 38.4083 47.5183 39.7819C48.0334 40.2067 48.0334 40.9206 47.5093 41.3454C45.8193 42.7191 44.1203 44.0747 42.4213 45.4302C41.9604 45.7917 41.3458 45.6923 41.0024 45.2585C40.65 44.8067 40.7313 44.2012 41.2103 43.8126C42.4484 42.8094 43.6865 41.8244 44.9246 40.8303C45.024 40.7399 45.1144 40.6676 45.25 40.5501Z" fill="white"></path><path d="M44.816 25.3041C43.849 25.3041 42.8821 25.3041 41.9151 25.3041C41.2553 25.3041 40.8035 24.8884 40.7944 24.292C40.7944 23.7045 41.2463 23.2708 41.897 23.2708C43.8671 23.2708 45.8372 23.2708 47.8074 23.2708C48.4581 23.2708 48.919 23.7045 48.9099 24.301C48.9009 24.8794 48.449 25.3041 47.8255 25.3041C46.8133 25.3132 45.8192 25.3041 44.816 25.3041Z" fill="white"></path><path d="M24.5545 24.3011C24.5455 24.8524 24.0846 25.3043 23.5333 25.3043C22.973 25.3043 22.5121 24.8163 22.5211 24.256C22.5392 23.7047 23.0091 23.2619 23.5514 23.2709C24.1117 23.289 24.5636 23.7589 24.5545 24.3011Z" fill="white"></path><path d="M28.6121 24.2921C28.6121 24.8434 28.1512 25.3043 27.6 25.3043C27.0396 25.3043 26.5697 24.8253 26.5787 24.265C26.5878 23.7137 27.0577 23.2618 27.609 23.2709C28.1603 23.2799 28.6212 23.7499 28.6121 24.2921Z" fill="white"></path><path d="M32.6699 24.3101C32.6609 24.8613 32.2 25.3132 31.6487 25.3132C31.0884 25.3132 30.6275 24.8252 30.6455 24.2649C30.6636 23.7136 31.1335 23.2708 31.6848 23.2798C32.2271 23.2888 32.6789 23.7588 32.6699 24.3101Z" fill="white"></path><defs><linearGradient id="paint0_linear_112_43" x1="4.4" y1="67.6" x2="62.8" y2="4.4" gradientUnits="userSpaceOnUse"><stop stop-color="#5D40FA"></stop><stop offset="1" stop-color="#4E95ED"></stop></linearGradient></defs></svg>