<svg xmlns="http://www.w3.org/2000/svg" width="90" height="90" viewBox="0 0 90 90" fill="none"><circle cx="45" cy="45" r="45" fill="url(#paint0_linear_2_686)"></circle><path d="M27.6265 50.2802C39.2359 50.2802 50.7356 50.2802 62.3724 50.2802C61.6048 49.5038 60.851 48.8799 60.2479 48.1173C59.5077 47.1883 58.6305 46.814 57.4655 46.9526C56.6157 47.0497 55.7522 46.9803 54.9024 46.9665C53.9292 46.9526 53.2165 46.2455 53.2028 45.3304C53.1891 44.3737 53.9155 43.6527 54.9161 43.6527C56.506 43.6388 58.096 43.6111 59.6859 43.6804C60.1245 43.6943 60.6454 43.9023 60.9606 44.2073C63.1674 46.3841 65.3467 48.5887 67.4986 50.821C67.7727 51.1122 67.9509 51.6113 67.9646 52.0273C68.0058 54.7448 67.9921 57.4763 67.9783 60.1938C67.9783 62.2043 66.5666 63.6324 64.5791 63.6462C51.5169 63.6462 38.4546 63.6462 25.3924 63.6462C23.4186 63.6462 22.0069 62.2043 22.0069 60.1938C22.0069 57.4763 21.9794 54.7448 22.0343 52.0273C22.0343 51.6113 22.2399 51.0844 22.5277 50.7933C24.6522 48.5887 26.8178 46.4257 28.9697 44.235C29.3398 43.8607 29.7647 43.6666 30.2993 43.6666C33.534 43.6666 36.7687 43.6666 39.9897 43.6666C40.8944 43.6666 41.5934 44.2905 41.6893 45.1501C41.7853 45.9821 41.2233 46.7724 40.4009 46.9526C40.209 46.9942 39.9897 46.9942 39.7841 46.9942C36.9606 46.9942 34.1371 46.9942 31.3272 47.0081C31.0805 47.0081 30.7653 47.1467 30.5871 47.327C29.6139 48.2421 28.6682 49.2265 27.6265 50.2802ZM25.3238 53.6495C25.3238 55.8818 25.3238 58.0725 25.3238 60.2631C38.4546 60.2631 51.5443 60.2631 64.6614 60.2631C64.6614 58.0447 64.6614 55.854 64.6614 53.6495C51.5306 53.6495 38.4409 53.6495 25.3238 53.6495Z" fill="white"></path><path d="M38.4959 36.1933C38.7289 35.9714 38.8523 35.8466 38.9893 35.7218C39.6609 35.1534 40.6067 35.195 41.2235 35.8189C41.8129 36.429 41.8951 37.4134 41.3057 38.0373C40.1818 39.2436 39.0167 40.4221 37.8243 41.5729C37.2212 42.1691 36.2892 42.1414 35.6861 41.5591C34.5347 40.4083 33.3971 39.2575 32.2869 38.0928C31.6564 37.4411 31.7249 36.429 32.3554 35.7912C32.9722 35.1811 33.9179 35.1534 34.5896 35.7496C34.754 35.9021 34.9048 36.0546 35.1241 36.2626C35.1926 35.8466 35.2338 35.5 35.3023 35.1672C36.248 30.3144 40.3051 26.9452 45.1572 27.0007C49.8586 27.0561 53.8745 30.5502 54.7106 35.3475C55.7386 41.2679 51.1058 46.9249 45.1709 46.9665C44.1293 46.9803 43.3754 46.301 43.348 45.3443C43.3206 44.3737 44.047 43.6666 45.0887 43.6388C48.8306 43.5279 51.6815 40.4637 51.5444 36.6785C51.4211 33.0459 48.3234 30.1897 44.6501 30.3283C41.7169 30.4392 39.0579 32.7824 38.537 35.6941C38.5096 35.8189 38.5096 35.9437 38.4959 36.1933Z" fill="white"></path><path d="M35.9736 55.2994C36.7412 55.2994 37.5087 55.2994 38.2763 55.2994C39.318 55.2994 40.0581 56.0065 40.0444 56.9771C40.0444 57.9199 39.3043 58.627 38.3037 58.627C36.7275 58.6409 35.1512 58.6409 33.5887 58.627C32.5881 58.627 31.848 57.9199 31.848 56.9771C31.8343 56.0065 32.5744 55.3132 33.6161 55.2994C34.4111 55.2855 35.1923 55.2994 35.9736 55.2994Z" fill="white"></path><path d="M30.2444 56.9493C30.2444 57.8644 29.5317 58.5993 28.6408 58.6132C27.7362 58.627 26.9686 57.8644 26.9686 56.9493C26.9686 56.0481 27.695 55.2994 28.586 55.2855C29.5043 55.2855 30.2444 56.0204 30.2444 56.9493Z" fill="white"></path><defs><linearGradient id="paint0_linear_2_686" x1="14.5" y1="90" x2="70" y2="2.17929e-06" gradientUnits="userSpaceOnUse"><stop stop-color="#5130EF"></stop><stop offset="1" stop-color="#4C92EB"></stop><stop offset="1" stop-color="#4E90ED"></stop></linearGradient></defs></svg>