<svg xmlns="http://www.w3.org/2000/svg" width="32" height="32" viewBox="0 0 32 32" fill="none"><circle cx="16" cy="16.0002" r="16" fill="url(#paint0_linear_113_258)"></circle><path d="M9.8228 17.8779C13.9506 17.8779 18.0394 17.8779 22.1769 17.8779C21.904 17.6018 21.6359 17.38 21.4215 17.1088C21.1584 16.7785 20.8465 16.6454 20.4322 16.6947C20.1301 16.7292 19.823 16.7046 19.5209 16.6997C19.1749 16.6947 18.9215 16.4433 18.9166 16.1179C18.9117 15.7778 19.17 15.5214 19.5258 15.5214C20.0911 15.5165 20.6564 15.5066 21.2217 15.5313C21.3777 15.5362 21.5628 15.6102 21.6749 15.7186C22.4596 16.4926 23.2344 17.2764 23.9996 18.0701C24.097 18.1737 24.1604 18.3511 24.1652 18.499C24.1799 19.4653 24.175 20.4365 24.1701 21.4027C24.1701 22.1175 23.6682 22.6253 22.9615 22.6302C18.3172 22.6302 13.6728 22.6302 9.02843 22.6302C8.32666 22.6302 7.8247 22.1175 7.8247 21.4027C7.8247 20.4365 7.81496 19.4653 7.83445 18.499C7.83445 18.3511 7.90755 18.1638 8.00989 18.0603C8.76527 17.2764 9.53527 16.5074 10.3004 15.7285C10.432 15.5954 10.5831 15.5264 10.7731 15.5264C11.9232 15.5264 13.0734 15.5264 14.2186 15.5264C14.5403 15.5264 14.7888 15.7482 14.8229 16.0538C14.857 16.3496 14.6572 16.6306 14.3648 16.6947C14.2966 16.7095 14.2186 16.7095 14.1455 16.7095C13.1416 16.7095 12.1377 16.7095 11.1386 16.7144C11.0509 16.7144 10.9388 16.7637 10.8755 16.8278C10.5294 17.1532 10.1932 17.5032 9.8228 17.8779ZM9.00407 19.0758C9.00407 19.8695 9.00407 20.6484 9.00407 21.4274C13.6728 21.4274 18.3269 21.4274 22.9908 21.4274C22.9908 20.6386 22.9908 19.8597 22.9908 19.0758C18.322 19.0758 13.6679 19.0758 9.00407 19.0758Z" fill="white"></path><path d="M13.6883 12.8691C13.7712 12.7902 13.815 12.7458 13.8638 12.7014C14.1026 12.4993 14.4388 12.5141 14.6581 12.736C14.8677 12.9529 14.8969 13.3029 14.6874 13.5247C14.2877 13.9536 13.8735 14.3727 13.4495 14.7818C13.2351 14.9938 12.9037 14.984 12.6893 14.7769C12.2799 14.3677 11.8754 13.9585 11.4807 13.5444C11.2565 13.3127 11.2809 12.9529 11.505 12.7261C11.7243 12.5092 12.0606 12.4993 12.2994 12.7113C12.3579 12.7655 12.4115 12.8198 12.4895 12.8937C12.5138 12.7458 12.5284 12.6226 12.5528 12.5043C12.8891 10.7788 14.3316 9.58086 16.0568 9.60058C17.7284 9.6203 19.1563 10.8626 19.4536 12.5683C19.8191 14.6734 18.1719 16.6847 16.0617 16.6995C15.6913 16.7045 15.4233 16.4629 15.4135 16.1227C15.4038 15.7777 15.662 15.5262 16.0324 15.5164C17.3629 15.4769 18.3765 14.3874 18.3278 13.0416C18.2839 11.75 17.1826 10.7344 15.8765 10.7837C14.8336 10.8232 13.8881 11.6563 13.7029 12.6916C13.6932 12.736 13.6932 12.7803 13.6883 12.8691Z" fill="white"></path><path d="M12.7912 19.6623C13.0641 19.6623 13.337 19.6623 13.6099 19.6623C13.9803 19.6623 14.2435 19.9138 14.2386 20.2589C14.2386 20.5941 13.9754 20.8455 13.6197 20.8455C13.0592 20.8504 12.4988 20.8504 11.9432 20.8455C11.5874 20.8455 11.3243 20.5941 11.3243 20.2589C11.3194 19.9138 11.5826 19.6673 11.953 19.6623C12.2356 19.6574 12.5134 19.6623 12.7912 19.6623Z" fill="white"></path><path d="M10.7526 20.2492C10.7526 20.5745 10.4992 20.8358 10.1824 20.8408C9.8608 20.8457 9.58789 20.5745 9.58789 20.2492C9.58789 19.9287 9.84618 19.6625 10.163 19.6576C10.4895 19.6576 10.7526 19.9189 10.7526 20.2492Z" fill="white"></path><defs><linearGradient id="paint0_linear_113_258" x1="16" y1="0.000244141" x2="16" y2="32.0002" gradientUnits="userSpaceOnUse"><stop stop-color="#5C41F9"></stop><stop offset="1" stop-color="#4C92EB"></stop></linearGradient></defs></svg>