<svg xmlns="http://www.w3.org/2000/svg" width="33" height="30" viewBox="0 0 33 30" fill="none"><path d="M32.0001 14.0623C32.0001 14.6716 32.0001 15.2732 32.0001 15.8826C31.9192 16.4998 31.8384 17.1169 31.7494 17.7576C31.0215 17.5232 30.3422 17.2888 29.6466 17.0935C29.3231 16.9998 29.1856 16.8748 29.315 16.5466C29.3474 16.4607 29.3312 16.3591 29.3312 16.2341C28.7004 16.2341 28.0857 16.2498 27.471 16.2263C27.1718 16.2185 26.8725 16.1716 26.5895 16.0857C24.0904 15.2888 21.5913 14.4841 19.1731 13.7029C19.9819 13.7029 20.8877 13.7029 21.8501 13.7029C21.6964 12.4373 21.5509 11.2029 21.4053 9.98413C20.1517 10.1013 18.9871 10.2107 17.8144 10.3123C17.8144 11.4451 17.8144 12.5701 17.8144 13.7185C18.0489 13.7185 18.2592 13.7185 18.4776 13.7185C16.7711 13.9919 15.7035 14.9216 15.2425 16.6013C15.2263 16.4294 15.2101 16.3357 15.2021 16.2419C13.8595 16.2419 12.5493 16.2419 11.1582 16.2419C11.3038 17.5154 11.4575 18.7732 11.603 20.0466C11.7729 20.0232 11.8699 20.0076 11.967 19.9998C12.8 19.9138 13.625 19.8123 14.4661 19.7498C15.2182 19.6951 15.2182 19.7185 15.2182 18.9841C15.2182 18.6091 15.2182 18.2263 15.2182 17.8513C15.3234 18.0388 15.38 18.2263 15.4447 18.406C16.1079 20.3357 16.763 22.2732 17.4504 24.1951C17.693 24.8826 17.8548 25.5544 17.7982 26.281C17.782 26.5154 17.7982 26.7576 17.7982 27.0466C18.0004 26.906 18.146 26.8044 18.3077 26.6951C18.6636 27.7263 19.0032 28.7263 19.351 29.7341C19.2782 29.7498 19.2459 29.7576 19.2216 29.7654C18.6231 29.8435 18.0246 29.9216 17.4262 29.9998C16.8034 29.9998 16.1726 29.9998 15.5498 29.9998C15.4528 29.9841 15.3557 29.9607 15.2587 29.9451C14.7087 29.8748 14.1587 29.8279 13.6088 29.7263C9.71862 28.9841 6.54825 27.0779 4.15431 24.0232C1.58243 20.7498 0.595735 17.0388 1.1457 12.9685C1.59052 9.68726 3.05438 6.85132 5.46451 4.48413C7.77758 2.21069 10.5678 0.781006 13.8271 0.226318C14.3933 0.132568 14.9594 0.0700684 15.5256 -0.000244141C16.1726 -0.000244141 16.8196 -0.000244141 17.4666 -0.000244141C17.9842 0.0622559 18.5018 0.109131 19.0194 0.195068C21.8986 0.663818 24.4543 1.82007 26.6542 3.67944C29.404 6.01538 31.1186 8.92163 31.7575 12.4138C31.8626 12.9607 31.9192 13.5154 32.0001 14.0623ZM8.55399 16.2498C6.93646 16.2498 5.30275 16.2498 3.65287 16.2498C3.87124 18.2498 4.53443 20.0779 5.61817 21.7107C6.79897 21.3044 7.94742 20.9138 9.04734 20.531C8.88559 19.1091 8.72383 17.6873 8.55399 16.2498ZM5.61817 8.28882C4.5506 9.92944 3.86315 11.7263 3.65287 13.7029C5.32702 13.7029 6.95264 13.7029 8.55399 13.7029C8.72383 12.2732 8.88559 10.8669 9.04734 9.46851C7.93933 9.08569 6.79088 8.68726 5.61817 8.28882ZM24.4382 13.7029C26.0476 13.7029 27.6813 13.7029 29.3474 13.7029C29.129 11.7185 28.4496 9.92163 27.3821 8.28882C26.2013 8.69507 25.0528 9.09351 23.9529 9.46851C24.1147 10.8826 24.2764 12.281 24.4382 13.7029ZM15.194 10.3201C14.0051 10.2107 12.8243 10.1013 11.5869 9.98413C11.4413 11.2185 11.2957 12.4529 11.1501 13.7029C12.5412 13.7029 13.8676 13.7029 15.194 13.7029C15.194 12.5544 15.194 11.4373 15.194 10.3201ZM15.194 7.81226C15.194 6.17163 15.194 4.58569 15.194 2.92944C13.6169 4.14819 12.9052 5.78101 12.2824 7.54663C13.2772 7.64038 14.2154 7.72632 15.194 7.81226ZM17.8144 2.93726C17.8144 4.59351 17.8144 6.17944 17.8144 7.81226C18.793 7.72632 19.7311 7.64038 20.7259 7.54663C20.0789 5.78101 19.3753 4.14038 17.8144 2.93726ZM15.2021 22.1873C14.2234 22.2732 13.2772 22.3669 12.2743 22.4529C12.9213 24.2107 13.625 25.8591 15.2021 27.0701C15.2021 25.406 15.2021 23.8279 15.2021 22.1873ZM25.716 6.25757C24.5271 5.10913 23.2654 4.24976 21.8905 3.65601C22.3273 4.71069 22.7721 5.78101 23.225 6.85132C23.2493 6.90601 23.3787 6.97632 23.4434 6.96069C24.1794 6.74194 24.9072 6.51538 25.716 6.25757ZM9.662 7.01538C10.1715 5.85132 10.6568 4.74976 11.142 3.64038C9.7267 4.26538 8.45694 5.11694 7.29232 6.25757C8.14152 6.53101 8.91794 6.78101 9.662 7.01538ZM7.28423 23.7419C8.46503 24.8826 9.7267 25.7341 11.134 26.3513C10.6487 25.2498 10.1634 24.1404 9.65392 22.9841C8.91794 23.2185 8.14152 23.4685 7.28423 23.7419Z" fill="white"></path><path d="M22.6102 29.9996C22.1978 29.8355 21.9794 29.5308 21.8419 29.1246C20.5317 25.2808 19.1972 21.4371 17.8789 17.5933C17.6525 16.9293 17.9679 16.3511 18.623 16.2652C18.7928 16.2418 18.9869 16.273 19.1568 16.3277C23.1844 17.6246 27.2121 18.9214 31.2478 20.2183C31.628 20.3355 31.8544 20.5855 32.0081 20.9136C32.0081 21.0699 32.0081 21.2261 32.0081 21.3824C31.8302 21.773 31.5066 21.9839 31.1023 22.1324C29.4443 22.7339 27.7944 23.3511 26.1445 23.9761C25.999 24.0308 25.8453 24.1793 25.7887 24.3199C25.1417 25.9058 24.5108 27.4996 23.8881 29.0933C23.7344 29.4918 23.5241 29.8277 23.1036 29.9996C22.9337 29.9996 22.772 29.9996 22.6102 29.9996Z" fill="white"></path></svg>