<svg xmlns="http://www.w3.org/2000/svg" width="90" height="90" viewBox="0 0 90 90" fill="none"><circle cx="45" cy="45" r="45" fill="url(#paint0_linear_90_42)"></circle><path d="M45.4275 63.0001C44.4718 62.7009 43.9216 62.0833 43.7864 61.07C43.661 60.0663 43.4872 59.0723 43.3328 58.0783C43.2652 57.6537 43.1976 57.2291 43.13 56.7948C42.8018 56.8141 42.5026 56.8527 42.2034 56.8334C41.4697 56.7852 40.8423 56.4764 40.3114 55.9552C38.2263 53.8707 36.1413 51.7862 34.0562 49.6921C33.3612 48.9972 33.0426 48.1576 33.1971 47.1636C33.2067 47.0864 33.2067 46.9996 33.2164 46.8741C32.6276 46.7776 32.0484 46.6908 31.4692 46.5943C30.5425 46.4495 29.6158 46.3144 28.6891 46.16C27.2508 45.9187 26.5269 44.3746 27.3088 43.149C28.5347 41.2382 29.7992 39.3467 31.0734 37.4552C31.5657 36.7314 32.2801 36.3165 33.1585 36.2489C34.8574 36.1042 36.566 35.9691 38.2746 35.8533C38.5449 35.834 38.709 35.7278 38.8731 35.5348C40.9678 33.0836 43.3521 30.9605 46.1514 29.3392C48.7288 27.853 51.5185 26.9458 54.453 26.444C56.7311 26.058 59.0189 25.8939 61.326 26.0676C62.7257 26.1738 63.7778 27.2161 63.9419 28.6154C63.9516 28.7119 63.9806 28.7987 63.9999 28.8952C63.9999 29.8796 63.9999 30.8736 63.9999 31.8579C63.9033 32.7554 63.8261 33.6529 63.7103 34.5408C63.3048 37.5903 62.4554 40.5144 60.9978 43.2359C59.3664 46.2854 57.1173 48.8428 54.5013 51.0914C54.2889 51.2747 54.1634 51.4485 54.1441 51.7476C54.0283 53.4075 53.8835 55.0577 53.758 56.7176C53.6808 57.7599 53.1788 58.5223 52.3101 59.082C51.2675 59.7575 50.254 60.462 49.2018 61.1279C48.1882 61.7745 47.165 62.3825 46.1418 63.0001C45.9101 63.0001 45.6688 63.0001 45.4275 63.0001ZM59.1251 28.1908C59.1251 28.1811 59.1251 28.1618 59.1251 28.1522C58.3528 28.2101 57.5903 28.2487 56.818 28.3162C53.8352 28.5961 50.949 29.2909 48.2848 30.6709C43.3907 33.209 39.7804 37.0499 37.2031 41.8945C37.0873 42.1164 37.1838 42.2129 37.3189 42.348C40.7651 45.7933 44.2208 49.2385 47.6573 52.6934C47.8407 52.8767 47.9759 52.8864 48.1786 52.7609C49.0473 52.2398 49.9451 51.7766 50.7752 51.2072C54.2214 48.8428 57.069 45.9187 59.0768 42.2226C60.4089 39.7617 61.1619 37.1175 61.548 34.3574C61.7893 32.6493 61.8762 30.9315 61.8086 29.2041C61.7797 28.4031 61.5963 28.2197 60.7854 28.1908C60.2352 28.1811 59.6753 28.1908 59.1251 28.1908ZM45.6784 53.9093C42.4543 50.6861 39.3075 47.54 36.1606 44.3843C36.1413 44.4325 36.1027 44.5194 36.0737 44.6063C35.8903 45.2432 35.6779 45.8705 35.5428 46.517C35.2242 48.0225 35.147 47.7041 36.1799 48.7367C38.0333 50.5992 39.8866 52.4521 41.7593 54.2954C41.9427 54.4691 42.2516 54.6814 42.464 54.6428C43.5355 54.4401 44.607 54.1602 45.6784 53.9093ZM45.9391 60.6743C46.0163 60.6357 46.0549 60.6261 46.0839 60.6068C47.8021 59.468 49.5203 58.3486 51.2289 57.1905C51.422 57.065 51.5668 56.7755 51.5957 56.5439C51.6923 55.8394 51.7309 55.1349 51.7791 54.4208C51.8081 54.0058 51.8371 53.5909 51.866 53.1566C51.7888 53.1759 51.7598 53.1855 51.7309 53.2048C49.781 54.4787 47.7056 55.5017 45.4757 56.2061C45.3985 56.2351 45.302 56.3895 45.302 56.4764C45.3213 56.7948 45.3889 57.1229 45.4371 57.4414C45.6012 58.503 45.7653 59.5742 45.9391 60.6743ZM36.8652 38.179C36.7977 38.1597 36.7687 38.1501 36.7398 38.1501C35.649 38.2369 34.5582 38.3238 33.4674 38.401C33.1295 38.4203 32.9268 38.6036 32.7434 38.8739C31.6719 40.5048 30.6004 42.1261 29.5193 43.757C29.4614 43.8535 29.4035 43.95 29.3262 44.0755C30.7645 44.2974 32.1546 44.5097 33.5446 44.7317C33.8052 44.7703 33.8149 44.5966 33.8632 44.4422C34.423 42.6182 35.2242 40.9005 36.2088 39.2599C36.4115 38.9028 36.6336 38.5457 36.8652 38.179Z" fill="white"></path><path d="M27.8011 63.0001C27.7432 62.9615 27.6852 62.9229 27.6273 62.8939C26.9516 62.5369 26.7972 61.7359 27.3184 61.1665C27.5597 60.8963 27.83 60.655 28.081 60.3945C30.0695 58.4065 32.058 56.4088 34.0562 54.4305C34.7126 53.7742 35.6779 53.9769 35.9289 54.8165C36.0737 55.299 35.8806 55.6754 35.5428 56.0131C33.8342 57.7116 32.1353 59.4101 30.4363 61.1182C30.0406 61.5139 29.6448 61.9289 29.2297 62.3149C28.9594 62.5658 28.6602 62.7781 28.3803 63.0097C28.1872 63.0001 27.9941 63.0001 27.8011 63.0001Z" fill="white"></path><path d="M34.4521 63.0001C34.3845 62.9711 34.3266 62.9422 34.259 62.9229C33.4965 62.6334 33.2551 61.7359 33.8247 61.1568C35.0023 59.9505 36.1993 58.7635 37.3963 57.5765C37.821 57.1615 38.4871 57.1808 38.9021 57.5765C39.3269 57.9915 39.3558 58.6573 38.9214 59.1013C37.7534 60.2979 36.5661 61.4753 35.3691 62.6527C35.205 62.8167 34.9541 62.8843 34.7513 63.0001C34.6452 63.0001 34.5486 63.0001 34.4521 63.0001Z" fill="white"></path><path d="M32.8015 51.9116C32.6567 52.1625 32.5602 52.4617 32.3671 52.6643C31.228 53.832 30.0697 54.9901 28.9017 56.1385C28.4287 56.6114 27.7626 56.6114 27.3282 56.1578C26.9035 55.7235 26.9228 55.077 27.3765 54.6041C28.5252 53.446 29.6836 52.288 30.8419 51.1395C31.1894 50.7921 31.6045 50.6956 32.0679 50.879C32.4829 51.043 32.7243 51.4291 32.8015 51.9116Z" fill="white"></path><path d="M46.9336 37.6772C46.924 34.6855 49.3372 32.2536 52.3297 32.2439C55.3124 32.2343 57.7547 34.6662 57.7643 37.6482C57.774 40.6399 55.3511 43.0621 52.3586 43.0718C49.3565 43.0718 46.9433 40.6785 46.9336 37.6772ZM49.1056 37.6675C49.1056 39.4625 50.5438 40.9004 52.3393 40.9004C54.1444 40.9101 55.6117 39.4432 55.602 37.6482C55.5924 35.8725 54.1444 34.4153 52.3586 34.4056C50.5632 34.396 49.1056 35.8629 49.1056 37.6675Z" fill="white"></path><defs><linearGradient id="paint0_linear_90_42" x1="5.5" y1="84.5" x2="78.5" y2="5.5" gradientUnits="userSpaceOnUse"><stop stop-color="#5D40FA"></stop><stop offset="1" stop-color="#4E95ED"></stop></linearGradient></defs></svg>