<svg xmlns="http://www.w3.org/2000/svg" width="31" height="30" viewBox="0 0 31 30" fill="none"><path d="M1.00026 23.9585C1.00026 23.7671 1.00026 23.5827 1.00026 23.3913C1.01445 23.3558 1.03573 23.3275 1.04282 23.292C1.3053 22.3703 1.93666 21.8243 2.8163 21.7605C3.60373 21.7038 4.455 22.2001 4.75295 23.0439C4.78132 23.1148 4.91611 23.1928 5.00124 23.1928C5.68935 23.2069 6.37746 23.1928 7.06557 23.2069C7.25711 23.2069 7.32805 23.1502 7.34933 22.9588C7.42027 22.3206 7.6189 21.725 7.93103 21.172C9.77545 17.8607 14.1595 17.4069 16.6495 20.2644C16.8623 20.5126 17.0396 20.782 17.2454 21.0514C17.8413 20.6047 18.4159 20.1651 19.0047 19.7397C19.1536 19.6333 19.1749 19.5341 19.1253 19.3639C18.4797 17.1588 19.2813 14.826 21.1896 13.5426C21.7287 13.181 22.3459 12.9399 22.956 12.6351C22.8425 12.4294 22.7077 12.16 22.5658 11.9047C22.0125 10.9333 21.4592 9.96195 20.9058 8.99055C20.8633 8.91256 20.842 8.81329 20.8349 8.72111C20.8207 8.55803 20.8349 8.40204 20.8278 8.23896C20.7923 7.48028 20.2603 6.84214 19.5509 6.81378C18.4655 6.77124 17.3801 6.77833 16.2948 6.81378C15.6421 6.83505 15.0959 7.41647 15.0462 8.07588C15.0108 8.52967 15.025 8.98346 15.0179 9.43016C15.0179 9.52234 15.0037 9.6216 14.9966 9.74923C14.3581 9.33089 13.8403 8.85583 13.4927 8.24605C13.1522 7.65045 12.9039 7.00522 12.6059 6.37417C11.9462 6.93432 11.251 7.52992 10.5558 8.12552C10.5132 8.16097 10.4565 8.18224 10.4139 8.2106C10.4636 8.29569 10.4778 8.32405 10.499 8.35241C11.1446 9.18909 11.5135 10.1321 11.5986 11.1815C11.6057 11.295 11.6979 11.4226 11.7901 11.5006C12.5563 12.1104 13.3366 12.706 14.1098 13.3157C14.2517 13.4292 14.351 13.4505 14.5284 13.3441C15.7202 12.6209 17.2808 13.4079 17.4156 14.7906C17.4937 15.5847 17.1035 16.315 16.4012 16.6979C15.7344 17.0595 14.8902 16.9815 14.3014 16.5064C13.67 15.9959 13.4217 15.2302 13.6558 14.4502C13.7055 14.2871 13.6842 14.195 13.5423 14.0957C13.2018 13.8475 12.8684 13.5781 12.535 13.3157C12.2087 13.0605 11.8894 12.8123 11.5418 12.5429C11.2297 14.039 10.4848 15.1947 9.20794 16.0597C9.20794 15.4996 9.22213 14.9962 9.20794 14.4998C9.18666 13.7553 8.64752 13.1314 7.90975 13.103C6.84566 13.0605 5.77448 13.0605 4.71038 13.103C3.9868 13.1314 3.44766 13.7483 3.41929 14.4786C3.4051 14.9182 3.4122 15.3649 3.4122 15.8116C3.4122 15.8825 3.39801 15.9463 3.39091 16.0527C2.41195 15.3862 1.71675 14.5353 1.33367 13.4575C1.17051 12.9967 1.09957 12.5145 0.993164 12.0395C0.993164 11.7204 0.993164 11.4013 0.993164 11.0751C1.00735 11.0326 1.03573 10.9901 1.04282 10.9475C1.42589 8.46586 3.16391 6.7216 5.6255 6.3529C5.80285 6.32454 5.83832 6.25363 5.83832 6.09764C5.83123 5.43114 5.83123 4.75754 5.83832 4.09104C5.83832 3.8996 5.79576 3.80033 5.59713 3.72234C4.28475 3.19055 3.97262 1.4463 5.02252 0.531628C5.63969 -0.0143375 6.34908 -0.149056 7.10104 0.191286C7.86009 0.531628 8.25735 1.16268 8.24316 1.99226C8.22188 2.83603 7.77496 3.42454 6.98754 3.74361C6.83856 3.80033 6.78891 3.87833 6.796 4.03432C6.80309 4.72209 6.80309 5.40987 6.796 6.09764C6.796 6.28199 6.86694 6.33163 7.03719 6.35999C7.40608 6.43089 7.78915 6.48762 8.12966 6.63652C8.69718 6.88468 9.22922 7.19666 9.81092 7.50155C10.5629 6.85632 11.3574 6.15437 12.1732 5.49495C12.4853 5.24679 12.6201 4.97735 12.6698 4.58028C13.067 1.45339 16.2522 -0.66666 19.2742 0.205467C21.3315 0.801066 22.6155 2.16953 23.105 4.26121C23.1475 4.44556 23.2255 4.54483 23.4029 4.62992C24.467 5.13334 25.5311 5.64385 26.5881 6.16855C26.7654 6.25363 26.8789 6.24654 27.0492 6.1331C27.8934 5.56586 29.0213 5.78566 29.6385 6.62234C30.2415 7.43774 30.0854 8.59349 29.2909 9.23872C28.5034 9.88395 27.3329 9.79887 26.659 9.04728C26.1483 8.48004 26.0418 7.82063 26.2618 7.07613C25.2544 6.59398 24.2542 6.10473 23.2255 5.61549C23.1404 6.77833 22.7644 7.77099 22.0692 8.65021C22.0196 8.71402 22.0125 8.84874 22.048 8.91256C22.6722 10.0896 23.2965 11.2595 23.9349 12.4223C23.9775 12.5003 24.0981 12.5641 24.1903 12.5712C24.5166 12.6138 24.8501 12.6067 25.1764 12.6705C29 13.3937 30.7806 17.7827 28.5247 20.9734C28.1558 21.4981 27.7018 21.9448 27.113 22.3135C27.113 21.8243 27.113 21.3705 27.113 20.9238C27.1059 20.0162 26.581 19.3994 25.673 19.3568C24.694 19.3072 23.7079 19.3072 22.729 19.3568C21.8351 19.4064 21.3244 20.0091 21.3031 20.9096C21.296 21.2996 21.3031 21.6825 21.3031 22.0725C21.3031 22.1434 21.2889 22.2072 21.2747 22.3064C20.544 21.8385 20.0262 21.2145 19.5793 20.5196C18.9621 20.9805 18.3733 21.4201 17.7916 21.8739C17.7207 21.9306 17.6852 22.0725 17.6994 22.1717C17.7632 22.6681 17.8625 23.1573 17.9193 23.6465C17.9406 23.8238 17.9902 23.9089 18.1463 23.9798C19.1962 24.4761 20.239 24.9795 21.2747 25.4901C21.445 25.5751 21.5656 25.5681 21.7287 25.4617C22.4523 24.9654 23.41 25.0575 24.0768 25.6673C24.7011 26.2346 24.8643 27.1918 24.4741 27.9505C24.169 28.539 23.6583 28.8439 23.0411 29.0069C22.8496 29.0069 22.6651 29.0069 22.4736 29.0069C22.048 28.8793 21.6365 28.7233 21.3315 28.3688C20.8349 27.7945 20.7143 27.1421 20.9413 26.4047C19.8843 25.8942 18.8486 25.3908 17.7845 24.8803C17.4298 26.2346 16.7133 27.3194 15.5003 28.1277C15.5003 27.6456 15.5003 27.213 15.5003 26.7876C15.5003 25.7524 14.9115 25.1497 13.8757 25.1426C13.0245 25.1355 12.1803 25.1426 11.329 25.1426C11.173 25.1426 11.0027 25.1497 10.8537 25.1852C10.1443 25.3553 9.7187 25.9013 9.70451 26.6671C9.69742 27.135 9.70451 27.603 9.70451 28.1135C9.5981 28.0497 9.53426 28.0143 9.47751 27.9717C8.28573 27.0854 7.57633 25.9013 7.35642 24.4336C7.32805 24.228 7.25711 24.1712 7.05848 24.1712C6.39874 24.1854 5.73901 24.1783 5.07927 24.1712C4.88773 24.1712 4.78842 24.2138 4.71038 24.4123C4.27765 25.4901 3.02203 25.9297 2.0005 25.3695C1.44008 25.0575 1.15632 24.5541 1.00026 23.9585ZM6.30652 12.082C7.36352 12.0891 8.24316 11.224 8.25026 10.1676C8.25735 9.11818 7.3848 8.23187 6.3278 8.22478C5.2779 8.21769 4.39825 9.08982 4.39116 10.1463C4.39116 11.217 5.24243 12.0749 6.30652 12.082ZM10.6764 22.2284C10.6693 23.2849 11.5206 24.15 12.5847 24.1712C13.6346 24.1925 14.5355 23.292 14.5355 22.2355C14.5284 21.1861 13.6558 20.314 12.6059 20.314C11.5489 20.3069 10.6835 21.172 10.6764 22.2284ZM24.2187 18.3641C25.2757 18.3571 26.1483 17.4849 26.1412 16.4355C26.1341 15.3862 25.2615 14.514 24.2116 14.5069C23.1475 14.5069 22.2608 15.4003 22.2821 16.4568C22.2962 17.5204 23.1546 18.3712 24.2187 18.3641ZM17.9264 5.79984C18.9834 5.79984 19.8559 4.92772 19.8559 3.87833C19.8559 2.83603 18.9834 1.95681 17.9335 1.94263C16.8765 1.93554 15.9897 2.82894 15.9968 3.88542C16.0039 4.94899 16.8694 5.80693 17.9264 5.79984Z" fill="white"></path><path d="M12.0455 28.9998C11.6553 28.9005 11.2652 28.8013 10.875 28.702C10.726 28.6665 10.6622 28.5885 10.6693 28.4255C10.6764 27.844 10.6693 27.2555 10.6764 26.6741C10.6835 26.3054 10.8679 26.114 11.2368 26.1069C12.1519 26.0998 13.067 26.0998 13.9822 26.1069C14.344 26.1069 14.5355 26.3125 14.5355 26.6812C14.5426 27.2626 14.5355 27.8511 14.5426 28.4326C14.5426 28.5815 14.4929 28.6594 14.351 28.6878C13.9396 28.7871 13.5352 28.8934 13.1238 28.9927C12.7691 28.9998 12.4073 28.9998 12.0455 28.9998Z" fill="white"></path><path d="M24.2329 20.2998C24.6443 20.2998 25.0629 20.2927 25.4743 20.2998C25.9567 20.3069 26.1411 20.4912 26.1482 20.9663C26.1482 21.5123 26.1411 22.0582 26.1553 22.6042C26.1553 22.7744 26.0986 22.8453 25.9354 22.902C24.7862 23.2849 23.6441 23.2849 22.4949 22.9091C22.3175 22.8524 22.2608 22.7673 22.2679 22.59C22.282 22.0511 22.2679 21.5193 22.2749 20.9805C22.2749 20.4841 22.4523 20.3069 22.9631 20.2998C23.3816 20.2927 23.8072 20.2998 24.2329 20.2998Z" fill="white"></path><path d="M6.3278 14.0249C6.75343 14.0249 7.17907 14.0178 7.6047 14.0249C8.0729 14.0319 8.25735 14.2163 8.25735 14.6772C8.25735 15.2231 8.25025 15.7691 8.25735 16.3222C8.25735 16.4852 8.22188 16.5703 8.05162 16.6271C6.9024 17.017 5.76028 17.017 4.60397 16.6341C4.4479 16.5845 4.37696 16.5136 4.38406 16.3363C4.39825 15.7691 4.38406 15.2019 4.39115 14.6346C4.39115 14.2163 4.5685 14.0319 4.99414 14.0249C5.44105 14.0107 5.88088 14.0249 6.3278 14.0249Z" fill="white"></path><path d="M17.9264 7.74265C18.3591 7.74265 18.7918 7.73556 19.2246 7.74265C19.6715 7.74974 19.8488 7.94119 19.8559 8.38789C19.8559 8.94094 19.8488 9.50109 19.863 10.0541C19.863 10.2101 19.8134 10.281 19.6644 10.3378C18.5081 10.7348 17.3589 10.7348 16.2026 10.3449C16.0394 10.2881 15.9897 10.203 15.9897 10.04C15.9968 9.48691 15.9897 8.92676 15.9968 8.3737C16.0039 7.92701 16.1742 7.74974 16.6353 7.74265C17.0609 7.73556 17.4937 7.74265 17.9264 7.74265Z" fill="white"></path><path d="M5.35592 10.125C5.37011 9.6074 5.81703 9.17488 6.33489 9.18906C6.86693 9.20324 7.29966 9.65703 7.27838 10.1888C7.2571 10.7277 6.81018 11.1318 6.26395 11.1106C5.74609 11.0964 5.34173 10.6639 5.35592 10.125Z" fill="white"></path><path d="M11.6412 22.2285C11.6412 21.6968 12.0597 21.2784 12.5918 21.2713C13.1238 21.2642 13.5707 21.7038 13.5707 22.2356C13.5707 22.7532 13.138 23.1858 12.613 23.1928C12.081 23.207 11.6412 22.7745 11.6412 22.2285Z" fill="white"></path><path d="M24.1974 17.3999C23.6654 17.3999 23.2468 16.9815 23.2468 16.4497C23.2468 15.9109 23.6796 15.4713 24.2116 15.4784C24.7366 15.4854 25.1622 15.918 25.1693 16.4356C25.1764 16.9674 24.7366 17.3999 24.1974 17.3999Z" fill="white"></path><path d="M17.9335 4.83566C17.3872 4.84275 16.9616 4.41732 16.9616 3.87845C16.9616 3.35375 17.3872 2.92123 17.9122 2.91414C18.4371 2.90705 18.8912 3.36084 18.8912 3.88554C18.8912 4.40314 18.4584 4.82857 17.9335 4.83566Z" fill="white"></path></svg>