<svg width="46" height="44" viewBox="0 0 46 44" fill="none" xmlns="http://www.w3.org/2000/svg">
<path d="M45.6067 36.5717C45.4996 36.9286 45.4164 37.2974 45.2617 37.6306C44.5599 39.1654 43.3466 40.0102 41.6694 40.034C39.9922 40.0697 38.7551 39.2487 37.9938 37.7496C37.8392 37.4521 37.6964 37.3569 37.3634 37.3569C35.0319 37.3688 32.7005 37.3688 30.369 37.3569C30.0835 37.3569 29.8813 37.4402 29.6791 37.6544C27.8948 39.5343 25.9321 41.2119 23.8148 42.7111C23.0416 43.2584 22.5658 43.2584 21.7926 42.7111C19.6872 41.2119 17.7126 39.5462 15.9283 37.6544C15.7261 37.4402 15.5239 37.3569 15.2384 37.3569C12.907 37.3688 10.5755 37.3688 8.2441 37.3569C7.92293 37.3569 7.7564 37.4402 7.61365 37.7377C6.80479 39.4629 4.93725 40.3553 3.1054 39.9388C1.30924 39.5462 0.000772946 37.8923 0.0126681 36.0362C0.0126681 34.1801 1.33303 32.5263 3.1173 32.1217C4.97294 31.7053 6.82858 32.6096 7.62555 34.3229C7.7564 34.6085 7.89914 34.7036 8.20841 34.7036C9.76667 34.6917 11.3249 34.6917 12.8832 34.6917C13.014 34.6917 13.133 34.6798 13.3233 34.6679C13.2282 34.5133 13.1568 34.4062 13.0854 34.2991C11.5985 32.3359 10.3495 30.2418 9.31466 28.005C9.18381 27.7194 9.04107 27.6123 8.7199 27.6242C7.32817 27.648 5.92455 27.6361 4.53282 27.6361C3.65258 27.6361 3.02214 27.065 3.03403 26.2797C3.04593 25.5064 3.65258 24.9709 4.52092 24.959C5.67475 24.959 6.82858 24.959 7.9943 24.959C7.66123 23.7811 7.34007 22.6389 6.99511 21.5086C6.95942 21.4134 6.72152 21.3182 6.59067 21.3063C4.86588 21.2944 3.15298 21.3063 1.42819 21.2944C0.381417 21.2825 -0.28471 20.3307 0.119724 19.4383C0.357627 18.9029 0.797746 18.6292 1.3925 18.6292C2.89129 18.6292 4.39007 18.6292 5.88886 18.6292C6.05539 18.6292 6.21003 18.6292 6.42414 18.6292C6.35277 18.07 6.25761 17.5465 6.24571 17.023C6.17434 15.4048 6.10297 13.7867 6.09108 12.1685C6.07918 11.1334 6.40035 10.8002 7.37575 10.4671C8.92212 9.91975 10.4685 9.36054 12.0149 8.83702C12.3122 8.74184 12.3836 8.58716 12.3836 8.28971C12.3598 7.33785 12.3717 6.3979 12.3717 5.38655C11.8959 5.38655 11.4558 5.38655 11.0157 5.38655C10.0759 5.38655 9.14813 5.39845 8.20841 5.37466C7.89914 5.36276 7.7445 5.46984 7.61365 5.7554C6.80479 7.46873 4.93725 8.37299 3.14109 7.95656C1.29734 7.52822 0.000772946 5.91007 0.000772946 4.03016C0.0126681 2.15025 1.30924 0.544001 3.16488 0.115667C4.94915 -0.288871 6.81668 0.603491 7.60176 2.29303C7.7564 2.61428 7.92293 2.70947 8.26789 2.70947C10.0046 2.68567 11.7413 2.69757 13.478 2.69757C14.5485 2.69757 15.0481 3.20919 15.0481 4.28002C15.0481 5.32706 15.0481 6.386 15.0481 7.50443C15.5477 7.25457 15.9878 7.0523 16.416 6.82623C18.0576 5.96956 19.6515 5.01771 21.0551 3.7803C21.3049 3.56613 21.531 3.32817 21.757 3.09021C22.3993 2.38822 23.1844 2.38822 23.8386 3.07831C25.718 5.04151 28.0852 6.26702 30.5594 7.50443C30.5594 6.75484 30.5594 6.07665 30.5594 5.39845C30.5594 4.97012 30.5594 4.52989 30.5594 4.10155C30.5712 3.20919 31.1065 2.67377 32.0225 2.67377C33.8186 2.66187 35.6148 2.67377 37.4109 2.67377C37.6726 2.67377 37.8273 2.62618 37.9581 2.35252C38.7432 0.674881 40.3253 -0.181788 42.169 0.0323794C43.7867 0.22275 45.1547 1.50775 45.5234 3.22109C45.5353 3.29248 45.571 3.35197 45.6067 3.42336C45.6067 3.816 45.6067 4.19674 45.6067 4.58938C45.5829 4.62507 45.5472 4.66077 45.5353 4.69646C45.3331 6.13614 44.096 7.71859 42.1571 7.96846C40.2896 8.20642 38.8027 7.34975 37.9105 5.61262C37.8392 5.48174 37.6013 5.36276 37.4347 5.35086C36.1976 5.32706 34.9724 5.33896 33.7354 5.33896C33.5807 5.33896 33.4142 5.33896 33.212 5.33896C33.212 6.35031 33.2239 7.31406 33.2001 8.27781C33.1882 8.56336 33.2952 8.68235 33.5569 8.77753C35.1271 9.31295 36.6853 9.88406 38.2555 10.4195C39.1833 10.7407 39.5164 11.0858 39.5045 12.0614C39.4926 13.6796 39.4212 15.2977 39.3617 16.9159C39.338 17.4513 39.2428 17.9986 39.1714 18.5697C40.7535 18.5697 42.2998 18.6054 43.8343 18.5578C44.6551 18.534 45.2379 18.7958 45.571 19.5573C45.571 19.7714 45.571 19.9737 45.571 20.1879C45.2855 20.985 44.7027 21.2706 43.8819 21.2587C42.2642 21.2349 40.6464 21.2587 39.0287 21.2468C38.6956 21.2468 38.5886 21.3539 38.4934 21.6632C38.2436 22.627 37.9343 23.567 37.6488 24.5188C37.6132 24.6378 37.5894 24.7568 37.5537 24.9114C38.7313 24.9114 39.8613 24.9114 40.9914 24.9114C41.1698 24.9114 41.3482 24.9114 41.5148 24.959C42.1452 25.1137 42.5853 25.7324 42.5259 26.3511C42.4664 27.0412 41.8954 27.5766 41.1817 27.5885C39.7424 27.6004 38.3031 27.6004 36.8638 27.5885C36.5545 27.5885 36.3999 27.6718 36.269 27.9574C35.246 30.1942 33.9852 32.2883 32.5102 34.2515C32.4269 34.3586 32.3555 34.4776 32.2366 34.6441C33.9733 34.6441 35.6148 34.6322 37.2682 34.656C37.637 34.656 37.8273 34.5609 38.0057 34.2158C38.7789 32.7047 40.0517 31.9195 41.7527 31.9909C43.418 32.0622 44.5837 32.9308 45.2736 34.4419C45.4164 34.7631 45.4877 35.1201 45.5948 35.4532C45.6067 35.8578 45.6067 36.2147 45.6067 36.5717ZM22.8632 5.92197C21.6737 6.71915 20.5556 7.55202 19.366 8.26591C16.1425 10.1934 12.6691 11.5498 9.11244 12.7158C8.80317 12.8229 8.70801 12.9538 8.70801 13.275C8.69611 15.6785 8.9578 18.0462 9.50498 20.3901C11.1108 27.3625 14.6794 33.1688 20.0084 37.8923C20.9005 38.6895 21.8521 39.4153 22.7799 40.1768C25.9559 37.8448 28.6799 35.1677 30.9043 32.0028C34.8059 26.4344 36.8757 20.2712 36.9232 13.4416C36.9232 12.9657 36.7567 12.7991 36.3285 12.6563C31.511 11.0382 26.8362 9.14637 22.8632 5.92197ZM5.34168 36.0481C5.35358 35.3223 4.75882 34.7155 4.03322 34.7036C3.30762 34.6917 2.68907 35.2866 2.67718 36.0005C2.65339 36.7382 3.27193 37.3688 4.00943 37.3688C4.73503 37.3807 5.34168 36.7739 5.34168 36.0481ZM41.5861 37.3807C42.2998 37.3807 42.9184 36.7858 42.9303 36.06C42.9422 35.3342 42.3474 34.7155 41.6218 34.7036C40.8843 34.6917 40.2539 35.2985 40.2539 36.0362C40.2658 36.762 40.8724 37.3688 41.5861 37.3807ZM5.34168 4.06586C5.35358 3.34007 4.77072 2.72137 4.03322 2.70947C3.29572 2.69757 2.68907 3.28058 2.66528 4.00637C2.65339 4.73215 3.23625 5.35086 3.97375 5.36276C4.71124 5.38655 5.32979 4.79165 5.34168 4.06586ZM42.9303 4.04206C42.9303 3.31627 42.3355 2.70947 41.598 2.70947C40.8605 2.70947 40.2658 3.30438 40.2658 4.04206C40.2658 4.76785 40.8605 5.37466 41.598 5.37466C42.3236 5.37466 42.9303 4.76785 42.9303 4.04206Z" fill="white"/>
<path d="M22.8032 30.5988C21.1974 30.5988 19.6034 30.5988 17.9976 30.5988C16.5226 30.5988 15.4758 29.6112 15.4639 28.1359C15.4401 25.5897 15.452 23.0434 15.4639 20.5091C15.4639 19.5692 15.8803 18.8315 16.7129 18.3913C17.0579 18.2128 17.1292 18.0105 17.1055 17.6655C17.0341 16.2496 17.4147 14.9646 18.2831 13.8343C19.7581 11.9068 22.3036 11.1215 24.6232 11.883C26.8833 12.6326 28.4653 14.7742 28.5248 17.1658C28.5248 17.2371 28.5367 17.3204 28.5248 17.3918C28.4415 17.9034 28.5962 18.2366 29.0957 18.5102C29.8332 18.9267 30.1544 19.6644 30.1544 20.4972C30.1663 23.0434 30.1782 25.5897 30.1544 28.124C30.1425 29.6231 29.0839 30.5869 27.5732 30.5988C25.9792 30.5988 24.3972 30.5988 22.8032 30.5988ZM18.1522 27.886C21.2688 27.886 24.3615 27.886 27.4542 27.886C27.4542 25.4826 27.4542 23.1267 27.4542 20.759C24.3377 20.759 21.2569 20.759 18.1522 20.759C18.1522 23.1386 18.1522 25.4945 18.1522 27.886ZM25.7889 18.0224C26.0387 16.7255 25.5391 15.4762 24.5042 14.7742C23.4812 14.0841 22.1371 14.0841 21.1141 14.7742C20.0673 15.4762 19.5796 16.7136 19.8294 18.0224C21.804 18.0224 23.8024 18.0224 25.7889 18.0224Z" fill="white"/>
<path d="M24.2068 24.3641C24.1236 24.733 24.0879 25.1256 23.9333 25.4587C23.6954 25.9585 23.0649 26.2202 22.5415 26.1012C21.9587 25.9704 21.5067 25.4825 21.471 24.8876C21.4472 24.5307 21.4472 24.1737 21.471 23.8168C21.4948 23.0672 22.0895 22.4961 22.8151 22.4961C23.5288 22.508 24.0998 23.0672 24.1355 23.793C24.1474 23.9715 24.1355 24.1499 24.1355 24.3284C24.1593 24.3522 24.1831 24.3641 24.2068 24.3641Z" fill="white"/>
</svg>
