<svg width="11" height="14" viewBox="0 0 11 14" fill="none" xmlns="http://www.w3.org/2000/svg">
<path d="M9.57749 13.9998C6.74106 13.9998 3.90099 13.9998 1.06457 13.9998C1.05728 13.9962 1.04999 13.9889 1.0427 13.9852C0.324475 13.7993 0 13.38 0 12.6436C0 9.77436 0 6.90512 0 4.03589C0 3.10621 0 2.17654 0 1.24686C0 0.823948 0.167706 0.470307 0.517702 0.23333C0.678117 0.123957 0.878635 0.0765615 1.06092 0C3.2484 0 5.43222 0 7.61605 0C7.72542 0.0874989 7.84209 0.167706 7.93688 0.262497C8.77906 1.10103 9.61394 1.94321 10.4561 2.78174C10.5874 2.91298 10.6457 3.05517 10.6457 3.24111C10.6421 5.11869 10.6421 6.99262 10.6421 8.8702C10.6421 10.1608 10.6421 11.4478 10.6421 12.7384C10.6421 13.2925 10.3249 13.7483 9.8254 13.9269C9.74519 13.9561 9.66134 13.9743 9.57749 13.9998ZM7.0947 0.820302C7.02543 0.820302 6.97804 0.820302 6.927 0.820302C5.05671 0.820302 3.19006 0.820302 1.31978 0.820302C0.966134 0.820302 0.816657 0.96978 0.816657 1.32707C0.816657 5.10775 0.816657 8.89208 0.816657 12.6728C0.816657 13.03 0.966134 13.1795 1.31978 13.1795C3.98485 13.1795 6.64992 13.1795 9.31499 13.1795C9.67228 13.1795 9.82175 13.03 9.82175 12.6764C9.82175 9.68686 9.82175 6.69731 9.82175 3.71141C9.82175 3.66402 9.82175 3.61298 9.82175 3.55464C9.75613 3.55464 9.70873 3.55464 9.65769 3.55464C8.95406 3.55464 8.24677 3.55464 7.54314 3.55464C7.25876 3.55464 7.0947 3.38694 7.09106 3.10621C7.09106 2.57028 7.09106 2.0307 7.09106 1.49477C7.0947 1.27238 7.0947 1.05728 7.0947 0.820302ZM7.9223 1.43279C7.9223 1.87029 7.9223 2.29685 7.9223 2.7234C8.35979 2.7234 8.78635 2.7234 9.20926 2.7234C8.7827 2.2932 8.35615 1.86664 7.9223 1.43279Z" fill="white"/>
<path d="M7.4733 8.73883C7.67746 8.74977 7.88527 8.73883 8.08579 8.77529C8.58526 8.86643 8.95713 9.30028 8.97901 9.79611C9.00453 10.3138 8.68734 10.7768 8.2061 10.9299C7.71756 11.0867 7.19257 10.8971 6.92278 10.4596C6.76237 10.2008 6.61289 9.93465 6.46706 9.66851C6.42696 9.59559 6.37956 9.57007 6.29571 9.57007C5.6504 9.57372 5.0051 9.57372 4.35979 9.57007C4.27229 9.57007 4.22125 9.59194 4.1775 9.67215C4.03896 9.92371 3.89678 10.1716 3.75095 10.4195C3.49939 10.8461 3.05825 11.0503 2.58065 10.9664C2.12857 10.8898 1.77493 10.5253 1.68379 10.0513C1.56347 9.41695 2.07024 8.77529 2.71554 8.75706C3.02544 8.74612 3.33533 8.74977 3.64157 8.75706C3.72907 8.75706 3.78011 8.73518 3.82386 8.65498C4.14105 8.09352 4.46552 7.53207 4.79 6.97427C4.83375 6.89771 4.83739 6.83937 4.79364 6.76281C4.64417 6.5149 4.49469 6.26334 4.35615 6.00449C4.13011 5.58887 4.15198 5.17689 4.42542 4.79409C4.69521 4.41857 5.07801 4.27639 5.52645 4.35659C5.97852 4.4368 6.26654 4.72482 6.39779 5.16596C6.48529 5.46127 6.43425 5.74199 6.28477 6.00813C6.14258 6.26334 5.99675 6.5149 5.84727 6.76646C5.80353 6.83937 5.80717 6.89406 5.84727 6.96333C6.1754 7.52478 6.49987 8.08988 6.8207 8.65498C6.8608 8.72789 6.91185 8.75341 6.99205 8.74977C7.15247 8.74248 7.30924 8.74612 7.46965 8.74612C7.4733 8.74248 7.4733 8.74248 7.4733 8.73883ZM5.93477 8.74248C5.72696 8.38154 5.53009 8.04248 5.32228 7.68155C5.11083 8.04978 4.91395 8.38883 4.71344 8.74248C5.12541 8.74248 5.51551 8.74248 5.93477 8.74248ZM5.32228 6.04095C5.41707 5.87324 5.50457 5.73105 5.58478 5.58522C5.65405 5.45033 5.61759 5.30814 5.50457 5.217C5.40249 5.13315 5.24207 5.13679 5.13999 5.22064C5.03062 5.31179 4.99416 5.45397 5.06708 5.58887C5.13999 5.73105 5.22385 5.86959 5.32228 6.04095ZM3.29158 9.57007C3.08741 9.57007 2.91242 9.56278 2.73742 9.57372C2.60982 9.58101 2.50409 9.69403 2.48586 9.82163C2.46763 9.94194 2.5369 10.0695 2.64627 10.1279C2.75929 10.1862 2.91971 10.1643 2.99262 10.0623C3.09835 9.90913 3.18585 9.74507 3.29158 9.57007ZM7.35299 9.57372C7.45507 9.74507 7.53892 9.90548 7.641 10.0513C7.71392 10.157 7.86704 10.1826 7.98371 10.1315C8.09308 10.0841 8.16964 9.95288 8.15506 9.83257C8.14048 9.70496 8.03839 9.58101 7.91444 9.57372C7.73944 9.56278 7.55715 9.57372 7.35299 9.57372Z" fill="white"/>
</svg>
