<svg xmlns="http://www.w3.org/2000/svg" width="90" height="90" viewBox="0 0 90 90" fill="none"><circle cx="45" cy="45" r="45" fill="url(#paint0_linear_2_697)"></circle><path d="M67 58.9453C67 59.3932 67 59.8411 67 60.2891C66.977 60.3786 66.9426 60.4682 66.9196 60.569C66.4145 63.2453 64.8189 64.9922 62.1556 65.776C61.8342 65.8768 61.4898 65.9328 61.1569 66C60.6977 66 60.2385 66 59.7793 66C59.7449 65.9776 59.699 65.9552 59.6645 65.944C58.0114 65.7424 56.6913 64.9698 55.5318 63.8276C52.4668 60.8042 49.3788 57.8143 46.3137 54.8021C46.1989 54.6901 46.1185 54.5221 46.0267 54.3878C45.9578 54.3878 45.889 54.3878 45.8316 54.3878C45.7397 54.5221 45.6594 54.6901 45.5446 54.8021C42.2958 57.9823 39.0471 61.1513 35.8098 64.3315C35.0407 65.093 34.2601 65.776 33.158 65.9888C32.8137 65.9888 32.4693 65.9888 32.1249 65.9888C31.0343 65.7872 30.2422 65.1266 29.4846 64.3763C27.7741 62.663 26.0292 60.9833 24.2958 59.2924C22.5623 57.6016 22.5738 55.5971 24.2958 53.9062C27.7052 50.5693 31.1261 47.2323 34.5356 43.8953C34.6389 43.7945 34.7193 43.6938 34.8341 43.5818C34.7078 43.4474 34.6045 43.3354 34.4897 43.2346C32.2167 41.0174 29.9552 38.8003 27.6823 36.5831C26.3277 35.2841 25.4093 33.7612 24.9501 31.9583C24.3646 29.6292 23.7562 27.3 23.1478 24.9708C22.8723 23.8846 22.9986 23.5487 23.9514 23C24.181 23 24.4106 23 24.6402 23C24.755 23.0448 24.8697 23.1008 24.9845 23.1344C27.0853 23.6495 29.1861 24.2206 31.3098 24.6797C33.7091 25.1948 35.718 26.2922 37.417 28.0391C39.4833 30.1555 41.6415 32.1823 43.7537 34.2539C43.8571 34.3547 43.9719 34.4555 44.1441 34.601C44.2474 34.4667 44.3162 34.3547 44.4081 34.2651C47.6913 31.0625 50.9744 27.8599 54.2461 24.6349C54.9923 23.8846 55.7729 23.224 56.8635 23C57.2079 23 57.5523 23 57.8967 23C58.9872 23.2016 59.7793 23.8622 60.537 24.6125C62.1097 26.1914 63.7168 27.7591 65.324 29.2932C66.1046 30.0323 66.7934 30.8161 67 31.9023C67 32.2383 67 32.5742 67 32.9102C66.7704 33.9852 66.0702 34.7578 65.301 35.5081C62.0293 38.6771 58.7806 41.8685 55.5204 45.0487C55.4056 45.1495 55.2563 45.2167 55.1301 45.3062C55.1301 45.3734 55.1301 45.4406 55.1301 45.4966C55.2793 45.5862 55.44 45.6646 55.5548 45.7766C58.7117 48.8448 61.8456 51.9242 65.0025 55.0036C65.875 55.8547 66.4834 56.8401 66.7934 58.0047C66.8622 58.3182 66.9311 58.6318 67 58.9453ZM49.6658 47.1203C49.0114 46.4932 48.3571 45.8661 47.7142 45.2279C47.1747 44.6904 47.1632 43.9177 47.6683 43.425C48.1734 42.9211 48.9655 42.9211 49.5165 43.4362C49.9872 43.8729 50.4349 44.3208 50.8826 44.7687C51.0892 44.9703 51.2614 45.2055 51.4107 45.3734C52.1454 44.6568 52.7882 44.0297 53.4426 43.3802C52.2028 42.1708 50.9285 40.9391 49.6887 39.6849C49.4706 39.4721 49.2984 39.1586 49.2295 38.8674C49.1033 38.3411 49.4247 37.826 49.9068 37.5909C50.4234 37.3445 50.963 37.4117 51.4107 37.8372C52.616 39.0018 53.7984 40.1664 55.0038 41.331C55.1071 41.4318 55.2219 41.5326 55.2793 41.5885C55.9566 40.9279 56.5995 40.3008 57.2768 39.6401C56.6913 39.069 56.0714 38.4755 55.4515 37.8708C54.8086 37.2437 54.7512 36.4823 55.3137 35.9448C55.8648 35.4185 56.6224 35.4633 57.2538 36.0792C57.8852 36.6951 58.5051 37.3109 59.0561 37.8484C59.7334 37.1878 60.3877 36.5495 61.088 35.8776C61.0076 35.8104 60.8814 35.732 60.7666 35.6201C59.5956 34.4891 58.4247 33.3469 57.2768 32.2047C56.565 31.4992 56.7602 30.4242 57.6556 30.0995C58.2296 29.8867 58.7117 30.0435 59.1365 30.4578C60.2959 31.6 61.4668 32.731 62.6263 33.8732C62.7296 33.974 62.8444 34.0747 63.0051 34.2203C63.3495 33.862 63.6709 33.526 64.0038 33.2013C64.5778 32.619 64.5893 32.1375 64.0038 31.5664C62.0982 29.7076 60.1926 27.8487 58.287 25.9898C57.6211 25.3404 57.162 25.3404 56.4961 25.9898C46.3481 35.9112 36.2001 45.8214 26.0522 55.7427C25.4093 56.3698 25.4093 56.8289 26.0522 57.456C27.9463 59.3036 29.8404 61.1625 31.7346 63.0102C31.8149 63.0885 31.8953 63.1669 31.9871 63.2341C32.3774 63.5365 32.8481 63.57 33.204 63.2565C33.6402 62.8758 34.0305 62.4503 34.4552 62.0247C34.3519 61.9128 34.2601 61.812 34.1568 61.7112C33.5943 61.1513 33.0088 60.6138 32.4578 60.0427C31.7805 59.3484 32.056 58.251 32.9629 57.9711C33.491 57.8031 33.9501 57.9487 34.3404 58.3294C34.9833 58.9677 35.6262 59.5948 36.2231 60.1883C36.9119 59.5164 37.5547 58.8781 38.2206 58.2286C36.9922 57.0417 35.7295 55.8099 34.4667 54.5669C33.8813 53.9958 33.8468 53.2232 34.3634 52.6969C34.9029 52.1706 35.6721 52.193 36.269 52.7753C37.1415 53.6263 38.0139 54.4773 38.8864 55.3284C39.2882 55.7203 39.6785 56.1346 40.0229 56.4818C40.7231 55.7987 41.3775 55.1604 42.0433 54.5109C41.4349 53.9286 40.8035 53.3016 40.1606 52.6857C39.8507 52.3833 39.6785 52.025 39.7244 51.5995C39.7818 51.0956 40.0573 50.7372 40.5394 50.5581C41.056 50.3677 41.5267 50.4797 41.917 50.8492C42.5828 51.4875 43.2486 52.1482 43.8685 52.7641C44.5458 52.1034 45.1887 51.4763 45.8545 50.8268C45.7856 50.7484 45.6938 50.6477 45.5905 50.5581C44.4425 49.4271 43.2716 48.3073 42.1351 47.1651C41.9285 46.9523 41.7333 46.6724 41.6644 46.3924C41.5037 45.8437 41.7907 45.3062 42.2844 45.0375C42.7895 44.7687 43.4094 44.8471 43.8571 45.2839C45.0509 46.4372 46.2333 47.6018 47.4157 48.7552C47.5191 48.856 47.6339 48.9568 47.7142 49.0352C48.3686 48.3969 48.9885 47.781 49.6658 47.1203ZM53.3507 47.2995C51.5255 49.0799 49.6772 50.8828 47.8979 52.6297C49.6658 54.3654 51.4681 56.1234 53.2474 57.8591C55.0497 56.101 56.8864 54.2982 58.7117 52.5177C56.9324 50.7932 55.1301 49.0352 53.3507 47.2995ZM55.1301 59.7292C56.0829 60.6922 56.9668 61.7112 57.977 62.5958C59.4464 63.8724 61.6849 63.7716 63.1543 62.4615C64.5893 61.1737 64.9107 58.9677 63.7168 57.4672C62.8099 56.325 61.6964 55.3508 60.6862 54.3094C58.7691 56.157 56.9324 57.9599 55.1301 59.7292ZM35.8787 30.1443C34.7078 28.8229 33.3417 27.7479 31.5165 27.3336C30.0585 26.9977 28.6006 26.6169 27.1542 26.2586C26.8213 26.1802 26.4769 26.0906 26.0866 26.001C26.5573 27.8039 27.0279 29.5284 27.4412 31.2641C27.8545 33.0781 28.9565 34.4331 30.3226 35.5865C32.1593 33.7836 34.0075 31.9807 35.8787 30.1443ZM36.6364 41.7005C38.4731 39.9089 40.3213 38.106 42.1466 36.3255C40.7002 34.9146 39.2308 33.4701 37.7729 32.0479C35.9476 33.8396 34.0994 35.6424 32.2741 37.4229C33.7205 38.8451 35.1899 40.2896 36.6364 41.7005Z" fill="white"></path><defs><linearGradient id="paint0_linear_2_697" x1="14.5" y1="90" x2="70" y2="2.17929e-06" gradientUnits="userSpaceOnUse"><stop stop-color="#5130EF"></stop><stop offset="1" stop-color="#4C92EB"></stop><stop offset="1" stop-color="#4E90ED"></stop></linearGradient></defs></svg>