<svg width="44" height="43" viewBox="0 0 44 43" fill="none" xmlns="http://www.w3.org/2000/svg">
<path d="M44 35.9453C44 36.3932 44 36.8411 44 37.2891C43.977 37.3786 43.9426 37.4682 43.9196 37.569C43.4145 40.2453 41.8189 41.9922 39.1556 42.776C38.8342 42.8768 38.4898 42.9328 38.1569 43C37.6977 43 37.2385 43 36.7793 43C36.7449 42.9776 36.699 42.9552 36.6645 42.944C35.0114 42.7424 33.6913 41.9698 32.5318 40.8276C29.4668 37.8042 26.3788 34.8143 23.3137 31.8021C23.1989 31.6901 23.1185 31.5221 23.0267 31.3878C22.9578 31.3878 22.889 31.3878 22.8316 31.3878C22.7397 31.5221 22.6594 31.6901 22.5446 31.8021C19.2958 34.9823 16.0471 38.1513 12.8098 41.3315C12.0407 42.093 11.2601 42.776 10.158 42.9888C9.81365 42.9888 9.46927 42.9888 9.12488 42.9888C8.03431 42.7872 7.24222 42.1266 6.48456 41.3763C4.7741 39.663 3.02919 37.9833 1.29577 36.2924C-0.437657 34.6016 -0.426178 32.5971 1.29577 30.9062C4.70522 27.5693 8.12615 24.2323 11.5356 20.8953C11.6389 20.7945 11.7193 20.6938 11.8341 20.5818C11.7078 20.4474 11.6045 20.3354 11.4897 20.2346C9.21671 18.0174 6.95523 15.8003 4.68226 13.5831C3.32766 12.2841 2.40929 10.7612 1.95011 8.95833C1.36465 6.62917 0.756224 4.3 0.147804 1.97083C-0.127707 0.884635 -0.00143143 0.548698 0.951378 0C1.18097 0 1.41056 0 1.64016 0C1.75495 0.0447917 1.86975 0.100781 1.98454 0.134375C4.08532 0.649479 6.18609 1.22057 8.30982 1.67969C10.7091 2.19479 12.718 3.29219 14.417 5.03906C16.4833 7.15547 18.6415 9.18229 20.7537 11.2539C20.8571 11.3547 20.9719 11.4555 21.1441 11.601C21.2474 11.4667 21.3162 11.3547 21.4081 11.2651C24.6913 8.0625 27.9744 4.8599 31.2461 1.6349C31.9923 0.884635 32.7729 0.223958 33.8635 0C34.2079 0 34.5523 0 34.8967 0C35.9872 0.201562 36.7793 0.86224 37.537 1.6125C39.1097 3.19141 40.7168 4.75911 42.324 6.29323C43.1046 7.03229 43.7934 7.81615 44 8.90234C44 9.23828 44 9.57422 44 9.91016C43.7704 10.9852 43.0702 11.7578 42.301 12.5081C39.0293 15.6771 35.7806 18.8685 32.5204 22.0487C32.4056 22.1495 32.2563 22.2167 32.1301 22.3062C32.1301 22.3734 32.1301 22.4406 32.1301 22.4966C32.2793 22.5862 32.44 22.6646 32.5548 22.7766C35.7117 25.8448 38.8456 28.9242 42.0025 32.0036C42.875 32.8547 43.4834 33.8401 43.7934 35.0047C43.8622 35.3182 43.9311 35.6318 44 35.9453ZM26.6658 24.1203C26.0114 23.4932 25.3571 22.8661 24.7142 22.2279C24.1747 21.6904 24.1632 20.9177 24.6683 20.425C25.1734 19.9211 25.9655 19.9211 26.5165 20.4362C26.9872 20.8729 27.4349 21.3208 27.8826 21.7687C28.0892 21.9703 28.2614 22.2055 28.4107 22.3734C29.1454 21.6568 29.7882 21.0297 30.4426 20.3802C29.2028 19.1708 27.9285 17.9391 26.6887 16.6849C26.4706 16.4721 26.2984 16.1586 26.2295 15.8674C26.1033 15.3411 26.4247 14.826 26.9068 14.5909C27.4234 14.3445 27.963 14.4117 28.4107 14.8372C29.616 16.0018 30.7984 17.1664 32.0038 18.331C32.1071 18.4318 32.2219 18.5326 32.2793 18.5885C32.9566 17.9279 33.5995 17.3008 34.2768 16.6401C33.6913 16.069 33.0714 15.4755 32.4515 14.8708C31.8086 14.2437 31.7512 13.4823 32.3137 12.9448C32.8648 12.4185 33.6224 12.4633 34.2538 13.0792C34.8852 13.6951 35.5051 14.3109 36.0561 14.8484C36.7334 14.1878 37.3877 13.5495 38.088 12.8776C38.0076 12.8104 37.8814 12.732 37.7666 12.6201C36.5956 11.4891 35.4247 10.3469 34.2768 9.20469C33.565 8.49922 33.7602 7.42422 34.6556 7.09948C35.2296 6.88672 35.7117 7.04349 36.1365 7.45781C37.2959 8.6 38.4668 9.73099 39.6263 10.8732C39.7296 10.974 39.8444 11.0747 40.0051 11.2203C40.3495 10.862 40.6709 10.526 41.0038 10.2013C41.5778 9.61901 41.5893 9.1375 41.0038 8.56641C39.0982 6.70755 37.1926 4.8487 35.287 2.98984C34.6211 2.34036 34.162 2.34036 33.4961 2.98984C23.3481 12.9112 13.2001 22.8214 3.05215 32.7427C2.40929 33.3698 2.40929 33.8289 3.05215 34.456C4.94629 36.3036 6.84043 38.1625 8.73457 40.0102C8.81493 40.0885 8.89528 40.1669 8.98712 40.2341C9.37743 40.5365 9.84809 40.57 10.204 40.2565C10.6402 39.8758 11.0305 39.4503 11.4552 39.0247C11.3519 38.9128 11.2601 38.812 11.1568 38.7112C10.5943 38.1513 10.0088 37.6138 9.45779 37.0427C8.78049 36.3484 9.056 35.251 9.96289 34.9711C10.491 34.8031 10.9501 34.9487 11.3404 35.3294C11.9833 35.9677 12.6262 36.5948 13.2231 37.1883C13.9119 36.5164 14.5547 35.8781 15.2206 35.2286C13.9922 34.0417 12.7295 32.8099 11.4667 31.5669C10.8813 30.9958 10.8468 30.2232 11.3634 29.6969C11.9029 29.1706 12.6721 29.193 13.269 29.7753C14.1415 30.6263 15.0139 31.4773 15.8864 32.3284C16.2882 32.7203 16.6785 33.1346 17.0229 33.4818C17.7231 32.7987 18.3775 32.1604 19.0433 31.5109C18.4349 30.9286 17.8035 30.3016 17.1606 29.6857C16.8507 29.3833 16.6785 29.025 16.7244 28.5995C16.7818 28.0956 17.0573 27.7372 17.5394 27.5581C18.056 27.3677 18.5267 27.4797 18.917 27.8492C19.5828 28.4875 20.2486 29.1482 20.8685 29.7641C21.5458 29.1034 22.1887 28.4763 22.8545 27.8268C22.7856 27.7484 22.6938 27.6477 22.5905 27.5581C21.4425 26.4271 20.2716 25.3073 19.1351 24.1651C18.9285 23.9523 18.7333 23.6724 18.6644 23.3924C18.5037 22.8437 18.7907 22.3062 19.2844 22.0375C19.7895 21.7687 20.4094 21.8471 20.8571 22.2839C22.0509 23.4372 23.2333 24.6018 24.4157 25.7552C24.5191 25.856 24.6339 25.9568 24.7142 26.0352C25.3686 25.3969 25.9885 24.781 26.6658 24.1203ZM30.3507 24.2995C28.5255 26.0799 26.6772 27.8828 24.8979 29.6297C26.6658 31.3654 28.4681 33.1234 30.2474 34.8591C32.0497 33.101 33.8864 31.2982 35.7117 29.5177C33.9324 27.7932 32.1301 26.0352 30.3507 24.2995ZM32.1301 36.7292C33.0829 37.6922 33.9668 38.7112 34.977 39.5958C36.4464 40.8724 38.6849 40.7716 40.1543 39.4615C41.5893 38.1737 41.9107 35.9677 40.7168 34.4672C39.8099 33.325 38.6964 32.3508 37.6862 31.3094C35.7691 33.157 33.9324 34.9599 32.1301 36.7292ZM12.8787 7.14427C11.7078 5.82292 10.3417 4.74792 8.51646 4.33359C7.05854 3.99766 5.60063 3.61693 4.1542 3.25859C3.82129 3.18021 3.4769 3.09062 3.08659 3.00104C3.55725 4.80391 4.02792 6.52839 4.44119 8.26406C4.85445 10.0781 5.9565 11.4331 7.32257 12.5865C9.15932 10.7836 11.0075 8.98073 12.8787 7.14427ZM13.6364 18.7005C15.4731 16.9089 17.3213 15.106 19.1466 13.3255C17.7002 11.9146 16.2308 10.4701 14.7729 9.04792C12.9476 10.8396 11.0994 12.6424 9.27411 14.4229C10.7205 15.8451 12.1899 17.2896 13.6364 18.7005Z" fill="white"/>
</svg>
