<svg width="34" height="33" viewBox="0 0 34 33" fill="none" xmlns="http://www.w3.org/2000/svg">
<path d="M12.0954 32.9828C8.4269 32.9828 4.7584 32.9828 1.08105 32.9828C0.283555 32.7251 0.00886109 32.1754 0.00886109 31.3766C0.0354444 28.1814 0.0177222 24.9776 0.0177222 21.7824C0.0177222 20.7689 0.513943 20.2793 1.55069 20.2793C4.65207 20.2793 7.76231 20.2793 10.8637 20.2879C11.1118 20.2879 11.289 20.2192 11.4751 20.0474C14.3018 17.2988 17.1019 14.5245 19.9729 11.8188C20.6641 11.1661 21.0274 10.5305 20.9033 9.59422C20.8236 8.97579 20.8856 8.3316 20.8856 7.6874C18.2716 7.6874 15.693 7.6874 13.0878 7.6874C13.0878 7.83342 13.0878 7.94508 13.0878 8.06533C13.0878 9.1304 13.0878 10.1869 13.0878 11.252C13.0878 12.2311 12.5827 12.7207 11.5814 12.7207C8.22309 12.7207 4.86474 12.7207 1.50639 12.7207C0.513943 12.7207 0.00886109 12.214 0.00886109 11.252C0.00886109 8.03097 0.0177222 4.80999 0 1.58902C0.0177222 0.781624 0.310138 0.257678 1.08991 0C4.7584 0 8.42689 0 12.1042 0C12.8752 0.292035 13.1587 0.841749 13.1233 1.64055C13.079 2.65409 13.1144 3.67621 13.1144 4.69833C13.1144 4.80999 13.1144 4.93024 13.1144 5.0419C15.7373 5.0419 18.307 5.0419 20.9122 5.0419C20.9122 3.89094 20.9476 2.75716 20.9033 1.64055C20.8767 0.850338 21.1514 0.292035 21.9223 0C25.5908 0 29.2593 0 32.9367 0C33.4772 0.163196 33.8316 0.506767 34 1.03071C34 4.59526 34 8.15981 34 11.7244C33.6899 12.4888 33.105 12.7293 32.2809 12.7207C29.2239 12.6864 26.1579 12.7035 23.1009 12.7207C22.9325 12.7207 22.7287 12.798 22.6135 12.9097C19.5121 15.9073 16.4196 18.9136 13.3271 21.9284C13.2119 22.0401 13.1321 22.2376 13.1321 22.4008C13.1144 23.2683 13.1233 24.1359 13.1233 25.012C13.1233 25.115 13.1233 25.2181 13.1233 25.3298C15.7373 25.3298 18.307 25.3298 20.921 25.3298C20.921 25.1923 20.921 25.0807 20.921 24.969C20.921 23.861 20.9122 22.7616 20.921 21.6536C20.9299 20.8204 21.4527 20.2965 22.3034 20.2965C25.7415 20.2879 29.1796 20.2965 32.6088 20.2965C33.2557 20.2965 33.6987 20.5885 33.9291 21.1726C33.9468 21.2069 33.9734 21.2413 34 21.2756C34 24.8402 34 28.4047 34 31.9693C33.8316 32.4932 33.4772 32.8368 32.9367 33C29.2682 33 25.5997 33 21.9223 33C21.1337 32.6994 20.859 32.1325 20.9033 31.3251C20.9476 30.3201 20.9122 29.3066 20.9122 28.3017C20.9122 28.19 20.9122 28.0698 20.9122 27.9495C18.2893 27.9495 15.7196 27.9495 13.1144 27.9495C13.1144 28.0955 13.1144 28.2158 13.1144 28.3274C13.1144 29.4354 13.1144 30.5349 13.1144 31.6429C13.1144 32.0809 12.9638 32.4417 12.6093 32.708C12.4498 32.811 12.2726 32.8883 12.0954 32.9828ZM10.4295 10.1096C10.4295 7.58433 10.4295 5.08485 10.4295 2.59396C7.84206 2.59396 5.27235 2.59396 2.69377 2.59396C2.69377 5.11062 2.69377 7.60151 2.69377 10.1096C5.28121 10.1096 7.85092 10.1096 10.4295 10.1096ZM31.3151 10.1096C31.3151 7.57574 31.3151 5.08485 31.3151 2.59396C28.7277 2.59396 26.1579 2.59396 23.5794 2.59396C23.5794 5.10203 23.5794 7.60151 23.5794 10.1096C26.1668 10.1096 28.7277 10.1096 31.3151 10.1096ZM2.70263 22.8732C2.70263 25.4071 2.70263 27.898 2.70263 30.3889C5.29007 30.3889 7.85979 30.3889 10.4384 30.3889C10.4384 27.8808 10.4384 25.3813 10.4384 22.8732C7.85092 22.8732 5.28121 22.8732 2.70263 22.8732ZM31.3239 22.8732C28.7276 22.8732 26.1579 22.8732 23.5705 22.8732C23.5705 25.3899 23.5705 27.8808 23.5705 30.3803C26.1668 30.3803 28.7365 30.3803 31.3239 30.3803C31.3239 27.8722 31.3239 25.3899 31.3239 22.8732Z" fill="#3DCAB1"/>
</svg>
