<svg width="48" height="42" viewBox="0 0 48 42" fill="none" xmlns="http://www.w3.org/2000/svg">
<path d="M0.587137 25.2607C0.634612 24.3684 0.729561 23.4761 0.777036 22.5368C0.966935 19.7659 1.34673 17.0419 2.1538 14.4119C3.19825 11.0774 5.14471 8.25956 7.75582 5.86437C10.0821 3.70401 12.7407 2.06025 15.6841 0.839173C16.9659 0.322564 18.1528 0.745244 18.77 1.96632C19.3871 3.1874 20.0043 4.45544 20.574 5.67652C21.1437 6.94456 20.669 8.16563 19.3871 8.77617C17.8205 9.48064 16.3488 10.279 15.0195 11.4062C12.9306 13.1908 11.7437 15.4921 11.174 18.0751C10.9366 19.0614 10.8417 20.0476 10.6993 21.0339C10.6518 21.4566 10.6993 21.8793 10.6993 22.3489C10.8417 22.3489 11.0316 22.3489 11.174 22.3489C13.2629 22.3489 15.3993 22.3489 17.4881 22.3489C19.0548 22.3489 20.0043 23.2412 20.0043 24.838C20.0043 29.5814 20.0043 34.3249 20.0043 39.0683C20.0043 40.6651 19.0548 41.5574 17.4407 41.5574C12.6457 41.5574 7.85077 41.5574 3.05582 41.5574C1.72653 41.5574 0.966935 40.9468 0.492188 39.7727C0.587137 34.9354 0.587137 30.0981 0.587137 25.2607Z" fill="url(#paint0_linear_1043_3281)"/>
<path d="M37.333 22.3491C37.6178 22.3491 37.8077 22.3491 37.9501 22.3491C40.134 22.3491 42.2704 22.3491 44.4542 22.3491C45.831 22.3491 46.7805 23.2884 46.8279 24.6504C46.8279 29.4877 46.8279 34.372 46.8279 39.2094C46.8279 40.5244 45.9734 41.4167 44.6916 41.5576C44.5491 41.5576 44.4067 41.5576 44.2168 41.5576C39.4693 41.5576 34.7219 41.5576 29.9744 41.5576C28.2653 41.5576 27.3633 40.6653 27.3633 38.9745C27.3633 34.7008 27.3633 30.38 27.3633 26.1063C27.4108 23.1945 27.6481 20.2827 28.1229 17.4178C29.0724 12.4396 31.5885 8.3537 35.434 5.11315C37.5229 3.37546 39.8491 1.96653 42.3653 0.886347C43.7421 0.322773 44.9289 0.745453 45.5936 2.06046C46.1633 3.23457 46.733 4.36172 47.3027 5.53583C47.9673 6.94477 47.54 8.16584 46.1158 8.77638C44.3118 9.57478 42.6027 10.561 41.1784 11.97C39.2794 13.8485 38.2825 16.1968 37.8552 18.7329C37.5704 19.9539 37.4754 21.128 37.333 22.3491Z" fill="url(#paint1_linear_1043_3281)"/>
<defs>
<linearGradient id="paint0_linear_1043_3281" x1="0.492188" y1="41.5574" x2="22.247" y2="40.1871" gradientUnits="userSpaceOnUse">
<stop stop-color="#770993"/>
<stop offset="1" stop-color="#0F1755"/>
</linearGradient>
<linearGradient id="paint1_linear_1043_3281" x1="27.3633" y1="41.5576" x2="49.039" y2="40.1967" gradientUnits="userSpaceOnUse">
<stop stop-color="#770993"/>
<stop offset="1" stop-color="#0F1755"/>
</linearGradient>
</defs>
</svg>
