<svg xmlns="http://www.w3.org/2000/svg" width="48" height="41" viewBox="0 0 48 41" fill="none"><path d="M0.0949495 24.6377C0.142424 23.7453 0.237374 22.853 0.284849 21.9137C0.474747 19.1428 0.854545 16.4189 1.66162 13.7889C2.70606 10.4544 4.65253 7.63652 7.26364 5.24133C9.5899 3.08096 12.2485 1.4372 15.1919 0.216126C16.4737 -0.300483 17.6606 0.122197 18.2778 1.34327C18.8949 2.56435 19.5121 3.83239 20.0818 5.05347C20.6515 6.32151 20.1768 7.54259 18.8949 8.15312C17.3283 8.85759 15.8566 9.65599 14.5273 10.7831C12.4384 12.5678 11.2515 14.869 10.6818 17.4521C10.4444 18.4383 10.3495 19.4246 10.2071 20.4109C10.1596 20.8335 10.2071 21.2562 10.2071 21.7259C10.3495 21.7259 10.5394 21.7259 10.6818 21.7259C12.7707 21.7259 14.9071 21.7259 16.996 21.7259C18.5626 21.7259 19.5121 22.6182 19.5121 24.215C19.5121 28.9584 19.5121 33.7018 19.5121 38.4452C19.5121 40.042 18.5626 40.9343 16.9485 40.9343C12.1535 40.9343 7.35859 40.9343 2.56364 40.9343C1.23434 40.9343 0.474747 40.3238 0 39.1497C0.0949495 34.3123 0.0949495 29.475 0.0949495 24.6377Z" fill="url(#paint0_linear_2_1165)"></path><path d="M36.8408 21.7258C37.1256 21.7258 37.3155 21.7258 37.458 21.7258C39.6418 21.7258 41.7782 21.7258 43.962 21.7258C45.3388 21.7258 46.2883 22.6651 46.3357 24.0271C46.3357 28.8644 46.3357 33.7487 46.3357 38.5861C46.3357 39.9011 45.4812 40.7934 44.1994 40.9343C44.057 40.9343 43.9145 40.9343 43.7246 40.9343C38.9772 40.9343 34.2297 40.9343 29.4822 40.9343C27.7731 40.9343 26.8711 40.042 26.8711 38.3513C26.8711 34.0775 26.8711 29.7568 26.8711 25.483C26.9186 22.5712 27.1559 19.6594 27.6307 16.7946C28.5802 11.8163 31.0963 7.73041 34.9418 4.48986C37.0307 2.75217 39.357 1.34324 41.8731 0.263056C43.2499 -0.300518 44.4368 0.122162 45.1014 1.43717C45.6711 2.61128 46.2408 3.73843 46.8105 4.91254C47.4751 6.32147 47.0479 7.54255 45.6236 8.15309C43.8196 8.95149 42.1105 9.93774 40.6862 11.3467C38.7873 13.2253 37.7903 15.5735 37.363 18.1096C37.0782 19.3306 36.9832 20.5048 36.8408 21.7258Z" fill="url(#paint1_linear_2_1165)"></path><defs><linearGradient id="paint0_linear_2_1165" x1="0.040853" y1="40.9813" x2="29.1638" y2="30.5147" gradientUnits="userSpaceOnUse"><stop stop-color="#522DF0"></stop><stop offset="1" stop-color="#4E95ED"></stop></linearGradient><linearGradient id="paint1_linear_2_1165" x1="26.9118" y1="40.9813" x2="55.9493" y2="30.5787" gradientUnits="userSpaceOnUse"><stop stop-color="#522DF0"></stop><stop offset="1" stop-color="#4E95ED"></stop></linearGradient></defs></svg>