<svg width="16" height="16" viewBox="0 0 16 16" fill="none" xmlns="http://www.w3.org/2000/svg">
<path d="M9.61098 0.533203C9.87077 0.533203 10.1276 0.533203 10.3874 0.533203C10.4322 0.54216 10.474 0.554102 10.5188 0.560073C11.319 0.634711 12.0835 0.849669 12.7822 1.24973C14.4186 2.1842 15.422 3.57546 15.7415 5.44141C15.7713 5.61756 15.7952 5.7937 15.8221 5.96985C15.8221 6.22959 15.8221 6.48635 15.8221 6.74609C15.8131 6.78788 15.8042 6.83267 15.7952 6.87446C15.7146 7.28348 15.6728 7.70444 15.5474 8.09853C15.0995 9.50471 14.2424 10.6064 12.9674 11.3528C11.3399 12.3051 9.6289 12.4365 7.86411 11.7648C7.54459 11.6424 7.24598 11.4781 6.91452 11.3199C6.88466 11.3528 6.85181 11.4035 6.81001 11.4453C5.55584 12.7022 4.2957 13.9561 3.04452 15.216C2.75487 15.5086 2.45029 15.7564 2.02924 15.8221C1.9307 15.8221 1.82918 15.8221 1.73063 15.8221C1.70674 15.8131 1.68584 15.8042 1.66195 15.7982C1.32751 15.7385 1.05279 15.5773 0.8348 15.3116C0.667578 15.1086 0.595911 14.8727 0.536189 14.6249C0.536189 14.5264 0.536189 14.4249 0.536189 14.3263C0.601884 13.8934 0.864661 13.5859 1.16327 13.2904C2.42043 12.0424 3.67161 10.7885 4.92577 9.53756C4.96758 9.49576 5.02431 9.47187 5.06612 9.445C4.97355 9.27781 4.90188 9.15839 4.83918 9.03599C4.77647 8.91358 4.71376 8.78819 4.66001 8.65981C4.1673 7.49844 4.05084 6.30124 4.33154 5.06822C4.35543 4.96074 4.33154 4.89805 4.25688 4.82341C4.00306 4.57859 3.75522 4.32781 3.50737 4.07404C3.45063 4.01731 3.40584 3.99343 3.31626 4.02627C2.63543 4.27706 1.92174 3.98149 1.62015 3.32169C1.58133 3.23809 1.53355 3.22018 1.44994 3.22018C1.13938 3.22316 0.837786 3.22018 0.533203 3.22018C0.533203 2.92163 0.533203 2.62307 0.533203 2.32452C0.831814 2.32452 1.13043 2.31855 1.42904 2.32751C1.53654 2.33049 1.58133 2.29168 1.62612 2.19913C1.93966 1.51246 2.79369 1.22883 3.45661 1.59008C4.0598 1.9155 4.31959 2.59919 4.09265 3.24406C4.07772 3.29183 4.07473 3.36945 4.10161 3.39931C4.28376 3.59635 4.47786 3.78146 4.68091 3.98447C4.71973 3.90984 4.74959 3.84714 4.77945 3.78743C5.68126 2.05284 7.08772 0.989989 9.01077 0.622769C9.20786 0.583957 9.41091 0.563058 9.61098 0.533203ZM14.7262 7.69847C14.4933 7.69847 14.2753 7.70444 14.0573 7.69549C13.9707 7.6925 13.9379 7.73131 13.908 7.80296C13.6034 8.46575 12.8569 8.76132 12.179 8.49262C11.5221 8.22989 11.1817 7.4656 11.4325 6.78788C11.4654 6.7013 11.4564 6.64756 11.3877 6.58188C11.1399 6.34304 10.898 6.10121 10.6591 5.85341C10.6024 5.79669 10.5576 5.78475 10.477 5.8146C10.1634 5.93701 9.8439 5.94298 9.53036 5.81759C9.44077 5.78176 9.39001 5.79967 9.32431 5.86536C9.0914 6.1042 8.8555 6.34006 8.61661 6.57293C8.54793 6.64159 8.53001 6.69533 8.56584 6.79087C8.75098 7.28647 8.61362 7.87163 8.23737 8.21795C7.76556 8.65384 7.07876 8.71355 6.55918 8.36424C6.04556 8.01792 5.83654 7.37006 6.05751 6.76997C6.08737 6.68936 6.07244 6.64458 6.0157 6.59084C5.7589 6.34005 5.50806 6.08629 5.25424 5.83252C5.21543 5.7937 5.17362 5.75489 5.12286 5.70712C4.77945 8.08062 6.30834 10.6303 9.01973 11.1796C11.8237 11.7439 14.1469 9.88089 14.7262 7.69847ZM14.8994 6.80281C14.9561 6.30124 14.9203 5.82057 14.8188 5.34886C14.5948 4.29795 14.0842 3.39931 13.2749 2.68875C12.1014 1.65576 10.7248 1.23779 9.19293 1.5035C7.38633 1.81698 6.13216 2.86789 5.41251 4.55769C5.37668 4.64428 5.38563 4.69503 5.45133 4.76071C5.85147 5.1548 6.24862 5.55188 6.64577 5.95194C6.70549 6.01165 6.75327 6.03255 6.83688 5.99672C7.15043 5.87133 7.46994 5.87133 7.78049 5.99672C7.86709 6.02956 7.91487 6.01165 7.97459 5.95194C8.20751 5.71309 8.44043 5.47425 8.6823 5.24735C8.76293 5.16973 8.7689 5.10703 8.73306 5.00254C8.41654 4.12181 9.13022 3.16047 10.0499 3.22018C10.9846 3.28287 11.5609 4.16062 11.2504 5.04732C11.2354 5.0921 11.2444 5.16674 11.2742 5.19958C11.5251 5.46231 11.7819 5.71907 12.0447 5.96985C12.0745 5.99672 12.1432 6.01165 12.182 5.99971C12.9256 5.75489 13.5676 6.0206 13.914 6.71623C13.9319 6.75206 13.9797 6.79386 14.0155 6.79684C14.3081 6.8058 14.5978 6.80281 14.8994 6.80281ZM5.55286 10.1705C5.53494 10.1884 5.49911 10.2212 5.46327 10.2541C4.1882 11.5289 2.91612 12.8007 1.64105 14.0756C1.38723 14.3293 1.36036 14.5921 1.56043 14.7921C1.76348 14.9921 2.02029 14.9623 2.27709 14.7055C3.55216 13.4307 4.82424 12.1588 6.09931 10.884C6.13216 10.8512 6.16501 10.8124 6.17994 10.7974C5.9739 10.5885 5.76786 10.3854 5.55286 10.1705ZM3.28043 2.77832C3.28341 2.53351 3.08334 2.33049 2.83848 2.32751C2.59362 2.32452 2.39056 2.52455 2.38758 2.76936C2.38459 3.01418 2.58466 3.21719 2.82952 3.22018C3.0714 3.22316 3.27744 3.02015 3.28043 2.77832ZM9.55424 4.54277C9.5423 4.7846 9.7364 4.99955 9.97827 5.0115C10.2201 5.02344 10.4351 4.82938 10.4471 4.58755C10.459 4.34572 10.2649 4.13076 10.0231 4.11882C9.7782 4.10389 9.56619 4.29795 9.55424 4.54277ZM7.75959 7.25661C7.76258 7.01478 7.56251 6.80878 7.31765 6.8058C7.07577 6.80281 6.86973 7.00284 6.86674 7.24766C6.86376 7.49247 7.06383 7.69549 7.30869 7.69847C7.55056 7.70146 7.75661 7.49844 7.75959 7.25661ZM13.1346 7.24766C13.1316 7.00284 12.9285 6.80281 12.6837 6.8058C12.4388 6.80878 12.2388 7.0118 12.2417 7.25661C12.2447 7.50143 12.4478 7.70146 12.6926 7.69847C12.9345 7.69549 13.1346 7.48948 13.1346 7.24766Z" fill="white"/>
</svg>
