<svg width="34" height="33" viewBox="0 0 34 33" fill="none" xmlns="http://www.w3.org/2000/svg">
<path d="M0 4.74888C0 3.99778 0 3.24668 0 2.49558C1.95257 2.49558 3.89707 2.49558 5.88191 2.49558C5.88191 1.63141 5.88191 0.807621 5.88191 -1.52588e-05C12.9337 -1.52588e-05 19.9533 -1.52588e-05 27.0051 -1.52588e-05C27.0051 0.83185 27.0051 1.65564 27.0051 2.51173C29.0222 2.51173 30.999 2.51173 32.9758 2.51173C33.0968 3.87664 32.887 6.23493 32.5885 7.43831C31.8946 10.2731 30.4181 12.6395 28.2557 14.5617C26.8276 15.8296 25.2785 16.9603 23.802 18.1637C23.3098 18.5595 22.8015 18.9633 22.4142 19.4559C21.1152 21.0793 19.6306 22.4926 17.912 23.6556C17.8313 23.7122 17.7425 23.8091 17.7345 23.8899C17.7183 24.5521 17.7264 25.2144 17.7264 25.9089C18.0088 25.9089 18.2509 25.9009 18.4929 25.9089C21.1313 25.9816 23.3259 27.7504 23.9875 30.3025C24.2215 31.1909 24.1489 32.0954 24.165 32.9919C19.0093 32.9919 13.8535 32.9919 8.6978 32.9919C8.6978 32.4669 8.68973 31.942 8.71394 31.417C8.83496 28.6468 10.9812 26.3128 13.7325 25.9655C14.1924 25.9089 14.6685 25.9009 15.1445 25.8686C15.1445 25.2467 15.1364 24.649 15.1526 24.0514C15.1606 23.8414 15.088 23.7202 14.9186 23.6072C13.7406 22.8157 12.6513 21.9111 11.6912 20.8612C11.1829 20.312 10.7633 19.6659 10.2066 19.1733C9.08509 18.1799 7.89902 17.2511 6.7291 16.3142C5.53496 15.3531 4.35697 14.3597 3.36455 13.1806C1.79927 11.3473 0.742298 9.27972 0.306601 6.91335C0.177506 6.19455 0.10489 5.46768 0 4.74888ZM8.44768 2.56827C8.44768 2.68134 8.43961 2.77018 8.44768 2.85094C8.52836 4.28853 8.58484 5.72612 8.70587 7.15564C8.85917 9.02128 9.22225 10.8546 9.79511 12.6395C10.965 16.2496 13.0548 19.1813 16.1853 21.3539C16.3144 21.4427 16.4112 21.5477 16.5968 21.4104C18.1944 20.312 19.566 18.9794 20.6956 17.3965C22.1963 15.3047 23.1 12.9545 23.6406 10.4589C24.1973 7.90674 24.3425 5.31423 24.399 2.71364C24.399 2.66518 24.3829 2.61672 24.3667 2.56019C19.0738 2.56827 13.7809 2.56827 8.44768 2.56827ZM25.5286 13.4794C28.2477 11.323 30.0631 8.64977 30.3455 5.08001C29.1998 5.08001 28.0782 5.08001 26.9244 5.08001C26.7631 7.93905 26.4 10.7496 25.5286 13.4794ZM7.32616 13.431C6.45477 10.7092 6.09976 7.92289 5.94645 5.08809C4.83301 5.08809 3.74377 5.08809 2.64645 5.08809C2.92078 8.60938 4.66357 11.2746 7.32616 13.431ZM21.2846 30.3994C21.2604 30.3348 21.2523 30.2944 21.2362 30.2621C20.623 29.1233 19.6628 28.5176 18.38 28.4934C17.0809 28.4611 15.7819 28.4772 14.4829 28.4934C13.7164 28.5015 13.0306 28.7437 12.4416 29.2445C12.0704 29.5595 11.7557 29.9229 11.5782 30.4075C14.8298 30.3994 18.0491 30.3994 21.2846 30.3994Z" fill="#3DCAB1"/>
<path d="M12.2718 9.01344C13.1352 8.8923 13.9904 8.76308 14.8537 8.65001C15.0635 8.62578 15.1845 8.53694 15.2814 8.34311C15.6525 7.56777 16.0479 6.8086 16.4594 6.00096C16.532 6.12211 16.5804 6.20287 16.6288 6.29171C16.9757 6.97012 17.3227 7.64854 17.6535 8.33503C17.7503 8.54501 17.8875 8.63385 18.1053 8.65808C18.9606 8.77115 19.8158 8.90037 20.6711 9.02152C20.6953 9.05382 20.7195 9.08613 20.7437 9.11844C20.6388 9.1992 20.5178 9.26381 20.421 9.36073C19.8723 9.87761 19.3237 10.3945 18.7992 10.9275C18.7105 11.0164 18.6459 11.2102 18.6701 11.3394C18.7912 12.1148 18.9364 12.882 19.0735 13.6573C19.0897 13.7381 19.0816 13.827 19.0897 13.9562C18.8396 13.827 18.6217 13.722 18.4039 13.6089C17.8794 13.3424 17.3469 13.0839 16.8386 12.7932C16.5885 12.6478 16.3948 12.6478 16.1366 12.7851C15.4992 13.1405 14.8457 13.4635 14.1921 13.7946C14.0953 13.8431 13.9985 13.8835 13.8533 13.9562C13.8694 13.8027 13.8855 13.6897 13.9017 13.5766C14.0308 12.8174 14.176 12.0582 14.297 11.291C14.3132 11.1779 14.2486 11.0164 14.1679 10.9356C13.6112 10.3864 13.0383 9.84531 12.4735 9.30419C12.4009 9.2315 12.296 9.19112 12.1992 9.14266C12.2073 9.09421 12.2396 9.05382 12.2718 9.01344Z" fill="#3DCAB1"/>
</svg>
