<svg width="34" height="34" viewBox="0 0 34 34" fill="none" xmlns="http://www.w3.org/2000/svg">
<path d="M0 6.08519C0.14835 5.41088 0.34615 4.75302 0.782959 4.19384C1.56592 3.19884 2.58788 2.6561 3.8571 2.61499C4.40105 2.59854 4.945 2.61499 5.52192 2.61499C5.52192 1.7351 5.52192 0.88811 5.52192 0.00822513C6.40378 0.00822513 7.26091 0.00822513 8.15925 0.00822513C8.15925 0.86344 8.15925 1.71866 8.15925 2.59032C13.9614 2.59032 19.7306 2.59032 25.5327 2.59032C25.5327 1.7351 25.5327 0.879887 25.5327 1.90735e-06C26.4228 1.90735e-06 27.2717 1.90735e-06 28.1618 1.90735e-06C28.1618 0.846994 28.1618 1.70221 28.1618 2.60676C28.7305 2.60676 29.2662 2.59854 29.7936 2.60676C31.1288 2.63966 32.2002 3.20706 32.9832 4.2843C33.4282 4.90104 33.6919 5.60002 33.6919 6.36478C33.7084 9.99944 33.7002 13.6341 33.7002 17.2605C33.7002 17.277 33.6919 17.3017 33.6755 17.351C33.6095 17.2852 33.5518 17.2359 33.4859 17.1783C32.7606 16.5369 32.0354 15.879 31.3019 15.2459C31.1453 15.1143 31.0629 14.9992 31.0629 14.7854C31.0793 13.9795 31.0711 13.1654 31.0711 12.3348C21.6014 12.3348 12.14 12.3348 2.63733 12.3348C2.63733 12.4417 2.63733 12.5569 2.63733 12.6802C2.63733 18.2638 2.63733 23.8391 2.63733 29.4227C2.63733 30.4506 3.14832 30.9604 4.17028 30.9604C7.72244 30.9604 11.2828 30.9604 14.835 30.9522C15.074 30.9522 15.1976 31.0344 15.346 31.2154C15.9641 31.939 16.607 32.638 17.2333 33.3452C17.3075 33.4274 17.3734 33.5014 17.4476 33.5836C12.7993 33.5836 8.14277 33.5836 3.49447 33.5836C3.44502 33.5672 3.39557 33.5343 3.34612 33.5261C2.25822 33.3534 1.40108 32.8024 0.749992 31.9308C0.329667 31.3963 0.140108 30.7713 0 30.1217C0 22.104 0 14.0946 0 6.08519ZM8.16749 7.83673C7.26091 7.83673 6.40378 7.83673 5.52192 7.83673C5.52192 6.96507 5.52192 6.11808 5.52192 5.23819C5.02742 5.23819 4.55764 5.23819 4.08787 5.23819C3.17304 5.23819 2.63733 5.76448 2.63733 6.67726C2.63733 7.58181 2.63733 8.49459 2.63733 9.39914C2.63733 9.4896 2.64558 9.58828 2.65382 9.67051C12.14 9.67051 21.6014 9.67051 31.0711 9.67051C31.0711 8.60149 31.0793 7.56537 31.0711 6.52924C31.0629 5.90427 30.659 5.36154 30.0574 5.29576C29.4475 5.22175 28.8211 5.27931 28.17 5.27931C28.17 6.14275 28.17 6.99796 28.17 7.84496C27.2799 7.84496 26.431 7.84496 25.5409 7.84496C25.5409 6.96507 25.5409 6.10986 25.5409 5.25464C19.7388 5.25464 13.9779 5.25464 8.18398 5.25464C8.16749 6.10986 8.16749 6.96507 8.16749 7.83673Z" fill="#3DCAB1"/>
<path d="M24.1551 33.6003C23.298 33.3947 22.3996 33.2878 21.5837 32.9671C18.8804 31.8981 17.0425 29.9492 16.2843 27.1451C15.32 23.5844 16.2678 20.4843 19.0288 18.0338C21.0397 16.2575 23.4463 15.5668 26.1166 15.9862C29.3144 16.4878 31.6303 18.2476 32.9242 21.1915C34.2346 24.1765 33.9215 27.0958 32.0753 29.793C30.7319 31.7583 28.8364 32.9507 26.4957 33.4276C26.1578 33.5016 25.8034 33.5428 25.4573 33.6003C25.0287 33.6003 24.5919 33.6003 24.1551 33.6003ZM24.8144 30.9689C28.2594 30.9689 31.0698 28.1483 31.0616 24.7192C31.0534 21.2984 28.2512 18.5025 24.8227 18.4943C21.3859 18.486 18.559 21.2902 18.559 24.7275C18.559 28.1648 21.3776 30.9771 24.8144 30.9689Z" fill="#3DCAB1"/>
<path d="M5.01172 17.6881C5.01172 16.8164 5.01172 15.9776 5.01172 15.106C5.87709 15.106 6.73423 15.106 7.61609 15.106C7.61609 15.953 7.61609 16.8082 7.61609 17.6881C6.75895 17.6881 5.89358 17.6881 5.01172 17.6881Z" fill="#3DCAB1"/>
<path d="M12.8735 17.6963C11.9999 17.6963 11.151 17.6963 10.2774 17.6963C10.2774 16.8329 10.2774 15.9859 10.2774 15.1143C11.1263 15.1143 11.9916 15.1143 12.8735 15.1143C12.8735 15.953 12.8735 16.8082 12.8735 17.6963Z" fill="#3DCAB1"/>
<path d="M15.5508 17.688C15.5508 16.8081 15.5508 15.9611 15.5508 15.0977C16.4162 15.0977 17.265 15.0977 18.1387 15.0977C18.1387 15.9529 18.1387 16.8081 18.1387 17.688C17.2898 17.688 16.4326 17.688 15.5508 17.688Z" fill="#3DCAB1"/>
<path d="M5.02744 20.3525C5.90105 20.3525 6.74994 20.3525 7.61532 20.3525C7.61532 21.2159 7.61532 22.0629 7.61532 22.9346C6.76643 22.9346 5.90929 22.9346 5.02744 22.9346C5.02744 22.0876 5.02744 21.2324 5.02744 20.3525Z" fill="#3DCAB1"/>
<path d="M10.293 20.3525C11.1666 20.3525 12.0155 20.3525 12.8809 20.3525C12.8809 21.216 12.8809 22.063 12.8809 22.9346C12.032 22.9346 11.1748 22.9346 10.293 22.9346C10.293 22.0876 10.293 21.2324 10.293 20.3525Z" fill="#3DCAB1"/>
<path d="M7.62304 25.6069C7.62304 26.4786 7.62304 27.3256 7.62304 28.189C6.75767 28.189 5.90877 28.189 5.03516 28.189C5.03516 27.342 5.03516 26.4786 5.03516 25.6069C5.87581 25.6069 6.73294 25.6069 7.62304 25.6069Z" fill="#3DCAB1"/>
<path d="M10.2852 28.1892C10.2852 27.3176 10.2852 26.4706 10.2852 25.6071C11.1505 25.6071 11.9994 25.6071 12.873 25.6071C12.873 26.4541 12.873 27.3094 12.873 28.1892C12.0241 28.1892 11.167 28.1892 10.2852 28.1892Z" fill="#3DCAB1"/>
<path d="M26.0599 23.4115C26.8181 23.4115 27.5351 23.4115 28.2769 23.4115C28.2769 24.2914 28.2769 25.1466 28.2769 26.0265C26.6698 26.0265 25.0709 26.0265 23.4473 26.0265C23.4473 24.1352 23.4473 22.2603 23.4473 20.3607C24.3044 20.3607 25.1615 20.3607 26.0599 20.3607C26.0599 21.3722 26.0599 22.3754 26.0599 23.4115Z" fill="#3DCAB1"/>
</svg>
