<svg xmlns="http://www.w3.org/2000/svg" width="544" height="505" viewBox="0 0 544 505" fill="none"><path d="M477.8 444.16C486.429 451.088 491.948 460.654 486.111 467.877C480.275 475.1 468.592 475.322 459.906 468.406C451.277 461.478 447.539 440.727 453.376 433.504C459.269 426.269 469.159 437.175 477.8 444.16Z" fill="#090B34"></path><path d="M285.327 404.561C338.994 417.759 385.712 442.345 378.587 471.193C371.521 500.041 322.234 512.714 268.567 499.516C214.958 486.318 148.735 424.533 155.859 395.685C162.925 366.837 231.718 391.364 285.327 404.561Z" fill="#090B34"></path><path d="M543.035 249.75C540.582 225.456 531.764 202.039 515.529 183.41C488.608 152.459 450.183 144.926 418.998 122.501C387.464 99.9016 363.871 65.6806 336.775 36.6571C270.318 -34.5879 178.634 10.6702 119.653 65.3887C60.6713 119.99 1.63139 210.506 40.3489 304.818C74.9202 389.028 166.896 370.574 230.141 384.881C305.474 401.933 377.536 435.979 452.226 401.057C478.097 388.969 502.507 370.924 520.026 344.821C537.837 318.25 546.422 283.153 543.035 249.75Z" fill="#090B34"></path><path d="M205.497 74.7323C175.48 76.6594 145.464 74.8491 114.455 79.6961C76.2631 85.6526 36.144 105.391 15.2961 139.495C-10.5156 181.717 8.17164 229.252 35.7937 264.991C60.7294 297.285 91.9721 324.615 115.156 358.252C151.596 411.044 175.305 463.134 241.061 484.566C338.877 516.451 455.088 452.506 456.431 341.609C456.723 318.425 451.642 295.241 454.562 272.174C460.752 222.712 505.66 189.6 517.923 142.357C532.114 87.5214 491.177 45.4752 442.357 30.3502C377.361 10.2031 320.949 44.7744 260.274 65.0383C241.82 71.0533 223.658 73.5644 205.497 74.7323Z" stroke="url(#paint0_linear_2_806)" stroke-width="5.3382" stroke-miterlimit="10" stroke-linecap="round" stroke-linejoin="round" stroke-dasharray="22.24 22.24"></path><path d="M219.848 54.563C208.636 54.563 199.468 45.453 199.468 34.1822C199.468 22.9115 208.578 13.8015 219.848 13.8015C231.061 13.8015 240.229 22.9115 240.229 34.1822C240.229 45.453 231.061 54.563 219.848 54.563ZM219.848 16.955C210.388 16.955 202.68 24.6634 202.68 34.1238C202.68 43.5842 210.388 51.2927 219.848 51.2927C229.309 51.2927 237.017 43.5842 237.017 34.1238C237.017 24.6634 229.309 16.955 219.848 16.955Z" fill="url(#paint1_linear_2_806)"></path><path d="M90.8041 385.641C90.0449 385.641 89.4609 385.057 89.4609 384.297V372.268C89.4609 371.508 90.0449 370.924 90.8041 370.924C91.5632 370.924 92.1472 371.508 92.1472 372.268V384.297C92.1472 384.998 91.5632 385.641 90.8041 385.641Z" fill="url(#paint2_linear_2_806)"></path><path d="M85.1387 387.976C84.6132 388.502 83.7956 388.502 83.27 387.976L74.8024 379.509C74.2768 378.983 74.2768 378.166 74.8024 377.64C75.328 377.115 76.1455 377.115 76.6711 377.64L85.1387 386.108C85.6643 386.633 85.6643 387.451 85.1387 387.976Z" fill="url(#paint3_linear_2_806)"></path><path d="M82.7446 393.699C82.7446 394.458 82.1606 395.042 81.4014 395.042H69.3715C68.6124 395.042 68.0284 394.458 68.0284 393.699C68.0284 392.94 68.6124 392.356 69.3715 392.356H81.4014C82.1606 392.356 82.7446 392.94 82.7446 393.699Z" fill="url(#paint4_linear_2_806)"></path><path d="M85.1387 399.364C85.6643 399.89 85.6643 400.707 85.1387 401.233L76.6711 409.7C76.1455 410.226 75.328 410.226 74.8024 409.7C74.2768 409.175 74.2768 408.357 74.8024 407.832L83.27 399.364C83.7372 398.838 84.6132 398.838 85.1387 399.364Z" fill="url(#paint5_linear_2_806)"></path><path d="M90.8041 401.758C91.5632 401.758 92.1472 402.342 92.1472 403.101V415.131C92.1472 415.891 91.5632 416.475 90.8041 416.475C90.0449 416.475 89.4609 415.891 89.4609 415.131V403.101C89.4609 402.342 90.1033 401.758 90.8041 401.758Z" fill="url(#paint6_linear_2_806)"></path><path d="M96.5261 399.364C97.0517 398.838 97.8692 398.838 98.3948 399.364L106.862 407.832C107.388 408.357 107.388 409.175 106.862 409.7C106.337 410.226 105.519 410.226 104.994 409.7L96.5261 401.233C96.0005 400.766 96.0005 399.89 96.5261 399.364Z" fill="url(#paint7_linear_2_806)"></path><path d="M98.8623 393.699C98.8623 392.94 99.4463 392.356 100.205 392.356H112.235C112.995 392.356 113.578 392.94 113.578 393.699C113.578 394.459 112.995 395.042 112.235 395.042H100.205C99.5047 395.042 98.8623 394.4 98.8623 393.699Z" fill="url(#paint8_linear_2_806)"></path><path d="M96.5261 387.976C96.0005 387.451 96.0005 386.633 96.5261 386.108L104.994 377.64C105.519 377.115 106.337 377.115 106.862 377.64C107.388 378.166 107.388 378.983 106.862 379.509L98.3948 387.976C97.8692 388.502 97.0517 388.502 96.5261 387.976Z" fill="url(#paint9_linear_2_806)"></path><path d="M503.44 275.152C502.564 275.152 501.864 274.452 501.864 273.576V242.917C501.864 242.041 502.564 241.34 503.44 241.34C504.316 241.34 505.017 242.041 505.017 242.917V273.576C505.076 274.452 504.316 275.152 503.44 275.152Z" fill="url(#paint10_linear_2_806)"></path><path d="M518.799 259.852H488.14C487.264 259.852 486.564 259.152 486.564 258.276C486.564 257.4 487.264 256.699 488.14 256.699H518.799C519.675 256.699 520.376 257.4 520.376 258.276C520.376 259.152 519.675 259.852 518.799 259.852Z" fill="url(#paint11_linear_2_806)"></path><path d="M477.826 402.369C487.62 397.103 498.549 395.78 502.903 403.968C507.315 412.145 502.912 423.014 493.118 428.28C483.324 433.546 462.812 428.844 458.458 420.656C454.104 412.467 468.032 407.636 477.826 402.369Z" fill="#090B34"></path><path d="M399.502 494.051C403.286 492.483 405.083 488.144 403.515 484.36C401.948 480.576 397.609 478.779 393.825 480.346C390.041 481.914 388.244 486.252 389.811 490.037C391.379 493.821 395.717 495.618 399.502 494.051Z" fill="url(#paint12_linear_2_806)"></path><path d="M116.146 276.111C122.327 249.754 142.538 229.056 168.272 222.725C185.96 218.37 202.934 220.709 217.287 227.753C222.038 230.092 227.701 227.445 229.018 222.207C241.703 171.847 286.33 134.636 339.452 134.636C402.441 134.636 453.502 186.944 453.502 251.477C453.502 253.186 453.474 255.524 453.445 257.779C453.67 262.611 455.73 264.655 458.8 265.173C483.482 267.806 502.867 288.645 503.946 314.358C505.179 343.879 481.73 368.331 452.899 368.331H186.143C140.478 368.331 104.723 324.861 116.146 276.111Z" fill="url(#paint13_linear_2_806)"></path><path opacity="0.21" d="M136.806 285.998C142.328 262.457 160.367 243.985 183.354 238.327C199.15 234.447 214.301 236.52 227.112 242.822C231.359 244.909 236.405 242.542 237.582 237.878C248.907 192.91 288.755 159.691 336.186 159.691C392.419 159.691 438.014 206.396 438.014 264.011C438.014 265.538 437.986 267.624 437.958 269.641C438.154 273.954 439.99 275.775 442.737 276.237C464.771 278.59 482.095 297.202 483.048 320.156C484.155 346.512 463.215 368.346 437.467 368.346H199.304C158.531 368.331 126.602 329.525 136.806 285.998Z" fill="#5132EF"></path><path d="M167.782 399.912C167.782 402.069 169.548 403.833 171.72 403.833H384.486C386.645 403.833 388.425 402.069 388.425 399.912L390.191 277.75C390.191 275.593 387.64 271.378 382.972 271.686L175.042 266.308C172.323 266.238 169.702 267.288 167.782 269.193C165.862 271.111 164.81 273.73 164.866 276.433L167.782 399.912Z" fill="black"></path><path d="M171.664 396.145C171.664 398.189 173.346 399.87 175.392 399.87H379.356C381.402 399.87 383.084 398.189 383.084 396.145L384.752 285.242C384.556 278.562 378.697 276.167 375.151 276.307L175.869 270.971C173.962 270.915 172.112 271.658 170.767 273.002C169.421 274.347 168.678 276.195 168.72 278.1L171.664 396.145Z" fill="#0050CC"></path><path d="M380.87 343.459C380.87 343.459 380.856 343.459 380.87 343.459C380.561 343.459 380.323 343.207 380.323 342.899L380.449 333.908C380.449 333.614 380.702 333.376 380.996 333.376C381.304 333.376 381.543 333.628 381.543 333.936L381.416 342.927C381.402 343.221 381.164 343.459 380.87 343.459Z" fill="white"></path><path d="M381.192 321.416C380.884 321.416 380.646 321.164 380.646 320.856L381.15 286.405C381.136 284.36 380.52 282.721 379.3 281.559C377.03 279.388 373.427 279.5 373.273 279.5L309.57 277.792C309.275 277.778 309.037 277.54 309.037 277.231C309.051 276.937 309.275 276.671 309.598 276.699L373.259 278.408C373.652 278.38 377.492 278.324 380.057 280.761C381.501 282.133 382.23 284.038 382.244 286.405L381.739 320.87C381.739 321.178 381.487 321.416 381.192 321.416Z" fill="white"></path><path d="M151.312 413.987H400.562C400.997 413.987 401.361 413.636 401.361 413.188V404.043C401.361 403.609 401.011 403.245 400.562 403.245H151.312C150.878 403.245 150.513 403.595 150.513 404.043V413.188C150.513 413.622 150.878 413.987 151.312 413.987Z" fill="#181C59"></path><path d="M260.149 394.45H181.63C178.728 394.45 176.388 392.111 176.388 389.212V286.797C176.388 283.828 178.855 281.447 181.826 281.559L260.359 284.556C263.176 284.668 265.405 286.979 265.405 289.794V389.212C265.391 392.111 263.05 394.45 260.149 394.45Z" fill="#2371EB"></path><path opacity="0.51" d="M244.534 328.642H192.52C192.114 328.642 191.777 328.306 191.777 327.9V322.48C191.777 322.074 192.114 321.738 192.52 321.738H244.534C244.941 321.738 245.277 322.074 245.277 322.48V327.9C245.277 328.306 244.941 328.642 244.534 328.642Z" fill="white"></path><path opacity="0.51" d="M244.632 339.678H192.618C192.211 339.678 191.875 339.342 191.875 338.936V333.516C191.875 333.11 192.211 332.774 192.618 332.774H244.632C245.038 332.774 245.375 333.11 245.375 333.516V338.936C245.389 339.342 245.052 339.678 244.632 339.678Z" fill="white"></path><path opacity="0.51" d="M244.954 350.938H192.94C192.534 350.938 192.197 350.602 192.197 350.196V344.776C192.197 344.37 192.534 344.034 192.94 344.034H244.954C245.361 344.034 245.697 344.37 245.697 344.776V350.196C245.697 350.602 245.361 350.938 244.954 350.938Z" fill="white"></path><path opacity="0.51" d="M245.053 361.973H193.039C192.632 361.973 192.296 361.637 192.296 361.231V355.811C192.296 355.405 192.632 355.069 193.039 355.069H245.053C245.459 355.069 245.795 355.405 245.795 355.811V361.231C245.809 361.637 245.473 361.973 245.053 361.973Z" fill="white"></path><path opacity="0.51" d="M358.611 328.642H283.176C282.77 328.642 282.433 328.306 282.433 327.9V322.48C282.433 322.074 282.77 321.738 283.176 321.738H358.611C359.018 321.738 359.354 322.074 359.354 322.48V327.9C359.354 328.306 359.018 328.642 358.611 328.642Z" fill="white"></path><path opacity="0.51" d="M358.85 339.678H283.415C283.008 339.678 282.672 339.342 282.672 338.936V333.516C282.672 333.11 283.008 332.774 283.415 332.774H358.85C359.256 332.774 359.593 333.11 359.593 333.516V338.936C359.593 339.342 359.256 339.678 358.85 339.678Z" fill="white"></path><path opacity="0.51" d="M327.509 350.938H283.415C283.008 350.938 282.672 350.602 282.672 350.195V344.776C282.672 344.37 283.008 344.033 283.415 344.033H327.509C327.916 344.033 328.252 344.37 328.252 344.776V350.195C328.252 350.602 327.916 350.938 327.509 350.938Z" fill="white"></path><g opacity="0.51"><path opacity="0.51" d="M323.263 295.984H322.086C321.497 295.984 321.035 295.507 321.035 294.933V290.928C321.035 289.499 319.871 288.337 318.442 288.337H311.181C309.752 288.337 308.588 289.499 308.588 290.928V294.933C308.588 295.521 308.112 295.984 307.537 295.984H306.36C305.771 295.984 305.309 295.507 305.309 294.933V290.928C305.309 287.679 307.944 285.06 311.181 285.06H318.442C321.694 285.06 324.315 287.693 324.315 290.928V294.933C324.315 295.521 323.852 295.984 323.263 295.984Z" fill="white"></path><path opacity="0.51" d="M324.721 296.936H304.902C303.682 296.936 302.701 297.916 302.701 299.135V314.316C302.701 315.534 303.682 316.514 304.902 316.514H324.707C325.926 316.514 326.907 315.534 326.907 314.316V299.121C326.921 297.916 325.926 296.936 324.721 296.936ZM317.643 311.613C317.769 312.131 317.376 312.621 316.858 312.621H312.779C312.246 312.621 311.868 312.131 311.994 311.613L312.947 307.649C311.826 306.977 311.083 305.717 311.167 304.302C311.265 302.468 312.751 300.955 314.601 300.843C316.732 300.717 318.512 302.398 318.512 304.498C318.512 305.843 317.797 307.005 316.718 307.649L317.643 311.613Z" fill="white"></path></g><path d="M380.927 118.643C380.842 118.643 380.772 118.629 380.702 118.587C380.478 118.461 380.394 118.167 380.52 117.943C380.828 117.397 381.123 116.851 381.403 116.29C381.529 116.052 381.81 115.968 382.034 116.094C382.272 116.22 382.356 116.5 382.23 116.725C381.936 117.285 381.641 117.845 381.333 118.405C381.263 118.559 381.095 118.643 380.927 118.643Z" fill="#91B3FA"></path><path d="M325.73 151.106C325.45 151.106 325.17 151.106 324.889 151.106C324.623 151.106 324.427 150.882 324.427 150.63C324.427 150.378 324.637 150.168 324.903 150.168C326.123 150.182 327.356 150.168 328.576 150.112C328.814 150.098 329.052 150.308 329.066 150.56C329.08 150.826 328.87 151.036 328.618 151.05C327.664 151.092 326.697 151.106 325.73 151.106ZM318.904 150.742C318.89 150.742 318.876 150.742 318.848 150.742C317.615 150.602 316.367 150.434 315.162 150.238C314.91 150.196 314.728 149.958 314.77 149.691C314.812 149.439 315.064 149.257 315.316 149.299C316.522 149.495 317.741 149.663 318.96 149.803C319.213 149.831 319.409 150.07 319.381 150.322C319.339 150.56 319.143 150.742 318.904 150.742ZM334.588 150.49C334.35 150.49 334.154 150.322 334.126 150.084C334.084 149.831 334.266 149.593 334.532 149.551C335.738 149.383 336.957 149.173 338.149 148.935C338.401 148.879 338.653 149.047 338.709 149.299C338.765 149.551 338.597 149.803 338.345 149.859C337.125 150.098 335.892 150.308 334.673 150.49C334.631 150.49 334.602 150.49 334.588 150.49ZM309.359 148.963C309.317 148.963 309.275 148.963 309.233 148.949C308.042 148.627 306.836 148.277 305.659 147.885C305.407 147.801 305.281 147.535 305.365 147.283C305.449 147.031 305.715 146.905 305.967 146.989C307.131 147.367 308.308 147.731 309.485 148.039C309.738 148.109 309.892 148.361 309.822 148.613C309.766 148.823 309.57 148.963 309.359 148.963ZM344.063 148.403C343.867 148.403 343.671 148.277 343.615 148.067C343.545 147.815 343.685 147.549 343.923 147.479C345.087 147.129 346.264 146.736 347.399 146.316C347.638 146.232 347.918 146.344 348.002 146.596C348.086 146.834 347.974 147.115 347.722 147.199C346.558 147.619 345.367 148.025 344.19 148.389C344.162 148.389 344.105 148.403 344.063 148.403ZM300.207 145.742C300.137 145.742 300.081 145.728 300.011 145.7C298.875 145.196 297.74 144.664 296.647 144.104C296.408 143.992 296.324 143.697 296.436 143.473C296.563 143.249 296.843 143.151 297.067 143.263C298.146 143.823 299.268 144.356 300.375 144.846C300.613 144.944 300.725 145.224 300.613 145.462C300.557 145.644 300.389 145.742 300.207 145.742ZM353.104 144.874C352.922 144.874 352.753 144.776 352.683 144.608C352.571 144.37 352.669 144.09 352.908 143.978C354.001 143.445 355.108 142.885 356.173 142.283C356.398 142.157 356.692 142.241 356.818 142.465C356.944 142.689 356.86 142.983 356.636 143.109C355.557 143.711 354.435 144.286 353.328 144.832C353.244 144.86 353.174 144.874 353.104 144.874ZM291.657 141.163C291.573 141.163 291.475 141.135 291.405 141.093C290.367 140.42 289.33 139.72 288.335 138.992C288.125 138.838 288.083 138.544 288.237 138.334C288.391 138.124 288.685 138.082 288.896 138.236C289.877 138.95 290.9 139.65 291.923 140.308C292.147 140.448 292.204 140.742 292.063 140.967C291.965 141.093 291.811 141.163 291.657 141.163ZM361.5 140C361.345 140 361.205 139.93 361.107 139.79C360.953 139.58 361.009 139.286 361.233 139.132C362.242 138.446 363.238 137.703 364.191 136.961C364.401 136.807 364.695 136.835 364.849 137.045C365.004 137.255 364.976 137.549 364.765 137.703C363.784 138.46 362.775 139.202 361.752 139.902C361.682 139.972 361.598 140 361.5 140ZM283.92 135.323C283.808 135.323 283.696 135.281 283.612 135.211C282.687 134.398 281.775 133.53 280.892 132.662C280.71 132.48 280.71 132.186 280.892 131.99C281.075 131.808 281.369 131.808 281.565 131.99C282.434 132.844 283.331 133.698 284.242 134.496C284.439 134.664 284.453 134.973 284.284 135.169C284.186 135.267 284.06 135.323 283.92 135.323ZM369.054 133.908C368.928 133.908 368.802 133.852 368.718 133.754C368.536 133.558 368.55 133.264 368.732 133.082C369.615 132.242 370.498 131.373 371.325 130.491C371.507 130.309 371.801 130.295 371.998 130.477C372.194 130.659 372.194 130.953 372.012 131.149C371.157 132.046 370.274 132.928 369.377 133.782C369.279 133.866 369.166 133.908 369.054 133.908ZM277.164 128.362C277.024 128.362 276.898 128.306 276.8 128.194C276.015 127.242 275.23 126.262 274.501 125.267C274.347 125.057 274.389 124.763 274.599 124.609C274.809 124.455 275.104 124.497 275.258 124.707C275.987 125.688 276.744 126.654 277.529 127.592C277.697 127.788 277.669 128.096 277.472 128.25C277.374 128.32 277.276 128.362 277.164 128.362ZM375.572 126.738C375.474 126.738 375.376 126.71 375.277 126.64C375.067 126.486 375.039 126.178 375.193 125.982C375.95 125.015 376.679 124.021 377.366 123.027C377.52 122.817 377.814 122.761 378.025 122.901C378.235 123.055 378.291 123.349 378.151 123.559C377.45 124.567 376.707 125.589 375.95 126.57C375.852 126.668 375.726 126.738 375.572 126.738ZM271.544 120.45C271.389 120.45 271.221 120.366 271.137 120.226C270.492 119.161 269.89 118.069 269.315 116.977C269.189 116.753 269.287 116.458 269.511 116.346C269.736 116.22 270.03 116.318 270.142 116.543C270.703 117.621 271.305 118.699 271.936 119.736C272.076 119.96 271.992 120.254 271.768 120.38C271.712 120.436 271.628 120.45 271.544 120.45ZM267.213 111.781C267.03 111.781 266.848 111.669 266.778 111.487C266.316 110.338 265.867 109.162 265.475 108C265.391 107.748 265.517 107.482 265.769 107.397C266.007 107.313 266.288 107.44 266.372 107.692C266.764 108.84 267.199 110.002 267.647 111.137C267.745 111.375 267.633 111.655 267.381 111.753C267.325 111.767 267.269 111.781 267.213 111.781Z" fill="#91B3FA"></path><path d="M264.255 102.51C264.045 102.51 263.849 102.37 263.793 102.146C263.652 101.53 263.512 100.913 263.386 100.297C263.33 100.045 263.498 99.793 263.751 99.737C264.003 99.6809 264.255 99.849 264.311 100.101C264.437 100.717 264.563 101.319 264.718 101.922C264.774 102.174 264.62 102.426 264.367 102.482C264.325 102.51 264.283 102.51 264.255 102.51Z" fill="#91B3FA"></path><path d="M272.258 54.432C272.174 54.432 272.09 54.404 272.006 54.362C271.781 54.222 271.725 53.9279 271.851 53.7178C272.188 53.1856 272.538 52.6534 272.889 52.1213C273.029 51.9112 273.323 51.8412 273.547 51.9952C273.758 52.1353 273.828 52.4294 273.674 52.6534C273.323 53.1716 272.987 53.6898 272.65 54.222C272.566 54.362 272.412 54.432 272.258 54.432Z" fill="#91B3FA"></path><path d="M386.294 70.2292C386.083 70.2292 385.901 70.0892 385.845 69.8931C385.481 68.6607 385.074 67.4283 384.64 66.2239C384.556 65.9858 384.682 65.7057 384.92 65.6217C385.158 65.5377 385.439 65.6637 385.523 65.9018C385.971 67.1202 386.378 68.3806 386.742 69.627C386.812 69.8791 386.672 70.1452 386.42 70.2152C386.392 70.2152 386.336 70.2292 386.294 70.2292ZM382.635 60.7061C382.453 60.7061 382.285 60.6081 382.215 60.44C381.654 59.2776 381.066 58.1292 380.435 57.0229C380.309 56.7988 380.393 56.5047 380.617 56.3787C380.841 56.2526 381.136 56.3366 381.262 56.5607C381.893 57.6951 382.509 58.8575 383.07 60.0339C383.182 60.2719 383.084 60.552 382.846 60.6641C382.776 60.6921 382.706 60.7061 382.635 60.7061ZM377.492 51.9112C377.337 51.9112 377.197 51.8412 377.099 51.7151C376.37 50.6648 375.585 49.6284 374.786 48.6201C374.618 48.41 374.66 48.1159 374.856 47.9619C375.067 47.7938 375.361 47.8358 375.515 48.0319C376.328 49.0542 377.113 50.1046 377.856 51.1689C378.01 51.379 377.954 51.6731 377.744 51.8272C377.674 51.8832 377.576 51.9112 377.492 51.9112ZM277.065 47.7938C276.953 47.7938 276.855 47.7518 276.771 47.6818C276.575 47.5137 276.547 47.2196 276.715 47.0236C277.542 46.0293 278.411 45.0349 279.308 44.0826C279.49 43.8865 279.785 43.8865 279.981 44.0546C280.177 44.2367 280.177 44.5308 280.009 44.7268C279.126 45.6651 278.271 46.6315 277.458 47.6118C277.346 47.7378 277.206 47.7938 277.065 47.7938ZM370.988 44.0546C370.862 44.0546 370.736 44.0126 370.652 43.9146C369.769 43.0043 368.83 42.094 367.876 41.2257C367.68 41.0436 367.666 40.7495 367.848 40.5534C368.031 40.3574 368.325 40.3434 368.521 40.5254C369.488 41.4077 370.427 42.318 371.338 43.2563C371.521 43.4384 371.521 43.7465 371.324 43.9286C371.226 44.0126 371.1 44.0546 370.988 44.0546ZM284.2 40.4974C284.074 40.4974 283.933 40.4414 283.849 40.3294C283.681 40.1333 283.695 39.8392 283.891 39.6572C284.873 38.8029 285.896 37.9626 286.919 37.1643C287.129 37.0103 287.423 37.0383 287.578 37.2484C287.732 37.4584 287.704 37.7525 287.494 37.9066C286.484 38.6908 285.475 39.5171 284.508 40.3574C284.41 40.4554 284.298 40.4974 284.2 40.4974ZM363.321 37.3324C363.223 37.3324 363.125 37.3044 363.041 37.2344C362.018 36.4641 360.952 35.7359 359.873 35.0356C359.649 34.8956 359.593 34.6015 359.733 34.3774C359.873 34.1533 360.167 34.0973 360.392 34.2374C361.485 34.9516 362.564 35.6938 363.601 36.4781C363.812 36.6322 363.854 36.9263 363.7 37.1363C363.601 37.2764 363.461 37.3324 363.321 37.3324ZM292.399 34.4334C292.245 34.4334 292.091 34.3494 291.993 34.2094C291.853 33.9853 291.923 33.6912 292.147 33.5651C293.254 32.8789 294.389 32.2207 295.539 31.6045C295.763 31.4785 296.057 31.5625 296.184 31.8006C296.31 32.0246 296.226 32.3187 295.987 32.4448C294.852 33.047 293.731 33.7052 292.651 34.3774C292.567 34.4054 292.483 34.4334 292.399 34.4334ZM354.659 31.9406C354.589 31.9406 354.519 31.9266 354.449 31.8846C353.314 31.2964 352.136 30.7362 350.959 30.218C350.721 30.12 350.608 29.8399 350.721 29.6018C350.819 29.3638 351.099 29.2517 351.337 29.3638C352.529 29.8819 353.72 30.4561 354.869 31.0443C355.108 31.1704 355.192 31.4504 355.066 31.6745C354.996 31.8566 354.841 31.9406 354.659 31.9406ZM301.468 29.7559C301.285 29.7559 301.103 29.6439 301.033 29.4618C300.935 29.2237 301.047 28.9436 301.285 28.8456C302.491 28.3414 303.71 27.8793 304.944 27.4591C305.196 27.3751 305.462 27.5011 305.546 27.7532C305.63 28.0053 305.504 28.2714 305.252 28.3554C304.033 28.7756 302.827 29.2377 301.636 29.7279C301.594 29.7559 301.524 29.7559 301.468 29.7559ZM345.254 28.0193C345.212 28.0193 345.156 28.0053 345.114 27.9913C343.895 27.5992 342.647 27.2351 341.414 26.913C341.162 26.8429 341.007 26.5908 341.077 26.3388C341.148 26.0867 341.4 25.9326 341.652 26.0027C342.914 26.3248 344.175 26.6889 345.408 27.095C345.661 27.179 345.787 27.4451 345.717 27.6832C345.633 27.8933 345.45 28.0193 345.254 28.0193ZM311.167 26.6189C310.957 26.6189 310.76 26.4788 310.704 26.2547C310.648 26.0027 310.802 25.7506 311.055 25.6805C312.33 25.3864 313.62 25.1204 314.895 24.8963C315.162 24.8543 315.4 25.0223 315.442 25.2744C315.484 25.5265 315.316 25.7786 315.063 25.8206C313.802 26.0307 312.526 26.2967 311.279 26.5908C311.251 26.6189 311.209 26.6189 311.167 26.6189ZM335.331 25.6805C335.303 25.6805 335.289 25.6805 335.261 25.6805C333.999 25.4845 332.71 25.3304 331.434 25.2184C331.168 25.1904 330.986 24.9663 331.014 24.7002C331.042 24.4341 331.266 24.2521 331.532 24.2801C332.822 24.3921 334.139 24.5602 335.429 24.7562C335.681 24.7983 335.863 25.0363 335.821 25.2884C335.751 25.5125 335.555 25.6805 335.331 25.6805ZM321.259 25.0924C321.006 25.0924 320.81 24.8963 320.782 24.6582C320.768 24.3921 320.964 24.168 321.216 24.154C322.506 24.056 323.824 24.014 325.127 24C325.379 24 325.604 24.2101 325.604 24.4621C325.604 24.7282 325.393 24.9383 325.141 24.9383C323.852 24.9523 322.562 24.9943 321.287 25.0924C321.287 25.0924 321.273 25.0924 321.259 25.0924Z" fill="#91B3FA"></path><path d="M388.087 78.2539C387.863 78.2539 387.653 78.0858 387.625 77.8617C387.527 77.2455 387.429 76.6293 387.302 76.0131C387.26 75.761 387.429 75.509 387.681 75.4669C387.933 75.4249 388.185 75.593 388.228 75.8451C388.34 76.4613 388.452 77.0915 388.55 77.7217C388.592 77.9738 388.41 78.2259 388.157 78.2539C388.143 78.2539 388.115 78.2539 388.087 78.2539Z" fill="#91B3FA"></path><path d="M374.198 86.1385C374.226 85.8164 374.044 85.5083 373.75 85.3822L365.284 81.713C364.625 77.4556 363.294 73.2822 361.261 69.3469L365.929 61.4063C366.097 61.1262 366.055 60.7761 365.844 60.524L358.654 52.1213C358.444 51.8692 358.108 51.7852 357.799 51.9112L349.221 55.2863C345.647 52.6674 341.723 50.6928 337.616 49.3904L335.289 40.4694C335.205 40.1613 334.939 39.9232 334.616 39.9092L323.586 39.055C323.263 39.027 322.955 39.209 322.829 39.5031L319.157 47.9619C314.896 48.6201 310.719 49.9506 306.78 51.9812L298.833 47.3177C298.553 47.1496 298.202 47.1916 297.95 47.4017L289.54 54.5861C289.288 54.7961 289.204 55.1323 289.33 55.4404L292.708 64.0112C290.087 67.5824 288.111 71.5037 286.807 75.607L277.879 77.9318C277.57 78.0158 277.346 78.2819 277.318 78.604L276.463 89.6256C276.435 89.9477 276.617 90.2558 276.912 90.3819L285.377 94.0511C286.036 98.3085 287.368 102.482 289.4 106.417L284.733 114.358C284.565 114.638 284.607 114.988 284.817 115.24L292.007 123.643C292.217 123.895 292.554 123.979 292.862 123.853L301.44 120.478C305.014 123.097 308.939 125.071 313.045 126.374L315.372 135.295C315.456 135.603 315.723 135.841 316.045 135.855L327.076 136.709C327.398 136.737 327.706 136.555 327.833 136.261L331.505 127.802C335.766 127.144 339.943 125.814 343.881 123.783L351.828 128.446C352.109 128.614 352.459 128.572 352.711 128.362L361.121 121.178C361.373 120.968 361.457 120.632 361.331 120.324L357.953 111.753C360.574 108.182 362.551 104.26 363.854 100.157L372.782 97.8323C373.091 97.7483 373.329 97.4822 373.343 97.1601L374.198 86.1385Z" fill="#0050CC"></path><path opacity="0.7" d="M325.31 98.4065C323.151 98.4065 321.049 97.7483 319.255 96.4739C314.517 93.1268 313.382 86.5446 316.746 81.8111C318.372 79.5143 320.797 77.9878 323.572 77.5116C326.347 77.0355 329.136 77.6657 331.435 79.2902C333.734 80.9148 335.261 83.3376 335.738 86.1105C336.214 88.8834 335.584 91.6703 333.958 93.9671C332.332 96.2638 329.907 97.7903 327.132 98.2665C326.515 98.3505 325.913 98.4065 325.31 98.4065ZM325.352 78.7721C324.833 78.7721 324.315 78.8141 323.796 78.9121C321.399 79.3182 319.297 80.6487 317.895 82.6233C314.994 86.7267 315.961 92.4126 320.068 95.3255C322.058 96.726 324.469 97.2722 326.866 96.866C329.262 96.4599 331.365 95.1294 332.766 93.1548C334.168 91.1661 334.715 88.7573 334.308 86.3626C333.902 83.9678 332.57 81.8671 330.594 80.4666C329.052 79.3462 327.23 78.7721 325.352 78.7721Z" fill="white"></path><path opacity="0.7" d="M325.142 115.268C324.427 115.268 323.698 115.24 322.969 115.184C315.667 114.61 309.037 111.249 304.272 105.689C299.983 100.689 297.684 94.4572 297.684 87.9311C297.684 87.2168 297.712 86.4886 297.768 85.7603C298.343 78.4639 301.707 71.8398 307.271 67.0782C312.835 62.3306 319.914 60.0199 327.216 60.594C334.518 61.1682 341.148 64.5293 345.914 70.0892C347.189 71.5737 348.296 73.1842 349.221 74.8928L347.974 75.565C347.105 73.9545 346.04 72.4139 344.834 71.0135C340.321 65.7477 334.028 62.5407 327.104 62.0085C320.18 61.4763 313.466 63.6611 308.196 68.1705C302.926 72.68 299.716 78.9681 299.184 85.8864C299.128 86.5726 299.1 87.2588 299.1 87.9451C299.1 94.1211 301.272 100.031 305.337 104.779C309.85 110.044 316.143 113.251 323.067 113.784C329.991 114.316 336.705 112.131 341.975 107.622C345.549 104.569 348.24 100.591 349.726 96.1518L351.072 96.5999C349.502 101.277 346.685 105.465 342.9 108.686C337.91 112.971 331.673 115.268 325.142 115.268Z" fill="white"></path><path d="M434.16 134.118C434.076 134.118 433.991 134.09 433.921 134.048C433.697 133.922 433.627 133.628 433.753 133.404C434.076 132.872 434.37 132.326 434.65 131.78C434.776 131.541 435.057 131.457 435.281 131.583C435.519 131.709 435.603 131.99 435.477 132.214C435.183 132.774 434.874 133.334 434.552 133.88C434.468 134.034 434.314 134.118 434.16 134.118Z" fill="#91B3FA"></path><path d="M403.703 149.902C403.689 149.902 403.675 149.902 403.661 149.902C402.386 149.803 401.096 149.621 399.835 149.369C399.582 149.313 399.414 149.075 399.456 148.809C399.512 148.557 399.751 148.389 400.017 148.431C401.236 148.669 402.484 148.837 403.731 148.935C403.998 148.949 404.18 149.187 404.166 149.439C404.152 149.719 403.941 149.902 403.703 149.902ZM409.87 149.803C409.632 149.803 409.436 149.621 409.408 149.383C409.38 149.131 409.562 148.893 409.828 148.865C411.076 148.725 412.309 148.515 413.529 148.235C413.781 148.179 414.033 148.333 414.089 148.585C414.145 148.837 413.991 149.089 413.739 149.145C412.491 149.439 411.216 149.649 409.94 149.803C409.912 149.803 409.884 149.803 409.87 149.803ZM394.018 147.619C393.962 147.619 393.892 147.605 393.836 147.591C392.644 147.115 391.481 146.554 390.36 145.938C390.135 145.812 390.051 145.532 390.178 145.294C390.304 145.07 390.584 144.986 390.822 145.112C391.916 145.714 393.051 146.26 394.2 146.722C394.438 146.82 394.565 147.101 394.467 147.339C394.382 147.507 394.2 147.619 394.018 147.619ZM419.471 147.199C419.289 147.199 419.121 147.101 419.037 146.919C418.925 146.68 419.037 146.4 419.275 146.302C420.41 145.798 421.532 145.21 422.597 144.58C422.821 144.44 423.116 144.524 423.242 144.748C423.382 144.972 423.298 145.266 423.074 145.392C421.966 146.05 420.817 146.652 419.654 147.171C419.598 147.185 419.541 147.199 419.471 147.199ZM385.496 142.507C385.384 142.507 385.286 142.465 385.188 142.395C384.207 141.583 383.268 140.686 382.371 139.762C382.188 139.566 382.202 139.272 382.385 139.09C382.581 138.908 382.875 138.922 383.057 139.104C383.912 140.014 384.837 140.869 385.79 141.667C385.987 141.835 386.015 142.129 385.847 142.325C385.762 142.437 385.622 142.507 385.496 142.507ZM427.825 141.793C427.699 141.793 427.573 141.737 427.475 141.639C427.306 141.443 427.32 141.149 427.517 140.967L427.797 140.714C428.624 139.958 429.423 139.146 430.166 138.32C430.334 138.124 430.642 138.11 430.839 138.278C431.035 138.446 431.049 138.754 430.881 138.95C430.11 139.804 429.297 140.644 428.442 141.415L428.161 141.667C428.049 141.751 427.937 141.793 427.825 141.793ZM378.909 135.043C378.754 135.043 378.6 134.973 378.516 134.819C377.829 133.74 377.185 132.606 376.624 131.457C376.512 131.219 376.61 130.939 376.848 130.827C377.086 130.715 377.367 130.813 377.479 131.051C378.026 132.172 378.642 133.264 379.315 134.314C379.455 134.538 379.385 134.819 379.175 134.959C379.091 135.029 379.007 135.043 378.909 135.043Z" fill="#91B3FA"></path><path d="M374.9 125.926C374.689 125.926 374.493 125.786 374.437 125.575C374.269 124.959 374.129 124.329 374.002 123.713C373.946 123.461 374.115 123.209 374.367 123.153C374.619 123.097 374.871 123.265 374.928 123.517C375.054 124.119 375.194 124.735 375.348 125.323C375.418 125.575 375.264 125.828 375.012 125.898C374.984 125.926 374.942 125.926 374.9 125.926Z" fill="#91B3FA"></path><path d="M378.782 100.339C378.698 100.339 378.614 100.311 378.53 100.269C378.305 100.129 378.249 99.835 378.375 99.6249C378.712 99.0927 379.076 98.5466 379.441 98.0424C379.595 97.8323 379.889 97.7763 380.099 97.9304C380.31 98.0844 380.366 98.3785 380.212 98.5886C379.847 99.0927 379.511 99.6109 379.174 100.129C379.09 100.269 378.95 100.339 378.782 100.339Z" fill="#91B3FA"></path><path d="M436.108 104.933C435.926 104.933 435.744 104.821 435.674 104.639C435.197 103.518 434.651 102.398 434.034 101.333C433.908 101.109 433.978 100.815 434.216 100.689C434.44 100.563 434.735 100.633 434.861 100.871C435.492 101.964 436.052 103.112 436.543 104.274C436.641 104.513 436.529 104.793 436.291 104.891C436.234 104.919 436.164 104.933 436.108 104.933ZM430.964 96.6139C430.824 96.6139 430.698 96.5579 430.6 96.4459C430.362 96.1658 430.109 95.8857 429.857 95.6056C429.282 94.9754 428.68 94.3592 428.049 93.785C427.853 93.6029 427.853 93.3088 428.021 93.1128C428.203 92.9167 428.498 92.9167 428.694 93.0848C429.339 93.687 429.955 94.3172 430.558 94.9614C430.824 95.2415 431.077 95.5356 431.315 95.8297C431.483 96.0257 431.455 96.3198 431.259 96.4879C431.175 96.5719 431.063 96.6139 430.964 96.6139ZM383.814 94.1911C383.688 94.1911 383.562 94.1491 383.478 94.0511C383.295 93.869 383.309 93.5609 383.492 93.3789C383.688 93.1968 383.87 93.0147 384.066 92.8327C384.809 92.1605 385.58 91.5162 386.379 90.914C386.589 90.76 386.883 90.802 387.038 90.9981C387.192 91.2081 387.15 91.5022 386.954 91.6563C386.183 92.2445 385.426 92.8747 384.711 93.5189C384.515 93.687 384.333 93.869 384.15 94.0511C384.052 94.1491 383.94 94.1911 383.814 94.1911ZM423.578 90.1998C423.494 90.1998 423.41 90.1718 423.326 90.1298C422.288 89.4716 421.209 88.8694 420.102 88.3512C419.864 88.2392 419.765 87.9591 419.878 87.721C419.99 87.4829 420.27 87.3849 420.508 87.4969C421.644 88.0431 422.765 88.6593 423.83 89.3315C424.054 89.4716 424.11 89.7657 423.97 89.9757C423.886 90.1158 423.732 90.1998 423.578 90.1998ZM391.831 88.5613C391.663 88.5613 391.495 88.4632 391.411 88.2952C391.299 88.0571 391.397 87.777 391.621 87.665C392.742 87.1048 393.92 86.6006 395.111 86.1805C395.363 86.0965 395.63 86.2225 395.714 86.4606C395.798 86.6986 395.672 86.9787 395.433 87.0628C394.284 87.4829 393.135 87.9591 392.041 88.5052C391.971 88.5473 391.901 88.5613 391.831 88.5613ZM414.607 86.2785C414.565 86.2785 414.523 86.2785 414.481 86.2645C413.304 85.9564 412.085 85.7043 410.865 85.5223C410.613 85.4802 410.431 85.2422 410.473 84.9901C410.515 84.738 410.753 84.5419 411.005 84.598C412.253 84.78 413.5 85.0321 414.72 85.3542C414.972 85.4242 415.126 85.6763 415.056 85.9284C415 86.1385 414.818 86.2785 414.607 86.2785ZM401.152 85.5923C400.928 85.5923 400.717 85.4242 400.689 85.2002C400.647 84.9481 400.83 84.696 401.082 84.668C402.329 84.4719 403.591 84.3459 404.852 84.2899C405.119 84.2899 405.329 84.4859 405.343 84.738C405.357 85.0041 405.147 85.2142 404.894 85.2282C403.661 85.2842 402.427 85.3962 401.222 85.5923C401.194 85.5923 401.18 85.5923 401.152 85.5923Z" fill="#91B3FA"></path><path d="M438.294 112.579C438.07 112.579 437.86 112.411 437.832 112.187C437.733 111.585 437.621 110.969 437.495 110.366C437.439 110.114 437.607 109.862 437.86 109.806C438.112 109.75 438.364 109.918 438.42 110.17C438.56 110.787 438.673 111.417 438.771 112.047C438.813 112.299 438.631 112.551 438.378 112.579C438.336 112.579 438.308 112.579 438.294 112.579Z" fill="#91B3FA"></path><path d="M431.147 116.402C431.161 116.234 431.063 116.08 430.909 116.01L426.564 114.12C426.227 111.935 425.54 109.792 424.489 107.762L426.886 103.686C426.97 103.546 426.956 103.364 426.844 103.238L423.144 98.9247C423.032 98.7987 422.863 98.7566 422.709 98.8127L418.308 100.549C416.472 99.2048 414.454 98.1965 412.351 97.5242L411.16 92.9447C411.118 92.7907 410.978 92.6646 410.809 92.6506L405.147 92.2165C404.979 92.2025 404.824 92.3005 404.754 92.4546L402.862 96.796C400.676 97.1321 398.531 97.8183 396.499 98.8687L392.42 96.4739C392.28 96.3899 392.098 96.4039 391.972 96.5159L387.655 100.213C387.528 100.325 387.486 100.493 387.542 100.647L389.281 105.045C387.935 106.879 386.926 108.896 386.253 110.997L381.67 112.187C381.516 112.229 381.389 112.369 381.375 112.537L380.941 118.195C380.927 118.363 381.025 118.517 381.179 118.587L385.524 120.478C385.861 122.663 386.547 124.805 387.599 126.836L385.202 130.911C385.118 131.051 385.132 131.233 385.244 131.359L388.944 135.673C389.056 135.799 389.224 135.841 389.379 135.785L393.78 134.048C395.616 135.393 397.634 136.401 399.737 137.073L400.928 141.653C400.97 141.807 401.11 141.933 401.278 141.947L406.941 142.381C407.109 142.395 407.263 142.297 407.333 142.143L409.226 137.802C411.412 137.465 413.557 136.779 415.589 135.729L419.668 138.124C419.808 138.208 419.99 138.194 420.116 138.082L424.433 134.384C424.559 134.272 424.601 134.104 424.545 133.95L422.807 129.553C424.153 127.718 425.162 125.702 425.835 123.601L430.418 122.41C430.572 122.368 430.698 122.228 430.712 122.06L431.147 116.402Z" fill="#0050CC"></path><path opacity="0.7" d="M406.043 123.041C404.866 123.041 403.717 122.677 402.736 121.976C400.143 120.142 399.526 116.557 401.362 113.966C402.245 112.705 403.577 111.879 405.09 111.627C406.604 111.361 408.132 111.711 409.379 112.607C410.641 113.49 411.468 114.82 411.72 116.332C411.986 117.845 411.636 119.371 410.739 120.618C409.856 121.878 408.524 122.705 407.011 122.957C406.702 123.013 406.366 123.041 406.043 123.041ZM406.057 112.957C404.698 112.957 403.352 113.588 402.511 114.792C401.124 116.739 401.6 119.455 403.549 120.828C404.488 121.5 405.651 121.752 406.786 121.556C407.936 121.36 408.931 120.73 409.59 119.792C410.262 118.853 410.515 117.691 410.318 116.557C410.122 115.408 409.491 114.414 408.552 113.756C407.809 113.223 406.926 112.957 406.057 112.957Z" fill="white"></path><path opacity="0.7" d="M405.96 131.709C405.581 131.709 405.203 131.695 404.81 131.667C400.97 131.373 397.48 129.595 394.971 126.668C392.644 123.951 391.509 120.632 391.509 117.313C391.509 113.251 393.219 109.204 396.555 106.361C402.596 101.193 411.72 101.908 416.892 107.944C416.934 107.986 416.976 108.042 417.018 108.084C417.579 108.756 418.084 109.47 418.504 110.226C418.504 110.226 418.504 110.226 418.504 110.24C418.504 110.254 418.518 110.268 418.518 110.268C418.532 110.282 418.546 110.31 418.546 110.324C418.546 110.338 418.56 110.352 418.56 110.352C418.574 110.38 418.602 110.422 418.616 110.45L417.369 111.123C416.934 110.31 416.402 109.54 415.799 108.84C412.505 104.989 407.417 103.546 402.792 104.681C400.886 105.143 399.064 106.053 397.466 107.411C394.466 109.974 392.924 113.63 392.924 117.299C392.924 120.282 393.948 123.293 396.036 125.744C400.703 131.191 408.917 131.836 414.369 127.172C416.163 125.645 417.495 123.657 418.238 121.43L419.583 121.878C418.756 124.343 417.271 126.542 415.28 128.236C412.673 130.491 409.394 131.709 405.96 131.709Z" fill="white"></path><path d="M314.069 182.294C315.232 181.202 316.802 180.67 318.4 180.81C335.387 182.336 367.078 174.157 387.78 152.983C389.223 151.512 391.844 152.338 393.484 153.571C416.513 170.768 454.693 174.326 467.952 175.054C470.7 175.208 472.914 177.323 473.194 180.053C485.248 296.362 409.449 338.516 393.737 345.952C392.013 346.764 389.994 346.652 388.382 345.644C310.032 296.88 313.382 233.467 312.303 186.482C312.261 184.913 312.905 183.373 314.069 182.294Z" fill="url(#paint14_linear_2_806)"></path><path opacity="0.61" d="M391.621 337.521C391.271 337.521 390.92 337.423 390.612 337.227C360.575 318.041 340.995 295.101 330.763 267.106C321.624 242.108 321.176 216.634 320.783 194.17L320.727 191.173C320.713 190.669 320.909 190.207 321.26 189.843C321.61 189.479 322.087 189.282 322.591 189.282C341.191 189.282 369.111 181.076 389.589 162.744C390.219 162.184 391.144 162.114 391.859 162.576C414.355 177.491 446.452 181.832 463.58 183.092C464.491 183.162 465.206 183.863 465.29 184.787C469.271 230.176 459.824 268.549 437.216 298.855C420.326 321.486 400.297 333.278 392.476 337.297C392.196 337.451 391.915 337.521 391.621 337.521ZM392.112 336.639L392.28 336.975L392.112 336.639C399.891 332.648 419.794 320.926 436.599 298.42C459.095 268.269 468.5 230.064 464.533 184.871C464.491 184.339 464.057 183.919 463.524 183.877C446.326 182.616 414.075 178.247 391.439 163.234C391.018 162.954 390.472 162.996 390.107 163.332C369.475 181.804 341.345 190.067 322.619 190.067C322.297 190.067 322.017 190.179 321.82 190.403C321.61 190.613 321.498 190.893 321.512 191.187L321.568 194.184C321.961 216.591 322.409 241.982 331.506 266.868C341.681 294.695 361.164 317.509 391.046 336.611C391.355 336.793 391.775 336.821 392.112 336.639Z" fill="white"></path><path opacity="0.61" d="M419.008 226.199H415.462C413.696 226.199 412.28 224.77 412.28 223.02V210.92C412.28 206.592 408.762 203.077 404.431 203.077H382.482C378.151 203.077 374.633 206.592 374.633 210.92V223.02C374.633 224.784 373.203 226.199 371.451 226.199H367.905C366.139 226.199 364.724 224.77 364.724 223.02V210.92C364.724 201.116 372.671 193.176 382.482 193.176H404.431C414.243 193.176 422.19 201.116 422.19 210.92V223.02C422.19 224.77 420.76 226.199 419.008 226.199Z" fill="white"></path><path opacity="0.61" d="M423.396 229.056H363.504C359.832 229.056 356.861 232.025 356.861 235.694V281.615C356.861 285.284 359.832 288.253 363.504 288.253H423.396C427.068 288.253 430.039 285.284 430.039 281.615V235.694C430.039 232.025 427.068 229.056 423.396 229.056ZM402.021 273.436C402.399 274.977 401.222 276.475 399.624 276.475H387.276C385.678 276.475 384.515 274.991 384.879 273.436L387.766 261.448C384.36 259.418 382.146 255.622 382.37 251.323C382.664 245.763 387.178 241.198 392.742 240.862C399.19 240.455 404.558 245.567 404.558 251.925C404.558 255.972 402.385 259.516 399.148 261.448L402.021 273.436Z" fill="white"></path><path d="M163.885 214.043C163.885 214.043 168.735 214.295 169.338 224.266C169.338 224.266 158.097 234.335 142.903 236.744C141.768 236.926 144.501 228.958 144.907 227.879C146.856 222.754 153.009 219.448 163.885 214.043Z" fill="url(#paint15_linear_2_806)"></path><path d="M218.506 202.321H208.274C208.274 202.321 176.864 167.659 156.246 164.158C156.246 164.158 141.908 182.448 157.017 216.633C158.236 219.378 161.628 220.611 164.165 218.986C164.922 218.496 165.469 217.852 165.805 217.04L164.586 187.854C164.586 187.854 191.385 211.27 196.038 215.793C200.705 220.303 224.379 217.544 218.506 202.321Z" fill="white"></path><path d="M119.551 275.103C123.84 271.35 130.68 267.134 140.548 265.93L143.883 267.974C143.883 267.974 141.753 271.111 137.871 274.417C134.296 276.489 128.788 279.304 124.205 279.906C119.748 280.495 119.103 277.806 119.551 275.103Z" fill="url(#paint16_linear_2_806)"></path><path d="M144.893 227.879C147.542 228.733 148.692 232.473 155.406 229.994C161.895 227.599 166.717 224.518 169.197 222.739C169.254 223.216 169.296 223.72 169.338 224.266C169.338 224.266 157.48 235.54 142.286 237.934C141.151 238.117 140.24 236.982 140.646 235.904C141.375 233.971 142.707 231.03 144.893 227.879Z" fill="#91B3FA"></path><path d="M116.314 278.31C117.155 277.343 118.234 276.251 119.552 275.103C119.103 277.806 119.762 280.494 124.205 279.906C128.774 279.304 134.297 276.489 137.871 274.416C133.4 278.226 126.574 282.287 117.982 282.049C116.062 281.993 115.053 279.738 116.314 278.31Z" fill="#91B3FA"></path><path d="M218.141 209.715L170.206 210.233C170.206 210.233 142.832 232.865 137.87 267.372C137.87 267.372 137.043 269.907 141.991 270.341C141.991 270.341 158.544 259.544 169.337 240.441C182.568 217.026 208.778 227.571 208.778 227.571C221.379 230.344 231.4 229.322 238.731 218.034L218.141 209.715Z" fill="white"></path><path d="M217.006 171.132C217.006 171.132 211.848 196.971 186.563 207.194L177.565 206.13L175.448 209.505L196.543 210.177C196.543 210.177 214.581 203.035 224.126 183.597C224.449 182.966 229.705 172.113 217.006 171.132Z" fill="url(#paint17_linear_2_806)"></path><path d="M214.245 209.295C214.245 209.295 220.118 193.358 221.38 177.869C221.38 177.869 217.091 174.185 214.4 172.589C213.531 172.071 213.208 170.978 213.643 170.082C215.619 165.993 227.547 149.971 228.444 149.747C233.307 148.543 253.224 139.076 267.255 158.248C273.282 166.483 266.063 191.817 238.746 218.048C229.943 219.462 221.716 216.942 214.245 209.295Z" fill="#5132EF"></path><path d="M236.853 181.356C236.853 181.356 220.552 200.64 199.71 203.469C199.71 203.469 194.328 198.568 190.32 200.318C186.311 202.069 180.817 209.799 180.817 209.799H207.573C207.573 209.799 232.873 208.903 245.529 193.582C244.506 188.204 241.465 185.011 236.853 181.356Z" fill="url(#paint18_linear_2_806)"></path><path d="M246.356 136.205L249.93 148.095C250.098 148.641 249.888 149.229 249.425 149.551C247.701 150.728 243.216 153.066 237.063 150.798C236.362 150.532 235.872 149.887 235.816 149.131L234.975 138.782L246.356 136.205Z" fill="url(#paint19_linear_2_806)"></path><path d="M225.472 126.584C225.472 126.584 227.224 138.908 231.961 142.703C236.699 146.498 245.935 143.641 249.047 134.356L242.838 118.475L225.472 126.584Z" fill="url(#paint20_linear_2_806)"></path><path d="M243.538 128.74C243.174 128.853 242.795 128.628 242.739 128.25C242.571 127.116 242.137 124.861 241.282 123.335C241.282 123.335 241.73 121.724 237.189 124.161C232.648 126.598 225.822 130.197 221.813 128.054C217.903 125.968 213.936 115.492 224.28 117.425C224.672 117.495 225.037 117.187 225.009 116.781C224.883 115.058 225.051 111.095 229.074 109.82C232.83 108.63 234.89 110.324 235.745 111.347C235.998 111.655 236.46 111.641 236.698 111.333C237.82 109.862 240.889 106.739 245.388 108.714C249.103 110.352 249.677 112.635 249.607 114.05C249.593 114.512 250.056 114.82 250.476 114.624C251.612 114.106 253.434 113.826 255.186 116.024C257.611 119.049 254.149 121.682 253.111 122.368C252.943 122.48 252.831 122.662 252.831 122.873C252.817 124.441 252.579 131.317 249.131 135.197C248.836 135.533 248.276 135.435 248.108 135.015L245.459 128.698C245.332 128.404 245.01 128.25 244.702 128.348L243.538 128.74Z" fill="black"></path><path d="M243.483 130.015C243.483 130.015 245.108 123.419 247.561 125.561C250.028 127.704 246.917 132.41 244.099 133.306L243.483 130.015Z" fill="url(#paint21_linear_2_806)"></path><path d="M182.162 211.298L170.151 171.258C169.66 169.62 168.202 168.472 166.506 168.346L150.276 167.239C148.622 167.127 147.402 168.738 147.949 170.292L161.376 208.525C161.811 209.757 162.918 210.625 164.222 210.752L180.2 212.53L182.162 211.298Z" fill="url(#paint22_linear_2_806)"></path><path d="M160.002 184.829C160.899 186.636 162.455 187.7 163.464 187.196C164.473 186.692 164.571 184.815 163.674 183.008C162.777 181.202 161.222 180.137 160.212 180.642C159.189 181.146 159.105 183.008 160.002 184.829Z" fill="#91B3FA"></path><path d="M180.2 212.53C180.228 212.53 180.256 212.53 180.284 212.53L214.33 210.808C215.171 210.765 215.816 210.051 215.773 209.211C215.731 208.371 215.017 207.712 214.176 207.768L180.13 209.491C179.289 209.533 178.645 210.247 178.687 211.088C178.715 211.9 179.387 212.53 180.2 212.53Z" fill="url(#paint23_linear_2_806)"></path><path d="M221.366 178.107C221.24 178.107 221.127 178.009 221.127 177.869C221.099 170.684 223.875 161.189 223.903 161.091C223.945 160.965 224.071 160.895 224.197 160.937C224.323 160.979 224.393 161.105 224.351 161.231C224.323 161.329 221.576 170.768 221.604 177.869C221.604 177.995 221.506 178.107 221.366 178.107Z" fill="#3820B0"></path><path d="M236.853 181.594C236.797 181.594 236.755 181.58 236.713 181.538C236.615 181.454 236.587 181.314 236.671 181.202C236.741 181.104 244.142 171.707 246.679 165.293C246.721 165.166 246.861 165.11 246.987 165.166C247.113 165.209 247.169 165.349 247.113 165.475C244.548 171.945 237.12 181.398 237.036 181.496C236.994 181.566 236.923 181.594 236.853 181.594Z" fill="#3820B0"></path><path d="M247.338 196.047L245.992 194.142C245.922 194.03 245.936 193.89 246.048 193.82C246.16 193.75 246.301 193.764 246.371 193.876L247.492 195.473C257.99 190.879 264.494 178.317 264.55 178.191C264.606 178.079 264.746 178.023 264.872 178.093C264.984 178.149 265.04 178.289 264.97 178.415C264.9 178.541 258.256 191.383 247.492 195.991L247.338 196.047Z" fill="#3820B0"></path><defs><linearGradient id="paint0_linear_2_806" x1="491.024" y1="40.5925" x2="149.491" y2="463.323" gradientUnits="userSpaceOnUse"><stop stop-color="#4E91ED"></stop><stop offset="1" stop-color="#5130EF"></stop></linearGradient><linearGradient id="paint1_linear_2_806" x1="219.848" y1="13.8015" x2="219.848" y2="54.563" gradientUnits="userSpaceOnUse"><stop stop-color="#4E91ED"></stop><stop offset="1" stop-color="#5130EF"></stop></linearGradient><linearGradient id="paint2_linear_2_806" x1="90.8041" y1="370.924" x2="90.8041" y2="385.641" gradientUnits="userSpaceOnUse"><stop stop-color="#4E91ED"></stop><stop offset="1" stop-color="#5130EF"></stop></linearGradient><linearGradient id="paint3_linear_2_806" x1="79.9706" y1="377.246" x2="79.9706" y2="388.371" gradientUnits="userSpaceOnUse"><stop stop-color="#4E91ED"></stop><stop offset="1" stop-color="#5130EF"></stop></linearGradient><linearGradient id="paint4_linear_2_806" x1="75.3865" y1="392.356" x2="75.3865" y2="395.042" gradientUnits="userSpaceOnUse"><stop stop-color="#4E91ED"></stop><stop offset="1" stop-color="#5130EF"></stop></linearGradient><linearGradient id="paint5_linear_2_806" x1="79.9706" y1="398.97" x2="79.9706" y2="410.095" gradientUnits="userSpaceOnUse"><stop stop-color="#4E91ED"></stop><stop offset="1" stop-color="#5130EF"></stop></linearGradient><linearGradient id="paint6_linear_2_806" x1="90.8041" y1="401.758" x2="90.8041" y2="416.475" gradientUnits="userSpaceOnUse"><stop stop-color="#4E91ED"></stop><stop offset="1" stop-color="#5130EF"></stop></linearGradient><linearGradient id="paint7_linear_2_806" x1="101.694" y1="398.97" x2="101.694" y2="410.095" gradientUnits="userSpaceOnUse"><stop stop-color="#4E91ED"></stop><stop offset="1" stop-color="#5130EF"></stop></linearGradient><linearGradient id="paint8_linear_2_806" x1="106.22" y1="392.356" x2="106.22" y2="395.042" gradientUnits="userSpaceOnUse"><stop stop-color="#4E91ED"></stop><stop offset="1" stop-color="#5130EF"></stop></linearGradient><linearGradient id="paint9_linear_2_806" x1="101.694" y1="377.246" x2="101.694" y2="388.371" gradientUnits="userSpaceOnUse"><stop stop-color="#4E91ED"></stop><stop offset="1" stop-color="#5130EF"></stop></linearGradient><linearGradient id="paint10_linear_2_806" x1="503.442" y1="241.34" x2="503.442" y2="275.152" gradientUnits="userSpaceOnUse"><stop stop-color="#4E91ED"></stop><stop offset="1" stop-color="#5130EF"></stop></linearGradient><linearGradient id="paint11_linear_2_806" x1="503.47" y1="256.699" x2="503.47" y2="259.852" gradientUnits="userSpaceOnUse"><stop stop-color="#4E91ED"></stop><stop offset="1" stop-color="#5130EF"></stop></linearGradient><linearGradient id="paint12_linear_2_806" x1="393.825" y1="480.346" x2="399.502" y2="494.051" gradientUnits="userSpaceOnUse"><stop stop-color="#4E91ED"></stop><stop offset="1" stop-color="#5130EF"></stop></linearGradient><linearGradient id="paint13_linear_2_806" x1="145.379" y1="51.9708" x2="446.832" y2="520.13" gradientUnits="userSpaceOnUse"><stop stop-color="#7555FF"></stop><stop offset="1" stop-color="#4E95ED"></stop></linearGradient><linearGradient id="paint14_linear_2_806" x1="361.577" y1="334.383" x2="469.298" y2="166.776" gradientUnits="userSpaceOnUse"><stop stop-color="#2F0CC4"></stop><stop offset="1" stop-color="#4E95ED"></stop><stop offset="1" stop-color="#4F77EE"></stop></linearGradient><linearGradient id="paint15_linear_2_806" x1="158.981" y1="223.516" x2="141.412" y2="241.882" gradientUnits="userSpaceOnUse"><stop stop-color="#09005D"></stop><stop offset="1" stop-color="#1A0F91"></stop></linearGradient><linearGradient id="paint16_linear_2_806" x1="135.654" y1="269.577" x2="102.411" y2="293.995" gradientUnits="userSpaceOnUse"><stop stop-color="#09005D"></stop><stop offset="1" stop-color="#1A0F91"></stop></linearGradient><linearGradient id="paint17_linear_2_806" x1="189.392" y1="179.429" x2="211.952" y2="206.278" gradientUnits="userSpaceOnUse"><stop stop-color="#FEBBBA"></stop><stop offset="1" stop-color="#FF928E"></stop></linearGradient><linearGradient id="paint18_linear_2_806" x1="215.723" y1="203.842" x2="170.635" y2="142.108" gradientUnits="userSpaceOnUse"><stop stop-color="#FEBBBA"></stop><stop offset="1" stop-color="#FF928E"></stop></linearGradient><linearGradient id="paint19_linear_2_806" x1="243.334" y1="152.713" x2="241.674" y2="137.762" gradientUnits="userSpaceOnUse"><stop stop-color="#FEBBBA"></stop><stop offset="1" stop-color="#FF928E"></stop></linearGradient><linearGradient id="paint20_linear_2_806" x1="234.466" y1="139.671" x2="241.783" y2="115.518" gradientUnits="userSpaceOnUse"><stop stop-color="#FEBBBA"></stop><stop offset="1" stop-color="#FF928E"></stop></linearGradient><linearGradient id="paint21_linear_2_806" x1="242.057" y1="141.971" x2="249.374" y2="117.818" gradientUnits="userSpaceOnUse"><stop stop-color="#FEBBBA"></stop><stop offset="1" stop-color="#FF928E"></stop></linearGradient><linearGradient id="paint22_linear_2_806" x1="182.16" y1="189.883" x2="147.813" y2="189.883" gradientUnits="userSpaceOnUse"><stop stop-color="#09005D"></stop><stop offset="1" stop-color="#1A0F91"></stop></linearGradient><linearGradient id="paint23_linear_2_806" x1="177.991" y1="204.884" x2="205.452" y2="212.417" gradientUnits="userSpaceOnUse"><stop stop-color="#09005D"></stop><stop offset="1" stop-color="#1A0F91"></stop></linearGradient></defs></svg>