<svg xmlns="http://www.w3.org/2000/svg" width="93" height="100" viewBox="0 0 93 100" fill="none"><path d="M46.8516 99.9921C55.1488 97.0288 68.3094 86.6598 78.6152 70.1128C86.7491 57.4807 95.63 37.1618 92.2706 12.7209L91.9737 12.4251L91.6769 12.1293C72.6435 1.25242 56.7221 -0.00980429 46.2579 5.68555e-05C36.0906 -0.00980429 20.1841 1.25242 1.13582 12.1293L0.838962 12.4251V12.7209C-2.79752 37.1618 6.07847 57.4807 14.1975 70.1128C24.5033 86.6648 37.654 97.0288 45.9611 99.9921H46.8516Z" fill="#5C60BE"></path><path d="M46.2587 98.2172C65.2723 91.1763 95.9424 54.1871 90.4902 13.6085C71.8922 3.07189 56.4359 1.83924 46.2587 1.77515C36.3783 1.83924 20.9567 3.02751 2.62086 13.6085C-3.11341 54.0639 27.4677 91.0432 46.2587 98.2172Z" fill="#090B34"></path><path d="M46.2579 8.875C59.4813 8.95817 72.4622 12.4214 83.9586 18.9334C86.7243 52.3183 60.9819 82.6364 46.2579 90.2295C31.806 82.6364 6.07844 52.3134 8.85404 18.9334C20.2578 12.4579 33.1334 8.99547 46.2579 8.875Z" fill="#5C60BE"></path><path d="M46.2579 76.0295C47.9928 76.0491 49.7144 75.7279 51.3247 75.0843C52.9349 74.4407 54.4021 73.4873 55.6426 72.2785C56.8831 71.0698 57.8725 69.6294 58.5543 68.0396C59.2362 66.4497 59.5971 64.7416 59.6165 63.0128C59.5747 59.5221 58.1444 56.1906 55.6397 53.75C53.1351 51.3094 49.7608 49.9593 46.2579 49.9961C39.1483 49.9419 33.2755 55.7944 33.1963 63.0128C33.2755 70.2361 39.1483 76.0887 46.2579 76.0295Z" fill="#090B34"></path><path d="M38.2383 70.4087V55.6169H42.3943L46.2583 62.4211L50.4094 55.6169H54.5654V70.4087H50.4094V63.6045L46.2583 70.4087L42.3943 63.9003V70.4087H38.2383Z" fill="#5C60BE"></path><path d="M51.304 56.5044H53.6789V69.5211H51.304V56.5044ZM29.6286 28.696C29.0794 26.7977 27.8524 25.6637 25.7695 25.7376C23.0829 25.6883 21.1286 28.2522 21.0247 31.9502C21.1286 34.8789 22.7317 38.2416 26.0713 38.1627C28.1592 38.2416 29.5297 36.4074 29.6336 35.2043H35.2738C34.7444 39.6369 30.9397 42.7333 26.0713 42.6002C20.6735 42.7333 15.5824 38.7001 15.6813 32.246C15.5824 25.8017 19.961 21.1226 25.4776 21.0043C31.6225 21.1226 34.3437 24.5198 35.2738 28.696H29.6286ZM56.3506 42.3044H51.0072C50.839 41.7669 50.7351 40.4948 50.7103 38.7543C50.7351 36.1313 49.795 34.5979 46.8512 34.6127H43.8826V42.3044H38.2424V21.5959H47.7418C54.2825 21.5269 56.2912 23.7555 56.3506 27.5126C56.2962 28.834 55.4303 31.6691 53.0852 32.5418C54.1934 33.2124 56.2962 34.5683 56.3506 37.8668V42.3044ZM71.1934 26.921H76.2399C75.8936 23.2625 73.1774 20.9451 68.2248 21.0043C63.9006 20.9648 59.7991 22.8532 59.616 26.921C59.6358 34.7507 72.4352 32.2854 71.7871 36.3877C71.4705 37.4477 70.2533 38.3648 68.5217 38.4585C67.6219 38.3051 66.7303 38.1076 65.85 37.8668C65.4047 37.4034 64.6428 36.9695 64.3657 36.0918H59.3142C59.0124 40.0511 64.6428 42.6396 68.2199 42.6002C73.8008 42.684 77.4422 39.3115 77.4224 35.5002C77.1453 27.9712 65.38 29.8793 65.2513 26.6251C65.38 25.4418 66.5575 25.1953 67.6262 25.146C68.7245 25.1953 70.5354 25.3185 71.1934 26.921Z" fill="#090B34"></path><path d="M43.8828 30.7668H47.4451C49.3549 30.7273 50.8787 30.1899 51.0074 28.1043C50.854 26.492 49.3252 25.6094 47.7419 25.7376H43.8828V30.7668Z" fill="#5C60BE"></path></svg>