<svg xmlns="http://www.w3.org/2000/svg" width="108" height="101" viewBox="0 0 108 101" fill="none"><path fill-rule="evenodd" clip-rule="evenodd" d="M104.157 50.3721C103.944 77.1855 81.0997 97.99 54.6157 97.3827C28.0702 96.7736 6.85511 73.6888 8.32338 47.2917C9.74574 21.7325 32.8156 2.79021 57.7668 3.36399C83.076 3.94336 103.957 25.1244 104.157 50.3721ZM107.503 50.3721C107.305 25.303 88.3294 4.13875 63.6256 0.531669C38.9244 -3.07542 14.6046 11.9993 7.06105 35.7961C-0.535851 59.7592 12.1786 85.7811 34.666 96.108C57.5144 106.601 85.1881 98.5346 99.204 77.8474C104.671 69.7803 107.427 60.0756 107.503 50.3721Z" fill="#5C60BE"></path><path fill-rule="evenodd" clip-rule="evenodd" d="M84.8 26.4493C84.8 26.4493 12.4759 20.3057 31.6105 33.6157C31.6105 33.6157 26.746 28.1551 84.8 26.4493ZM85.2863 45.7309C85.2863 45.7309 12.9622 39.5874 32.0974 52.8986C32.0974 52.8986 27.2324 47.4374 85.2863 45.7309Z" fill="#5C60BE"></path><path fill-rule="evenodd" clip-rule="evenodd" d="M30.2178 59.812C34.2411 60.8621 38.5324 60.8621 42.5564 61.1252C49.7991 61.1252 56.504 59.549 63.7479 59.0217C69.3784 58.4969 75.0127 58.7599 80.3771 60.0731V50.088C68.8425 48.51 57.8463 50.8752 46.3123 52.9781C44.7026 53.5041 42.8256 53.5041 41.2159 53.5041C44.1667 53.7658 47.3848 54.0288 50.3356 54.2906C50.6036 54.2906 50.8722 54.5561 51.1402 54.8179C51.4088 55.6063 50.3356 56.1311 49.7997 56.6583C48.4586 57.4461 47.1175 57.7085 45.7764 58.2345C40.6787 59.549 35.5829 60.0737 30.2178 59.812ZM29.3419 40.3139C33.5036 41.3659 37.9437 41.3659 42.106 41.6289C49.5981 41.6289 56.5344 40.0521 64.0264 39.5254C69.8542 39 75.6808 39.2637 81.2294 40.5775V30.5905C69.299 29.0143 57.922 31.3796 45.9904 33.4812C44.3255 34.0066 42.3833 34.0066 40.7184 34.0066C43.7703 34.2708 47.1001 34.5332 50.1526 34.795C50.4299 34.795 50.7078 35.058 50.9851 35.3216C51.263 36.11 50.1526 36.6348 49.5981 37.1615C48.2105 37.9492 46.8228 38.2116 45.4364 38.7377C40.1644 40.0521 34.8912 40.5775 29.3419 40.3139ZM82.0042 25.1393C82.0042 25.1393 76.8147 14.0469 31.085 22.9223C31.085 22.9223 75.5189 22.9223 82.0042 25.1393Z" fill="#5C60BE"></path><path fill-rule="evenodd" clip-rule="evenodd" d="M31.7433 80.9843C31.7433 80.9843 36.9328 92.076 82.6625 83.2025C82.6625 83.2032 38.2305 83.2032 31.7433 80.9843ZM61.0684 8.4152C61.0684 8.4152 45.08 5.44889 49.3104 11.8753C49.3104 11.8753 48.2342 9.23896 61.0684 8.4152Z" fill="#5C60BE"></path><path fill-rule="evenodd" clip-rule="evenodd" d="M48.8359 14.2963C49.7242 14.7423 50.6708 14.7423 51.5597 14.8534C53.1582 14.8534 54.6383 14.1859 56.2362 13.9632C57.4793 13.7387 58.723 13.8516 59.9072 14.408V10.1738C57.3614 9.5057 54.9336 10.5087 52.3878 11.4007C52.0336 11.6228 51.6186 11.6228 51.2632 11.6228C51.9139 11.7357 52.6254 11.8461 53.2761 11.9572C53.335 11.9572 53.3946 12.0682 53.4541 12.1798C53.5131 12.5154 53.2761 12.7363 53.1582 12.9596C52.8617 13.2939 52.5658 13.4056 52.2693 13.6289C51.1447 14.1859 50.0195 14.408 48.8359 14.2963Z" fill="#5C60BE"></path><path fill-rule="evenodd" clip-rule="evenodd" d="M13.2959 77.9583C13.2959 73.2465 19.2788 69.2089 24.5967 65.1707C27.9209 62.1405 30.5801 58.776 29.9152 55.074C30.5801 55.074 31.2445 55.4108 31.2445 55.4108C31.9095 56.7569 32.5738 58.1029 32.5738 59.4502C31.9095 65.5069 27.9209 71.2286 29.2496 77.2853C29.2496 77.2853 27.2565 77.6221 26.5916 77.6221C24.5967 73.2471 26.5916 68.8715 28.5852 64.4989C23.9323 68.5371 18.6138 72.2373 15.9545 77.2853C15.9539 77.6215 14.6252 77.6215 13.2959 77.9583Z" fill="#5C60BE"></path><path fill-rule="evenodd" clip-rule="evenodd" d="M29.9149 67.6396C30.5799 68.4355 33.2385 68.4355 32.5736 69.2282C29.9149 70.8168 25.9264 70.0204 22.6028 70.0204C15.29 69.2282 7.97777 68.4355 0 69.2282C4.65354 66.0529 13.2957 68.4361 19.2785 68.8306C22.6028 68.8306 26.5913 69.2276 29.9149 67.6396ZM64.6081 56.6813C70.4954 56.1273 76.4423 57.6471 82.7316 56.3879C83.5634 56.0113 84.3965 55.6367 84.8103 55.2744C84.8295 55.9648 84.8568 57.0045 85.2978 57.6806C81.1064 58.5205 77.294 57.9628 73.0914 58.4547C71.9358 62.3025 70.7789 66.1503 70.0538 70.328C70.1108 72.3999 69.3466 75.195 71.5028 76.8487C70.2386 76.8921 69.3969 76.9238 68.1327 76.9684C67.9962 72.1294 69.1332 67.5925 69.8391 62.7231C70.2113 60.9806 70.9855 58.531 69.2809 57.9002C68.0068 57.6012 66.3332 58.0044 64.6571 58.4101C64.6372 57.7184 64.6286 57.3729 64.6081 56.6813Z" fill="#5C60BE"></path><path fill-rule="evenodd" clip-rule="evenodd" d="M66.7056 63.0079C66.339 63.8212 64.8813 63.8212 65.2454 64.6301C66.7056 66.2509 68.8934 65.4408 70.7171 65.4408C74.7299 64.6301 78.7427 63.8212 83.1202 64.6301C80.5664 61.3865 75.8241 63.8206 72.5402 64.2244C70.7178 64.2244 68.5287 64.6301 66.7056 63.0079Z" fill="#5C60BE"></path><path fill-rule="evenodd" clip-rule="evenodd" d="M14.5148 77.3319C14.5148 72.62 20.497 68.5812 25.8155 64.543C29.1391 61.5153 31.799 58.1507 31.134 54.4475C31.7984 54.4475 32.4634 54.7843 32.4634 54.7843C33.1277 56.1304 33.7927 57.4777 33.7927 58.8225C33.1277 64.8805 29.1391 70.6022 30.4691 76.6589C30.4691 76.6589 28.4748 76.9969 27.8098 76.9969C25.8155 72.6207 27.8098 68.2462 29.8041 63.8712C25.1506 67.9094 19.8333 71.6108 17.174 76.6589C17.174 76.9963 15.8441 76.9963 14.5148 77.3319Z" fill="#5C60BE"></path><path fill-rule="evenodd" clip-rule="evenodd" d="M31.1342 67.012C31.7985 67.8091 34.4572 67.8091 33.7928 68.6006C31.1342 70.188 27.145 69.3953 23.8214 69.3953C16.5092 68.6006 9.19641 67.8091 1.21988 68.6006C5.87218 65.4265 14.5149 67.8098 20.4972 68.2043C23.8214 68.2043 27.81 68.6006 31.1342 67.012ZM65.3844 56.0407C71.273 55.4855 77.2174 57.004 83.5073 55.7448C84.3417 55.3695 85.1741 54.9948 85.5872 54.6326C85.604 55.3255 85.6356 56.3626 86.0754 57.0387C81.8821 57.8762 78.0716 57.3185 73.8696 57.8154C72.7109 61.6594 71.5553 65.5059 70.8301 69.6837C70.8903 71.758 70.1242 74.5519 72.2798 76.2056C71.0168 76.2515 70.1732 76.2794 68.9084 76.3253C68.7726 71.4863 69.9102 66.9494 70.6143 62.0812C70.9883 60.3375 71.7637 57.8892 70.0578 57.2583C68.7844 56.9581 67.1077 57.3625 65.4353 57.767C65.4142 57.0766 65.4043 56.7298 65.3844 56.0407Z" fill="#5C60BE"></path><path fill-rule="evenodd" clip-rule="evenodd" d="M67.3751 62.3693C67.0097 63.1788 65.5501 63.1788 65.9155 63.9889C67.3751 65.611 69.5629 64.8009 71.386 64.8009C75.4 63.9889 79.4122 63.1788 83.7903 63.9889C81.2371 60.7453 76.4942 63.1782 73.2116 63.5857C71.3866 63.5857 69.1982 63.9889 67.3751 62.3693Z" fill="#5C60BE"></path><path fill-rule="evenodd" clip-rule="evenodd" d="M39.6471 67.0752C40.1321 67.3457 40.5205 67.7631 40.8132 68.3351C41.1929 69.0776 41.3827 69.9925 41.3827 71.0781C41.3827 72.4893 41.0359 73.5556 40.3443 74.2801C39.7544 74.893 38.9771 75.1975 38.0119 75.1975C37.084 75.1975 36.3371 74.8936 35.772 74.2801C35.0431 73.4855 34.6796 72.354 34.6796 70.8814C34.6796 69.3815 35.0376 68.2681 35.7565 67.5398C36.3259 66.9574 37.0777 66.6677 38.0119 66.6677C38.618 66.6677 39.1626 66.8048 39.6471 67.0752ZM42.0768 73.8453C42.7895 73.0035 43.1462 72.0278 43.1462 70.9118C43.1462 69.5403 42.6475 68.4039 41.6494 67.5014C40.6513 66.5988 39.4678 66.1479 38.105 66.1479C36.6671 66.1479 35.4432 66.5976 34.4321 67.4977C33.4217 68.3965 32.9161 69.5279 32.9161 70.8864C32.9161 71.7505 33.0892 72.4979 33.4353 73.1313C33.7808 73.7659 34.2671 74.2981 34.8936 74.7304C35.3241 75.0226 35.9085 75.2962 36.6473 75.5554C37.1714 76.0076 37.7954 76.4363 38.5169 76.8345C39.2422 77.2366 40.0118 77.553 40.8101 77.7774C41.6172 78.0026 42.3752 78.126 43.0848 78.1483V77.9349C42.3051 77.8816 41.6097 77.6695 40.9987 77.2954C40.3871 76.9232 39.8183 76.3445 39.291 75.5554C40.4349 75.2565 41.3628 74.6858 42.0768 73.8453ZM51.2561 66.5963V66.3457H54.9265V66.5963H54.5357C54.1257 66.5963 53.8099 66.7465 53.5916 67.0448C53.4836 67.1832 53.4297 67.5051 53.4297 68.0082V71.6934C53.4297 72.6059 53.3255 73.3105 53.1183 73.8149C52.9099 74.3179 52.5023 74.7478 51.8938 75.1076C51.2846 75.4674 50.4559 75.6454 49.4088 75.6454C48.2693 75.6454 47.404 75.4723 46.8129 75.1318C46.2223 74.7863 45.8042 74.3235 45.558 73.7448C45.393 73.3459 45.3129 72.5997 45.3129 71.5048V67.9561C45.3129 67.3978 45.2249 67.0306 45.0506 66.8581C44.875 66.6838 44.5934 66.5963 44.202 66.5963H43.8149V66.3457H48.2848V66.5963H47.8903C47.4636 66.5963 47.1608 66.7136 46.976 66.9499C46.8495 67.1112 46.7868 67.4455 46.7868 67.9554V71.9161C46.7868 72.2709 46.8234 72.6735 46.8997 73.1288C46.9741 73.5853 47.1087 73.942 47.3041 74.1964C47.5002 74.4494 47.7824 74.6591 48.1515 74.8266C48.5193 74.9916 48.9715 75.0722 49.5068 75.0722C50.1923 75.0722 50.8045 74.9438 51.3454 74.6833C51.8863 74.4265 52.2567 74.0934 52.4552 73.6883C52.6537 73.2839 52.7523 72.5991 52.7523 71.6345V67.9548C52.7523 67.3879 52.681 67.0318 52.5377 66.8885C52.3379 66.6925 52.0408 66.5951 51.6475 66.5951H51.2561V66.5963ZM58.5106 71.9093L60.3442 68.2321L62.0817 71.9093H58.5106ZM62.9377 73.7181C63.1437 74.1424 63.246 74.4501 63.246 74.6448C63.246 74.7912 63.1735 74.9165 63.0277 75.0195C62.8825 75.1212 62.6009 75.1808 62.1853 75.1975V75.4481H66.3308V75.1975C65.904 75.1771 65.5709 75.0766 65.3327 74.8936C65.0952 74.7131 64.8297 74.3192 64.5363 73.7138L60.9397 66.1491H60.6488L56.9201 73.6207C56.6025 74.2807 56.3135 74.7193 56.0511 74.9376C55.9239 75.0431 55.6423 75.1336 55.2062 75.1981V75.4487H58.4908V75.1981C57.9902 75.169 57.662 75.1001 57.5119 74.9947C57.3612 74.8905 57.2849 74.7695 57.2849 74.6312C57.2849 74.4569 57.3736 74.1914 57.5473 73.8415L58.2612 72.4105H62.3199L62.9377 73.7181ZM80.0446 67.2154C80.8082 67.9846 81.189 69.1514 81.189 70.7189C81.189 72.1605 80.8429 73.2194 80.15 73.8893C79.4578 74.558 78.5775 74.8936 77.5131 74.8936C76.5163 74.8936 75.713 74.5884 75.1069 73.9743C74.316 73.171 73.9197 72.0215 73.9197 70.5285C73.9197 69.0707 74.3005 67.9635 75.0647 67.2086C75.6776 66.6007 76.4902 66.2974 77.5038 66.2974C78.585 66.2986 79.4317 66.605 80.0446 67.2154ZM73.8353 67.0057C72.6096 67.9238 71.9955 69.1092 71.9955 70.5614C71.9955 71.9825 72.5258 73.1418 73.5915 74.0376C74.6522 74.9351 75.966 75.3799 77.5292 75.3799C79.0769 75.3799 80.3907 74.9233 81.4812 74.0047C82.5692 73.0866 83.1151 71.9316 83.1151 70.5409C83.1151 69.1923 82.5748 68.0659 81.493 67.1658C80.4149 66.2608 79.1383 65.811 77.6632 65.811C76.1801 65.8117 74.9035 66.2099 73.8353 67.0057ZM83.553 66.0102H86.6409L93.6001 72.8652V67.595C93.6001 67.0343 93.5195 66.6838 93.3613 66.5461C93.1523 66.3569 92.8192 66.2614 92.3664 66.2614H91.9675V66.0108H95.9716V66.2614H95.5616C95.0759 66.2614 94.731 66.3786 94.5256 66.6112C94.3997 66.7564 94.3377 67.0839 94.3377 67.595V75.3321H94.0368L86.5299 67.9443V73.5971C86.5299 74.1591 86.6074 74.5084 86.7606 74.6486C86.9753 74.8365 87.3096 74.9308 87.7556 74.9308H88.1638V75.1851H84.1609V74.9308H84.5598C85.0523 74.9308 85.4003 74.8136 85.6069 74.5809C85.7309 74.4383 85.7936 74.1083 85.7936 73.5971V67.216C85.4648 66.9071 85.2117 66.6999 85.0411 66.6019C84.8724 66.5027 84.6206 66.4084 84.2924 66.3234C84.1312 66.2825 83.8843 66.2614 83.5543 66.2614V66.0102H83.553ZM106.115 66.0102L106.228 68.1608H105.91C105.848 67.783 105.763 67.5125 105.66 67.35C105.492 67.093 105.252 66.8914 104.97 66.7707C104.685 66.6472 104.307 66.5852 103.841 66.5852H102.247V73.5965C102.247 74.1585 102.325 74.5077 102.477 74.6479C102.693 74.8359 103.026 74.9302 103.477 74.9302H103.878V75.1845H99.0024V74.9302H99.4087C99.8994 74.9302 100.245 74.8129 100.449 74.5803C100.572 74.4377 100.635 74.1076 100.635 73.5965V66.5852H99.2666C98.7344 66.5852 98.3554 66.6181 98.1334 66.6807C97.8418 66.7657 97.5937 66.9288 97.3884 67.1726C97.1799 67.4164 97.0559 67.7458 97.0187 68.1601H96.6973L96.8109 66.0095H106.115V66.0102Z" fill="#5C60BE"></path><path fill-rule="evenodd" clip-rule="evenodd" d="M80.5786 66.784C81.3416 67.5544 81.725 68.72 81.725 70.2863C81.725 71.7303 81.3782 72.788 80.6835 73.4579C79.9912 74.1278 79.111 74.4622 78.0472 74.4622C77.0503 74.4622 76.2477 74.157 75.641 73.5441C74.8501 72.7396 74.4544 71.5914 74.4544 70.0958C74.4544 68.6394 74.8365 67.5321 75.5988 66.7772C76.2117 66.1699 77.0255 65.866 78.0385 65.866C79.1184 65.8666 79.9676 66.1736 80.5786 66.784ZM74.3688 66.5744C73.1424 67.4918 72.5283 68.6778 72.5283 70.1312C72.5283 71.5523 73.0593 72.7117 74.1256 73.6074C75.1876 74.5013 76.4995 74.9497 78.0639 74.9497C79.6097 74.9497 80.9254 74.492 82.0134 73.5733C83.1027 72.6552 83.6473 71.5002 83.6473 70.1095C83.6473 68.7609 83.1101 67.6345 82.0264 66.7344C80.9477 65.8281 79.6724 65.3796 78.1979 65.3796C76.7129 65.3796 75.4363 65.7785 74.3688 66.5744ZM84.0865 65.5775H87.1744L94.1342 72.4338V67.1636C94.1342 66.6041 94.0523 66.2524 93.8954 66.1147C93.6864 65.9255 93.3533 65.8287 92.8992 65.8287H92.5016V65.5781H96.5025V65.8287H96.0956C95.6099 65.8287 95.2626 65.9472 95.0603 66.1798C94.9326 66.3237 94.8705 66.6525 94.8705 67.1636V74.9007H94.569L87.0652 67.5129V73.167C87.0652 73.7265 87.1421 74.077 87.2947 74.2172C87.5106 74.4063 87.8424 74.5006 88.2897 74.5006H88.6978V74.7525H84.6931V74.5006H85.0932C85.5889 74.5006 85.9331 74.3834 86.1403 74.1483C86.2631 74.0063 86.327 73.6769 86.327 73.167V66.7859C85.9977 66.4745 85.7452 66.2698 85.5765 66.1693C85.4059 66.0713 85.1534 65.9776 84.8259 65.892C84.6628 65.8523 84.4171 65.8287 84.0871 65.8287V65.5775H84.0865ZM106.65 65.5775L106.762 67.7306H106.442C106.381 67.3516 106.298 67.0799 106.193 66.9186C106.026 66.6612 105.785 66.4598 105.503 66.3405C105.22 66.2183 104.84 66.155 104.375 66.155H102.781V73.1664C102.781 73.7259 102.858 74.0763 103.011 74.2165C103.227 74.4057 103.561 74.5 104.011 74.5H104.411V74.7519H99.5371V74.5H99.944C100.433 74.5 100.779 74.3828 100.982 74.1477C101.106 74.0056 101.169 73.6762 101.169 73.1664V66.155H99.8001C99.2673 66.155 98.8901 66.1867 98.6668 66.2493C98.3744 66.3352 98.1146 66.507 97.9212 66.7425C97.7128 66.985 97.59 67.3144 97.5515 67.73H97.232L97.3431 65.5769H106.65V65.5775ZM40.2729 66.7269C40.7586 66.9974 41.1463 67.4161 41.4404 67.988C41.8194 68.7305 42.0086 69.6455 42.0086 70.7298C42.0086 72.141 41.6618 73.2085 40.9702 73.9331C40.3803 74.5459 39.6024 74.8505 38.6378 74.8505C37.7098 74.8505 36.9636 74.5465 36.3991 73.9331C35.669 73.1372 35.3055 72.0058 35.3055 70.5344C35.3055 69.0345 35.6647 67.921 36.3824 67.1903C36.9531 66.6097 37.7036 66.3206 38.6378 66.3206C39.2439 66.3213 39.7891 66.4571 40.2729 66.7269ZM42.7021 73.4957C43.4148 72.6571 43.7715 71.6795 43.7715 70.566C43.7715 69.1933 43.2727 68.0556 42.2759 67.1543C41.2766 66.253 40.0962 65.8021 38.7302 65.8021C37.293 65.8021 36.0691 66.2518 35.0574 67.1494C34.0482 68.0494 33.542 69.1796 33.542 70.5381C33.542 71.4034 33.7151 72.1509 34.0612 72.7842C34.4073 73.4176 34.8936 73.9498 35.5195 74.3846C35.9506 74.6743 36.535 74.9491 37.2738 75.2097C37.7973 75.6606 38.4213 76.088 39.1427 76.49C39.8685 76.8897 40.6378 77.2048 41.4354 77.4291C42.243 77.6543 43.0017 77.779 43.7101 77.8013V77.5879C42.9303 77.5333 42.2362 77.3187 41.6252 76.9496C41.0136 76.5762 40.4454 75.9962 39.9188 75.2097C41.062 74.91 41.99 74.3394 42.7021 73.4957ZM51.8839 66.2512V65.9993H55.5524V66.2512H55.1609C54.7503 66.2512 54.4377 66.3988 54.2181 66.6972C54.1101 66.8367 54.0562 67.1574 54.0562 67.663V71.3451C54.0562 72.2588 53.9532 72.9635 53.7454 73.4678C53.5364 73.9728 53.1276 74.3995 52.5203 74.7605C51.9124 75.1191 51.083 75.2996 50.036 75.2996C48.8958 75.2996 48.0299 75.129 47.44 74.786C46.8488 74.4405 46.432 73.9752 46.1839 73.3977C46.0207 72.9989 45.9388 72.2539 45.9388 71.1603V67.6103C45.9388 67.0507 45.8514 66.6848 45.6764 66.5117C45.5021 66.3386 45.2193 66.2524 44.8285 66.2524H44.442V66.0006H48.9113V66.2524H48.5156C48.0907 66.2524 47.7867 66.3696 47.6044 66.6047C47.4772 66.766 47.4139 67.1016 47.4139 67.6103V71.5709C47.4139 71.9233 47.4511 72.3271 47.5256 72.7836C47.6006 73.2389 47.7359 73.5956 47.9319 73.8487C48.1285 74.1055 48.4095 74.3152 48.7792 74.4802C49.1464 74.6452 49.5986 74.7283 50.1352 74.7283C50.82 74.7283 51.4329 74.5986 51.9744 74.3394C52.5153 74.0813 52.8844 73.7482 53.0829 73.3438C53.282 72.9393 53.3813 72.2545 53.3813 71.2899V67.6103C53.3813 67.0421 53.3087 66.6872 53.1642 66.544C52.9663 66.3504 52.6698 66.2518 52.2753 66.2518H51.8839V66.2512ZM59.1365 71.5598L60.9714 67.8838L62.7101 71.5598H59.1365ZM63.5661 73.3698C63.7708 73.7941 63.8725 74.1043 63.8725 74.2978C63.8725 74.4429 63.7993 74.5682 63.6536 74.6725C63.5072 74.7742 63.2268 74.835 62.8112 74.8505V75.1023H66.9548V74.8505C66.5287 74.83 66.1968 74.7283 65.9586 74.5465C65.721 74.3648 65.4549 73.9721 65.1628 73.3655L61.565 65.8033H61.2753L57.5454 73.273C57.2278 73.9331 56.9394 74.3729 56.6788 74.5887C56.5492 74.6954 56.2682 74.7847 55.8334 74.8505V75.1023H59.1185V74.8505C58.6167 74.8213 58.2891 74.7525 58.1378 74.647C57.9864 74.5428 57.912 74.4206 57.912 74.2835C57.912 74.108 57.9982 73.845 58.1731 73.4926L58.8871 72.0628H62.9464L63.5661 73.3698Z" fill="#5C60BE"></path></svg>