<svg xmlns="http://www.w3.org/2000/svg" width="87" height="87" viewBox="0 0 87 87" fill="none"><path fill-rule="evenodd" clip-rule="evenodd" d="M8.59299 61.4371C8.96696 61.3798 9.26859 61.451 9.58523 61.6236C9.90187 61.7821 10.1033 62.0265 10.2614 62.3281C10.3905 62.5295 10.4623 62.8028 10.4623 63.076C10.4767 63.3637 10.4189 63.608 10.3187 63.8674C10.1813 64.1131 9.97007 64.3094 9.71489 64.4283L9.18287 63.4795C9.34092 63.278 9.34092 63.0766 9.2402 62.8756C9.16787 62.746 9.09608 62.6597 9.00982 62.6308C8.8807 62.5879 8.76497 62.5879 8.66478 62.6308C8.52066 62.746 8.46334 62.8896 8.52066 63.12C8.49227 63.1917 8.5496 63.2919 8.59246 63.5657C8.67872 63.7956 8.69318 64.0404 8.73658 64.2413C8.72211 64.4717 8.72211 64.6731 8.65032 64.8885C8.56116 65.1078 8.4116 65.2973 8.21903 65.435C7.94579 65.6075 7.60075 65.6654 7.31305 65.7227C7.01141 65.7366 6.72317 65.6509 6.436 65.5073C6.22008 65.3348 5.94684 65.0905 5.75986 64.7594C5.68562 64.5896 5.61841 64.4167 5.55841 64.2413C5.50108 64.0404 5.40036 63.8679 5.48662 63.6236C5.48662 63.3648 5.60127 63.1917 5.75986 62.9908C5.87505 62.746 6.0765 62.5879 6.33527 62.4299L6.89568 63.4795C6.79496 63.5802 6.7087 63.7098 6.68031 63.8529C6.65137 63.997 6.68031 64.1406 6.72317 64.2697C6.82389 64.3994 6.93908 64.5146 7.06874 64.5435C7.19839 64.6008 7.34198 64.6008 7.4711 64.529C7.57182 64.4717 7.60075 64.342 7.61522 64.2124C7.60129 64.0115 7.62968 63.81 7.52896 63.5368C7.51503 63.2201 7.47163 63.0048 7.47163 62.904C7.4577 62.5874 7.50056 62.2997 7.63022 62.1127C7.74487 61.8684 7.94632 61.7243 8.14777 61.5952C8.27635 61.4944 8.44887 61.4944 8.59299 61.4371V61.4371ZM6.96801 69.7619L11.9287 65.6209L12.6332 66.4262L12.1157 66.8719C12.4318 66.8425 12.7484 66.9293 13.0506 67.0439C13.3522 67.1736 13.5681 67.3606 13.784 67.6193C13.9855 67.8492 14.1725 68.1219 14.2443 68.4674C14.3161 68.7841 14.3161 69.0857 14.2732 69.4313C14.2443 69.7474 14.1007 70.0635 13.9571 70.3512C13.7863 70.6361 13.5729 70.8932 13.3243 71.1136C12.9738 71.3881 12.5657 71.5797 12.1307 71.674C11.7138 71.7747 11.2965 71.7603 10.8941 71.6022C10.4918 71.4297 10.1178 71.1854 9.83008 70.8398C9.62863 70.5955 9.47058 70.3512 9.36985 70.1208C9.31253 69.8626 9.2836 69.5743 9.36985 69.2866L7.71648 70.6673L6.96801 69.7619ZM11.3104 67.749C11.1379 67.8063 10.9364 67.8781 10.7355 68.0367C10.4521 68.2868 10.2768 68.6371 10.2464 69.0139C10.203 69.4024 10.3182 69.7329 10.5769 70.078C10.7211 70.2649 10.922 70.3657 11.1807 70.4664C11.3822 70.5387 11.6554 70.5671 11.8853 70.5237C12.1296 70.4948 12.331 70.423 12.5325 70.236C12.7195 70.0924 12.892 69.8765 12.9927 69.6177C13.0934 69.374 13.0934 69.1152 13.0645 68.8703C13.0114 68.6082 12.8982 68.3619 12.7339 68.1508C12.5759 67.9638 12.36 67.8347 12.1585 67.7484C11.8713 67.6488 11.5981 67.6772 11.3104 67.749V67.749ZM16.1559 71.4586C16.4575 71.4586 16.7163 71.4731 16.9322 71.516C17.2199 71.6167 17.4214 71.6601 17.6657 71.7603C17.8382 71.9044 17.9962 72.0051 18.1977 72.1771C18.4993 72.4793 18.7586 72.8243 18.9167 73.2701C19.0319 73.7019 19.0608 74.1755 18.9601 74.6363C18.9028 75.082 18.6868 75.4844 18.4136 75.786C18.083 76.16 17.7091 76.3904 17.2633 76.505C16.8031 76.6636 16.3434 76.6775 15.926 76.5624C15.4849 76.4653 15.0777 76.252 14.7468 75.9446C14.3873 75.6135 14.1141 75.2401 13.9416 74.8372C13.8264 74.3775 13.7974 73.9601 13.9126 73.5004C14.0034 73.0428 14.2115 72.6165 14.5164 72.2634C14.9483 71.8615 15.4803 71.5449 16.1559 71.4586V71.4586ZM16.3 72.595C15.8976 72.6668 15.5955 72.8682 15.3367 73.1265C15.1642 73.2845 15.0924 73.5294 14.9917 73.7598C14.9483 74.0035 14.9917 74.2623 15.0351 74.5072C15.1213 74.752 15.222 74.9674 15.3946 75.1254C15.6389 75.3269 15.8403 75.4271 16.0846 75.471C16.3434 75.5428 16.6166 75.5139 16.8325 75.4421C17.0485 75.3558 17.2494 75.2117 17.4508 75.0252C17.6089 74.8238 17.7096 74.5795 17.8103 74.3491C17.8393 74.0909 17.8393 73.846 17.7669 73.6162C17.6951 73.3574 17.5655 73.1415 17.3501 72.9829C17.0651 72.7199 16.6875 72.5805 16.3 72.595V72.595ZM22.9574 73.9896L23.9063 74.6368L20.3118 79.9854L19.363 79.3382L22.9574 73.9896V73.9896ZM22.5401 81.1646L23.0721 80.144L24.0933 80.7044L23.5757 81.725L22.5401 81.1646ZM28.8096 79.7989C29.025 79.4973 29.3272 79.3532 29.6722 79.2524C30.0033 79.209 30.3333 79.238 30.621 79.3532C30.8731 79.4359 31.1038 79.5732 31.2966 79.7555C31.4836 79.9859 31.6133 80.2302 31.699 80.489C31.7279 80.7478 31.7279 81.021 31.6127 81.3087L30.5771 80.9487C30.5771 80.647 30.4619 80.5029 30.2176 80.4311C30.167 80.4042 30.111 80.3889 30.0537 80.3864C29.9964 80.3839 29.9393 80.3942 29.8865 80.4167C29.7429 80.4456 29.6711 80.5608 29.6422 80.6615C29.6138 80.7906 29.6567 80.9631 29.8726 81.1073C29.8865 81.1646 30.0022 81.2364 30.2031 81.3805C30.3901 81.4957 30.606 81.6537 30.7641 81.7973C30.8937 81.9843 31.0229 82.1708 31.0947 82.3583C31.1809 82.5453 31.2098 82.818 31.1381 83.0483C31.0271 83.3408 30.861 83.6093 30.6489 83.8391C30.4619 84.0834 30.1603 84.1986 29.8726 84.271C29.5849 84.271 29.2254 84.2565 28.8948 84.1124C28.7248 84.07 28.5639 83.997 28.4201 83.897C28.2047 83.7679 27.9888 83.71 27.8881 83.4802C27.73 83.2787 27.7011 83.0778 27.7011 82.8046C27.6149 82.5308 27.6438 82.3015 27.73 81.9988L28.8659 82.4306C28.8659 82.5887 28.8514 82.7322 28.9521 82.8764C29.0095 82.9771 29.153 83.1067 29.2254 83.1496C29.4124 83.2069 29.5704 83.1785 29.7001 83.1496C29.8152 83.0778 29.916 83.0055 29.9733 82.8624C30.0022 82.7328 29.9588 82.632 29.8726 82.4885C29.7719 82.3877 29.6422 82.2297 29.3979 82.0716C29.168 81.8563 29.01 81.7261 28.9093 81.6119C28.7078 81.3816 28.5498 81.1373 28.5208 80.9074C28.4919 80.6631 28.5064 80.4043 28.5642 80.2029C28.6082 80.0288 28.7228 79.8991 28.8096 79.7989V79.7989ZM36.1716 85.8236L36.9051 80.9921L37.9691 81.179L37.9118 81.6248C38.1989 81.2514 38.6308 81.1362 39.1628 81.2219L38.9758 82.3438C38.7652 82.3086 38.5495 82.3185 38.343 82.3727C38.2139 82.459 38.0553 82.5308 37.9546 82.7183C37.8255 82.8474 37.7676 83.0917 37.7103 83.365L37.3219 85.9967L36.1716 85.8236V85.8236ZM40.4416 86.3696L40.4561 85.2337L41.6353 85.2766L41.6064 86.413L40.4416 86.3696V86.3696ZM45.0862 82.0995C45.2612 81.8901 45.4644 81.706 45.69 81.5525C45.9349 81.3944 46.1218 81.2653 46.3517 81.1935C46.5578 81.1101 46.7763 81.0614 46.9984 81.0494C47.4402 80.9935 47.8888 81.0633 48.2928 81.2508C48.7241 81.4518 49.0836 81.7395 49.3423 82.1129C49.6295 82.4724 49.802 82.8608 49.8454 83.2921C49.9028 83.7668 49.802 84.2265 49.615 84.6433C49.4464 85.0716 49.1565 85.4414 48.7809 85.7074C48.4074 85.9227 48.0329 86.0813 47.5588 86.1097C47.0557 86.167 46.5955 86.1097 46.1786 85.9806C45.7468 85.7936 45.4162 85.5059 45.1291 85.1464C44.8274 84.7724 44.6688 84.3122 44.611 83.8381C44.5687 83.2353 44.7412 82.6454 45.0862 82.0995V82.0995ZM46.064 82.7317C45.8486 83.0623 45.8052 83.4362 45.8052 83.8102C45.8341 84.0545 45.9349 84.2994 46.0784 84.4863C46.2081 84.6733 46.4385 84.8603 46.6394 84.975C46.8842 85.0757 47.1141 85.1335 47.3439 85.0901C47.6456 85.0762 47.8904 84.961 48.0485 84.803C48.2928 84.6878 48.4369 84.4724 48.5082 84.256C48.6233 84.0117 48.6523 83.7813 48.6373 83.508C48.5804 83.2546 48.4835 83.0119 48.3501 82.789C48.1915 82.5737 48.0045 82.4156 47.8031 82.3293C47.5679 82.2271 47.3102 82.1874 47.0551 82.2142C46.6711 82.2549 46.3169 82.4399 46.064 82.7317V82.7317ZM51.5711 83.9827L52.7209 83.6372L53.0665 84.8024L51.9306 85.1185L51.5711 83.9827V83.9827ZM61.119 76.6641L61.291 75.5567L62.3266 74.9963L62.1397 76.3046L63.3044 75.6285L63.9082 76.7354L62.7435 77.3681L63.9656 77.8862L62.8871 78.4761L61.8804 78.0303L61.7223 79.1372L60.6438 79.7266L60.8447 78.4038L59.68 79.0649L59.0761 77.9725L60.2409 77.3392L59.0333 76.8077L60.0973 76.2323L61.119 76.6641V76.6641ZM5.37196 50.164L6.33527 50.6816L6.53618 51.8603L5.40036 51.2565L5.60127 52.5364L4.40812 52.7518L4.1922 51.429L3.31515 52.4068L3.09978 51.2565L3.84771 50.4512L2.89886 49.9481L2.66902 48.7405L3.83378 49.3583L3.60393 48.0933L4.84048 47.8919L5.0564 49.1289L5.93345 48.2235L6.0915 49.3877L5.37196 50.164ZM35.0642 33.4701L37.2501 35.6271L43.5909 28.9552L41.6353 26.7553L35.0642 33.4701V33.4701ZM59.2492 51.2565C59.2492 51.0411 59.2203 50.8541 59.2203 50.71C58.9899 44.4549 64.9289 34.6488 69.7599 36.7195L70.263 36.36L72.8078 36.389C72.4917 40.5872 68.9691 57.353 69.2996 57.1521L67.2723 57.1949C65.748 57.2238 66.0213 54.7936 66.0358 54.7791C63.7491 57.8711 61.0606 58.0141 59.9527 54.5348L56.8179 56.7492C56.2285 57.166 55.4233 57.5405 54.8339 56.7202C54.2591 55.8721 53.2095 50.5803 52.3319 47.1873L51.9579 47.5758L50.319 57.166L48.4931 57.1804C46.8532 57.166 46.8532 56.3752 47.0407 55.2822L47.63 51.946L43.2014 56.3752C41.174 58.417 39.3765 56.2166 39.9803 52.9672L41.9648 42.3986L37.9964 42.4131C36.9179 48.4957 35.4799 57.1365 35.7103 57.1515H33.6685C32.1153 57.1515 32.418 55.1242 32.4319 55.1242C30.2176 57.9278 27.5286 57.9278 26.321 54.7502L23.5028 56.8209C22.7554 57.3674 21.3319 57.4676 20.4259 56.3318L18.3986 53.6862C16.5293 56.7636 14.3723 58.8054 12.8481 55.2967C11.7122 52.7379 12.4023 47.9926 13.3945 45.8501C14.2137 44.1104 15.3212 43.8656 16.1264 45.0448L17.8521 47.302L19.7359 42.6869L16.1698 42.7158L16.8454 38.8192C16.9027 38.8192 18.9306 38.8192 21.303 38.8337L24.2074 31.716C22.3236 32.5502 19.8361 31.9608 18.5277 30.7961L17.334 37.0078L13.5381 36.9788L15.7524 26.9134H19.7064C21.8918 29.3147 24.0054 28.6964 26.134 26.9134L29.8581 26.8994L24.9548 38.8337H28.8803L27.946 42.4426C30.0596 38.7329 33.4531 35.6126 36.1705 36.734L36.6736 36.3456H39.2046C39.1472 36.3456 38.9747 37.2944 38.7015 38.6745L42.6849 38.6461L44.0361 31.5285H47.5732L46.2504 38.6461L50.1326 38.6745L52.3903 26.9418H55.7549L53.0375 41.6802L58.4579 36.1441L61.2187 38.315L54.9347 44.613L56.7895 51.587C57.0483 52.0901 57.3076 52.6227 57.8396 52.2482L59.2492 51.2565V51.2565ZM48.753 46.0081L49.4291 42.4426H45.547L44.267 49.2291C44.1374 49.9626 44.3527 50.351 44.7846 50.0205L48.753 46.0081ZM27.8608 42.6869L23.3603 42.7008L20.1393 50.523L21.5912 52.8097C22.0515 53.5142 23.0292 53.586 23.4461 53.1113L25.617 50.5803C25.6748 48.0354 26.5374 45.1889 27.8608 42.6869V42.6869ZM33.3535 40.8899C33.9283 40.3 34.5321 40.4152 34.5182 40.9762C34.4609 44.1393 33.5838 47.1734 32.2032 50.538C30.837 53.9026 28.5364 52.9109 29.2559 49.7467C30.0172 46.2813 31.1102 43.1466 33.3535 40.8899ZM66.8989 40.9328C67.4598 40.3863 68.0492 40.516 68.0492 41.0769C67.9918 44.111 67.1577 46.8428 65.8059 50.1785C64.4258 53.5431 62.1107 52.5514 62.8437 49.3872C63.5777 46.066 64.6701 43.0609 66.8989 40.9328V40.9328ZM15.1208 49.7467C15.0634 50.164 14.9338 50.9548 15.02 51.5008C15.1208 52.1335 15.4085 52.4357 15.6957 51.8748C15.7101 51.8319 15.8398 51.6594 16.0412 51.1847C16.0412 51.1413 16.2137 50.8252 16.113 50.5375C16.0412 50.2498 15.8687 50.0199 15.8398 50.0055C15.7535 49.9192 15.1931 49.2865 15.1208 49.7467V49.7467ZM77.1513 68.4535L76.188 69.6477L72.4639 68.7418L74.1033 72.2216L73.1106 73.4581L70.9396 68.4401L68.7826 66.6716L69.6741 65.5786L71.8456 67.3327L77.1513 68.4535V68.4535ZM81.8816 60.4159L81.1197 61.825L74.6637 61.9257L79.5381 64.6287L78.8336 65.9231L72.1762 62.2418L72.9525 60.8188L79.423 60.7181L74.5341 57.9862L75.2386 56.7208L81.8816 60.4159V60.4159ZM83.9663 53.3701C83.9234 53.3845 83.9234 53.4129 83.9234 53.4708C83.9089 53.5431 83.9089 53.6149 83.9089 53.6149C83.7653 54.1325 83.5789 54.5638 83.2912 54.8949C83.0469 55.2972 82.6729 55.5421 82.2556 55.7001C81.8387 55.8153 81.3501 55.8292 80.8465 55.743C80.5449 55.6283 80.2566 55.4987 79.9839 55.3117C79.7112 55.1247 79.4664 54.8231 79.2938 54.4636C79.1063 54.0896 79.0206 53.6439 79.0206 53.1831L75.7996 54.5498L76.2309 52.8531L79.6099 51.6594L76.7055 50.9259L77.065 49.5168L84.4699 51.3717L83.9663 53.3701V53.3701ZM84.9156 42.8021V43.909L77.2949 47.115V45.5768L79.236 44.7571L79.207 42.0252L77.2949 41.1771V39.6244L84.9156 42.8021ZM82.8883 30.6948L83.2767 32.1184L80.0846 32.9665L83.895 34.4189L84.3263 36.0584L79.9844 34.2036L76.9793 38.0139L76.548 36.3895L79.2081 33.1974L75.9298 34.06L75.5563 32.6648L82.8883 30.6948V30.6948ZM73.4267 27.9056L78.8475 21.8091L79.5237 23.0891L75.3249 27.5895L81.4214 26.8132L82.0975 28.1505L73.9737 28.9557L73.4267 27.9056V27.9056ZM69.5874 16.2297C70.2919 15.6832 71.0109 15.3526 71.7159 15.2808C72.4135 15.1962 73.121 15.2902 73.7722 15.5541C74.405 15.8557 74.937 16.2586 75.3249 16.7761C75.6717 17.1741 75.9225 17.6465 76.0578 18.1568C76.2019 18.6744 76.2303 19.2064 76.1585 19.695C76.0998 20.2289 75.9386 20.7464 75.6838 21.2192C75.4685 21.6939 75.1229 22.0818 74.6916 22.4129C74.6627 22.4413 74.6343 22.4413 74.6053 22.4847C74.5764 22.5131 74.548 22.5276 74.533 22.5276C74.1446 22.8153 73.6415 23.0307 72.9804 23.1603C72.3476 23.3039 71.672 23.275 70.9964 23.0596C70.2919 22.8726 69.6302 22.4269 69.0553 21.7368C68.6669 21.2187 68.3937 20.6872 68.2356 20.1547C68.1349 19.5943 68.1494 19.0906 68.2217 18.5731C68.3239 18.1098 68.4934 17.664 68.7248 17.2498C69.0269 16.8195 69.2718 16.4745 69.5874 16.2297V16.2297ZM67.0141 9.35684C68.107 10.1187 68.84 10.9958 69.2429 11.9162C69.6313 12.8361 69.4732 13.9007 68.7682 15.0365C68.7208 15.1369 68.6576 15.2292 68.5812 15.3097C68.3658 15.6553 68.0492 15.9569 67.6897 16.2013C67.2964 16.4785 66.8515 16.6742 66.3813 16.7767C65.8436 16.861 65.2939 16.8266 64.7708 16.6759C64.1809 16.5318 63.5627 16.2157 62.8871 15.7416L61.4346 14.692L65.9066 8.53765L67.0141 9.35684V9.35684ZM54.8061 7.14252C55.1248 6.42609 55.638 5.81337 56.2875 5.37395C56.9202 4.97159 57.5385 4.77014 58.2575 4.75567C58.9248 4.72701 59.5883 4.87055 60.1841 5.1725C60.6635 5.37731 61.091 5.68688 61.4351 6.07848C61.7946 6.49531 62.0679 6.95553 62.2265 7.41576C62.3984 7.91884 62.4418 8.43639 62.4279 8.99734C62.4708 9.50042 62.2982 10.0185 62.0679 10.5071C62.0679 10.5071 62.0679 10.5361 62.0539 10.5934C62.025 10.6368 62.025 10.6657 62.0105 10.6941C61.7952 11.0965 61.4067 11.5283 60.8747 11.9162C60.4 12.3046 59.7389 12.5779 59.0199 12.6925C58.3009 12.8361 57.5535 12.7359 56.7193 12.3475C56.1816 12.0933 55.7019 11.7311 55.3102 11.2835C54.9363 10.8522 54.7493 10.378 54.5912 9.88886C54.4777 9.41849 54.434 8.93396 54.4616 8.45086C54.5334 7.94777 54.6486 7.51594 54.8061 7.14252V7.14252ZM49.4286 3.97881C49.5438 3.56199 49.7302 3.23142 50.0185 2.95818C50.3056 2.67101 50.6078 2.49849 50.9818 2.4117C51.3702 2.32544 51.801 2.32544 52.1755 2.44063C52.4198 2.51242 52.693 2.59868 52.9373 2.82906C53.239 2.98711 53.4554 3.26035 53.6853 3.64878C53.8438 4.05114 53.9012 4.52583 53.8004 5.11517L52.3775 4.71281C52.4203 4.45404 52.363 4.28152 52.2767 4.09454C52.1476 3.92202 52.018 3.80683 51.802 3.76344C51.5867 3.70611 51.4136 3.7345 51.2127 3.80683C51.0252 3.93649 50.8961 4.12293 50.8387 4.41064C50.7953 4.68388 50.925 4.92819 51.2556 5.22983C51.5572 5.47467 51.9022 5.76238 52.2478 6.02116C52.5494 6.23653 52.8088 6.56764 53.0241 6.9266C53.2116 7.2861 53.2256 7.74632 53.1249 8.32174C53.0041 8.79469 52.7667 9.2298 52.4343 9.58722C52.1042 9.90332 51.7303 10.0764 51.3129 10.1626C50.8811 10.2489 50.5216 10.2773 50.0758 10.1482C49.6874 10.0335 49.2705 9.84653 48.9689 9.52989C48.6622 9.25387 48.4341 8.90153 48.3078 8.50872C48.1636 8.07743 48.1353 7.67507 48.2649 7.25824L49.7168 7.6606C49.6879 7.94831 49.7029 8.22101 49.8176 8.42246C49.9467 8.60944 50.1337 8.75303 50.3924 8.79643C50.6078 8.88269 50.8093 8.85375 51.0686 8.78196C51.2984 8.71017 51.4709 8.58051 51.5572 8.42246C51.6863 8.27834 51.7726 8.14922 51.7726 8.0485C51.8588 7.77526 51.8015 7.55934 51.6579 7.43022C51.5283 7.2861 51.1827 7.04179 50.6512 6.61103C50.1481 6.2226 49.7736 5.81971 49.5443 5.43181C49.3568 5.05731 49.3139 4.55423 49.4286 3.97881V3.97881ZM85.2896 42.816L86.4833 43.8082L86.4544 45.2462L85.3475 43.9952L85.2896 42.816V42.816ZM82.9456 43.3625L80.645 42.5283V44.1961L82.9456 43.3625ZM82.7302 52.4357L80.6311 51.8887L80.4297 52.7663C80.1993 53.6144 80.5015 54.1319 81.2489 54.3045C81.6228 54.4052 81.91 54.3478 82.083 54.1035C82.2845 53.8732 82.4715 53.5855 82.5577 53.1397L82.7302 52.4357V52.4357ZM70.5367 17.2798C70.2206 17.5241 70.0047 17.8262 69.8467 18.1423C69.7135 18.4661 69.6451 18.8129 69.6452 19.163C69.6024 19.5369 69.6597 19.8536 69.7459 20.1552C69.8611 20.4429 69.9763 20.6872 70.1194 20.8742C70.436 21.2192 70.7805 21.478 71.2123 21.6505C71.6436 21.7941 72.0604 21.8515 72.5496 21.7941C73.0093 21.7079 73.4267 21.5354 73.8006 21.2476C74.1457 20.9744 74.4184 20.6438 74.5914 20.1981C74.7929 19.8386 74.8647 19.3789 74.7929 18.9331C74.75 18.5013 74.5486 18.0555 74.3182 17.6677C74.1003 17.4321 73.8541 17.2245 73.5852 17.0494C73.3115 16.9058 72.9954 16.7906 72.6643 16.6899C72.3192 16.6326 71.9887 16.6181 71.6008 16.7043C71.2268 16.7906 70.8962 17.006 70.5367 17.2798V17.2798ZM66.2661 10.5216L63.4196 14.4038C63.4625 14.4466 63.4914 14.5184 63.5487 14.5329C63.5921 14.5763 63.6495 14.6052 63.6778 14.6336C64.4258 15.1512 65.1014 15.4389 65.7486 15.4099C66.4097 15.4244 66.9423 15.1083 67.4454 14.4177C67.7325 14.0293 67.8906 13.6269 67.934 13.1811C68.0058 12.7927 67.8906 12.347 67.6752 11.9446C67.4309 11.4988 67.0714 11.1249 66.5538 10.737C66.4242 10.6507 66.3524 10.5789 66.2661 10.5216V10.5216ZM56.086 7.689C55.928 8.06243 55.8273 8.43693 55.8557 8.78196C55.8701 9.17039 55.9708 9.50096 56.1144 9.78813C56.2725 10.1187 56.4311 10.4064 56.632 10.6363C56.8479 10.8088 57.0922 11.0102 57.3081 11.1109C57.7249 11.2979 58.1423 11.3697 58.602 11.3552C59.0622 11.2835 59.4796 11.1543 59.8959 10.8661C60.2698 10.6073 60.5575 10.2623 60.7735 9.87385C60.9794 9.46524 61.0641 9.00626 61.0178 8.55105C61.0322 8.14815 60.8736 7.68846 60.6443 7.30003C60.4284 6.92607 60.0689 6.65282 59.6666 6.42298C59.3789 6.29332 59.0628 6.19314 58.775 6.16421C58.4427 6.15105 58.1098 6.17513 57.7828 6.236C57.4233 6.32226 57.1067 6.46638 56.819 6.71069C56.5029 6.95553 56.2875 7.2861 56.086 7.689V7.689ZM38.515 1.46285L39.3776 0.183442L40.8874 0.0253906L39.6653 1.31927L38.515 1.46285V1.46285ZM36.6029 1.96594L40.7727 1.49125L40.9597 2.85745L38.2279 3.17356L38.4148 4.87033L41.0321 4.53923L41.1901 5.93436L38.5734 6.2794L38.8033 8.01957L41.5062 7.689L41.6643 9.02627L37.5373 9.54382L36.6029 1.96594V1.96594ZM28.5937 3.84969L30.0172 3.47626L30.8659 6.66836L32.3323 2.85799L33.9567 2.41223L32.1019 6.78355L35.8978 9.75974L34.2873 10.2055L31.0952 7.54541L31.9578 10.8093L30.5776 11.1977L28.5937 3.84969V3.84969ZM21.4905 9.54382C21.3035 9.18432 21.1889 8.82482 21.2173 8.408C21.2317 8.03403 21.3325 7.66007 21.5628 7.34396C21.7353 6.99893 22.0804 6.72569 22.411 6.53871C22.6269 6.42405 22.914 6.30886 23.2162 6.27993C23.5618 6.19367 23.9497 6.2226 24.3092 6.35172C24.741 6.52424 25.1005 6.84034 25.4166 7.34396L24.1511 8.03457C23.9931 7.84758 23.82 7.71847 23.6046 7.6606C23.4177 7.61721 23.2596 7.64614 23.0726 7.74686C22.8856 7.86205 22.7276 8.0051 22.6987 8.19262C22.6124 8.40853 22.6553 8.63838 22.8138 8.88322C22.9574 9.11307 23.2307 9.19932 23.662 9.17093C24.0788 9.15646 24.4962 9.09914 24.913 9.08467C25.3298 9.02734 25.7611 9.05627 26.1206 9.18539C26.523 9.32952 26.8685 9.60222 27.1991 10.1198C27.4434 10.58 27.5586 11.0402 27.5725 11.5149C27.528 11.9352 27.3852 12.3392 27.1557 12.6941C26.9253 13.0392 26.6526 13.3413 26.2787 13.5567C25.8883 13.7621 25.4543 13.8705 25.0132 13.8728C24.6108 13.9017 24.2079 13.7866 23.8339 13.5567C23.4455 13.4126 23.1294 13.1254 22.9135 12.7086L24.2797 11.9896C24.4522 12.2484 24.6392 12.4064 24.8835 12.4643C25.0994 12.5361 25.3293 12.5077 25.5452 12.378C25.7177 12.2773 25.8902 12.0764 26.0049 11.8605C26.1056 11.6735 26.1774 11.4581 26.149 11.2851C26.1201 11.0552 26.0627 10.9545 26.0343 10.8682C25.8902 10.595 25.7032 10.4798 25.5163 10.4798C25.3293 10.4798 24.8835 10.5232 24.2079 10.5805C23.5757 10.6652 23.0148 10.6652 22.6269 10.5361C22.2095 10.4064 21.8216 10.0758 21.4905 9.54382V9.54382ZM14.9917 9.65901L16.0412 8.78196L15.8108 10.6368L15.049 11.284L13.1513 11.1688L14.2148 10.3062L14.9772 10.4209L14.9917 9.65901V9.65901ZM14.7468 13.9725L13.8698 12.9084L17.2199 10.0614L18.0825 11.0681L19.0313 16.6759L21.4037 14.7059L22.2663 15.7844L18.6145 18.8474L17.8382 17.9414L16.8604 12.19L14.7468 13.9725V13.9725ZM8.96642 18.2141L9.65702 17.3655L17.6083 19.6521L16.6161 20.8308L14.6032 20.2843L12.8631 22.4124L13.8553 24.2817L12.8631 25.5038L8.96642 18.2141V18.2141ZM3.71859 27.2439C3.73252 27.2011 3.73252 27.1722 3.76145 27.1148C3.7631 27.0683 3.77817 27.0233 3.80484 26.9852C4.03469 26.496 4.27953 26.1081 4.63903 25.7776C4.95514 25.4615 5.3291 25.2745 5.76039 25.1877C6.23379 25.1256 6.71519 25.1901 7.15553 25.3747C7.42877 25.5043 7.71594 25.6768 7.94632 25.9067C8.1617 26.1654 8.37761 26.4821 8.4928 26.8705C8.62192 27.2589 8.63639 27.7047 8.55013 28.1644L11.9431 27.3163L11.2675 28.9552L7.73041 29.5879L10.4767 30.7527L9.93026 32.1039L2.8844 29.1272L3.71859 27.2439V27.2439ZM8.33368 38.6033L0.828125 37.1653L1.23049 35.0945C1.36014 34.4039 1.60445 33.8869 1.90662 33.513C2.23719 33.1535 2.58223 32.8947 2.97066 32.8223C3.35606 32.693 3.77066 32.6782 4.16435 32.7795C4.59564 32.9086 4.9696 33.0811 5.24231 33.3544C5.54448 33.6276 5.75986 33.9298 5.87505 34.3321C5.99024 34.7345 5.99024 35.1663 5.87505 35.6978L5.717 36.6327L8.59299 37.1647L8.33368 38.6033V38.6033ZM10.8212 19.0339L12.1012 21.133L13.1652 19.853L10.8212 19.0339V19.0339ZM4.76815 28.3219L6.78103 29.1561L7.09767 28.3653C7.45717 27.5456 7.24179 27.0136 6.53672 26.6975C6.20615 26.5533 5.93291 26.5533 5.65967 26.7837C5.45822 26.9562 5.22784 27.2295 5.02693 27.6608L4.76815 28.3219ZM4.37972 36.36L4.52331 35.6699C4.5667 35.3105 4.5667 34.9938 4.42258 34.7066C4.32186 34.4618 4.10648 34.2753 3.78984 34.2036C3.45928 34.1462 3.18603 34.1891 3.01352 34.4045C2.841 34.5915 2.69688 34.9365 2.62509 35.3105L2.49597 35.9861L4.37972 36.36Z" fill="#5C60BE"></path></svg>