<svg xmlns="http://www.w3.org/2000/svg" width="101" height="101" viewBox="0 0 101 101" fill="none"><path fill-rule="evenodd" clip-rule="evenodd" d="M50.2596 83.6689C34.9503 83.6689 22.0402 73.2238 18.2706 59.0847H28.3492C31.7742 67.8555 40.2923 74.0938 50.2596 74.0938C60.3408 74.0938 68.9333 67.7135 72.2808 58.7882H64.729L58.8641 50.1181L64.729 41.8671H72.11C68.6419 33.1851 60.1638 27.0268 50.2603 27.0268C40.2467 27.0268 31.6929 33.3277 28.3036 42.1642H18.2324C21.9589 27.9606 34.9021 17.4511 50.2596 17.4511C68.5168 17.4511 83.3701 32.3032 83.3701 50.5597C83.3701 68.8162 68.5168 83.6689 50.2596 83.6689Z" fill="#5C60BE"></path><path fill-rule="evenodd" clip-rule="evenodd" d="M50.113 100.224C22.4809 100.224 2.67029e-05 77.7439 2.67029e-05 50.113C2.67029e-05 22.4809 22.4809 6.10352e-05 50.113 6.10352e-05C77.7445 6.10352e-05 100.223 22.4809 100.223 50.113C100.223 77.7439 77.7445 100.224 50.113 100.224ZM59.0589 3.59644V9.41133C64.7537 10.6297 70.0288 12.9833 74.6109 16.262L75.3071 15.5683L77.8358 18.0971L73.3012 22.6304L70.7725 20.0998L72.682 18.1884H72.6026C66.2686 13.7833 58.5836 11.1914 50.3006 11.1914C42.0371 11.1914 34.3683 13.7727 28.0418 18.1609L29.6855 19.8027L27.1568 22.3339L22.6216 17.7981L25.1503 15.2706L26.0791 16.1957C30.802 12.837 36.256 10.4577 42.1378 9.28749V3.42068C22.4865 6.76752 6.92948 22.2507 3.47007 41.8664H10.7398V58.7881H3.547C7.15527 78.1986 22.6291 93.4811 42.1378 96.8035V91.4245C36.4449 90.2912 31.1529 88.0239 26.5395 84.8322L25.8071 85.5646L23.2783 83.034L27.8123 78.5007L30.3429 81.0307L28.3414 83.0303H28.7423C34.0783 86.5618 40.2029 88.723 46.5735 89.3224H54.0234C60.3265 88.7273 66.3896 86.6047 71.6875 83.1385L69.8781 81.3278L72.4068 78.799L76.9414 83.333L74.4127 85.8617L73.6627 85.1137C69.2367 88.0961 64.2793 90.2009 59.0595 91.3138V96.6284C78.1091 92.9713 93.1301 77.8759 96.6777 58.7881H89.4749V41.8664H96.7534C93.3515 22.5766 78.2524 7.28227 59.0589 3.59644Z" fill="#5C60BE"></path><path fill-rule="evenodd" clip-rule="evenodd" d="M62.0189 62.2816H52.9842L47.1073 54.2927H43.7418V62.3411H35.6934V38.7894H43.7418V47.584H46.5501L51.7307 38.76H60.8243L53.4601 50.9515L62.0189 62.2816Z" fill="#5C60BE"></path></svg>