<svg xmlns="http://www.w3.org/2000/svg" width="95" height="101" viewBox="0 0 95 101" fill="none"><path fill-rule="evenodd" clip-rule="evenodd" d="M23.3397 48.4625H17.4955C16.6583 45.697 16.1962 42.8316 16.1217 39.9431H3.97589L19.1886 14.5477L33.3608 38.937H46.334V6.5988H47.3087V6.59081C47.7404 6.57311 48.1812 6.56226 48.6203 6.56226C66.5287 6.56226 81.1349 21.1685 81.1349 39.0769C81.1349 42.3379 80.6507 45.4887 79.7474 48.4625H73.9026C74.9134 45.7541 75.4784 42.8997 75.5757 40.0105H47.4075V48.4625H46.334V40.0105H33.3174V39.9431H21.6638C21.7549 42.8552 22.321 45.7328 23.3397 48.4625ZM68.6545 57.1057H75.6539C69.8125 65.8312 59.8685 71.5926 48.6203 71.5926C37.3721 71.5926 27.4293 65.8289 21.5896 57.1057H28.5918C33.0548 62.0575 39.3193 65.3573 46.334 65.9517V57.1057H47.4075V66.0231C47.8095 66.0419 48.2132 66.0511 48.6203 66.0511C56.5567 66.0511 63.7119 62.5925 68.6545 57.1057ZM75.5916 38.937H47.4075V12.1312C47.8115 12.1127 48.2159 12.1034 48.6203 12.1033C63.4299 12.1033 75.5157 24.1457 75.5916 38.937Z" fill="#5C60BE"></path><path d="M84.2048 7.69775C85.2955 7.69775 86.285 8.14199 87.0016 8.85917C87.3701 9.22582 87.6626 9.66167 87.8621 10.1417C88.0616 10.6217 88.1644 11.1364 88.1644 11.6562C88.1644 12.1761 88.0616 12.6908 87.8621 13.1708C87.6626 13.6508 87.3701 14.0866 87.0016 14.4533C86.6349 14.8215 86.199 15.1137 85.7191 15.313C85.2391 15.5124 84.7245 15.615 84.2048 15.615C83.6851 15.615 83.1706 15.5124 82.6906 15.313C82.2107 15.1137 81.7748 14.8215 81.4081 14.4533C81.0399 14.0865 80.7478 13.6505 80.5486 13.1704C80.3493 12.6904 80.2469 12.1757 80.2472 11.6559C80.2472 10.5659 80.6909 9.57578 81.4081 8.85917C81.7747 8.49086 82.2106 8.19865 82.6905 7.99933C83.1705 7.80001 83.6851 7.69752 84.2048 7.69775ZM86.6105 9.25031C86.2951 8.93337 85.9203 8.68186 85.5075 8.51025C85.0946 8.33863 84.6519 8.25028 84.2048 8.25028C83.7578 8.25028 83.3151 8.33863 82.9022 8.51025C82.4894 8.68186 82.1145 8.93337 81.7992 9.25031C81.4825 9.5658 81.2313 9.94071 81.0598 10.3535C80.8884 10.7663 80.8001 11.2089 80.8001 11.6559C80.8001 12.1029 80.8884 12.5456 81.0598 12.9584C81.2313 13.3712 81.4825 13.7461 81.7992 14.0616C82.1145 14.3785 82.4894 14.63 82.9022 14.8016C83.3151 14.9733 83.7578 15.0616 84.2048 15.0616C84.6519 15.0616 85.0946 14.9733 85.5075 14.8016C85.9203 14.63 86.2951 14.3785 86.6105 14.0616C86.9271 13.7461 87.1784 13.3712 87.3499 12.9584C87.5213 12.5456 87.6096 12.1029 87.6096 11.6559C87.6096 11.2089 87.5213 10.7663 87.3499 10.3535C87.1784 9.94071 86.9271 9.5658 86.6105 9.25031Z" fill="#5C60BE"></path><path fill-rule="evenodd" clip-rule="evenodd" d="M83.063 12.0091V14.1452H82.4594V9.16724H84.5224C84.9484 9.16724 85.2996 9.27002 85.5754 9.47387C85.8517 9.67828 85.9905 10.0232 85.9905 10.5068C85.9905 10.8334 85.9322 11.0841 85.8198 11.2565C85.7073 11.429 85.5554 11.5774 85.3681 11.6979C85.5365 11.7756 85.6656 11.8744 85.7541 11.9931C85.842 12.1119 85.8923 12.326 85.9037 12.6338L85.9391 13.536C85.9425 13.6799 85.9591 13.7855 85.9859 13.8506C86.015 13.9151 86.0739 13.9768 86.1641 14.0333V14.1447H85.4235C85.3909 14.0196 85.3701 13.8917 85.3612 13.7627C85.3356 13.475 85.3213 13.1864 85.3184 12.8976C85.3184 12.6327 85.2659 12.4185 85.1625 12.2546C85.0575 12.0908 84.8433 12.0085 84.5224 12.0085H83.063V12.0091ZM83.063 9.74167V11.4341H84.4602C84.7303 11.4341 84.9496 11.3736 85.1157 11.2548C85.283 11.1361 85.3675 10.9094 85.3675 10.5759C85.3675 10.0197 85.0997 9.74167 84.5658 9.74167H83.063ZM62.9973 78.6412V81.6224C63.2563 81.5505 63.5091 81.4581 63.7533 81.346C64.0177 81.2267 64.2867 81.0931 64.5562 80.948C65.0958 80.6622 65.6054 80.3231 66.0773 79.9356C66.5604 79.5388 66.9641 79.1071 67.2753 78.6417H72.6878C72.5155 78.9616 72.3232 79.2704 72.1123 79.5662C71.885 79.8917 71.6229 80.22 71.3391 80.5512C70.8002 81.1597 70.2137 81.7243 69.585 82.2396C68.9295 82.7827 68.2591 83.2286 67.5751 83.5723C68.4875 84.4614 69.3012 85.4315 70.0133 86.4856C70.7253 87.5397 71.3334 88.6114 71.8313 89.6964C72.1145 90.3187 72.3624 90.9434 72.5685 91.5635C72.7735 92.1859 72.9465 92.798 73.0738 93.3925H68.4321C68.2025 92.1711 67.7802 90.9941 67.1811 89.9053C66.589 88.8393 65.9557 87.8988 65.2853 87.0926C65.0434 86.7767 64.7873 86.4718 64.5179 86.179C64.2779 85.9168 64.0276 85.6642 63.7676 85.4218C63.654 85.4732 63.5312 85.528 63.4039 85.5788C63.2717 85.6339 63.1361 85.6804 62.9979 85.7182V93.3919H58.4836V78.6417H62.9973V78.6412ZM38.571 78.6412V93.3913H33.9516V81.9421H28.8051V93.3913H24.1857V78.6412H38.571ZM55.3299 78.6412V93.3913H50.7099V81.9421H45.5635V93.3913H40.9441V78.6412H55.3299Z" fill="#5C60BE"></path><path fill-rule="evenodd" clip-rule="evenodd" d="M16.8597 49.1841C20.5872 49.1441 25.0268 49.2292 28.7548 49.1886C30.7505 49.1778 30.8264 49.6963 30.6546 50.7452C30.5392 51.6451 30.3925 52.7015 30.2143 53.6014C30.0602 54.121 29.9374 54.9198 28.8228 54.9084H24.9605C25.0673 54.302 25.2044 53.538 25.3111 52.806C25.3397 52.0808 24.8418 51.9809 23.7551 51.9415H16.2345L16.8597 49.1841Z" fill="#5C60BE"></path><path fill-rule="evenodd" clip-rule="evenodd" d="M15.925 53.4776L23.8551 53.4461C23.834 53.7174 23.7517 53.9869 23.7312 54.257C23.6695 54.6418 23.6073 54.9016 23.0808 54.8805H19.7667L19.488 56.2521L15.2444 56.3143L15.925 53.4776ZM32.2865 49.1768H36.468L35.8421 52.0757H31.6299L32.2865 49.1768Z" fill="#5C60BE"></path><path fill-rule="evenodd" clip-rule="evenodd" d="M31.4124 53.3536H35.6561C36.2551 53.3536 36.8541 53.1349 37.0808 52.6992L38.2313 50.0829C38.3849 49.6523 39.1267 49.2218 39.8998 49.1653L45.692 49.1767L44.9486 52.1071H40.6741C39.9723 52.1271 39.4556 52.4594 39.218 53.0104L38.2576 55.3178C38.0926 55.8266 37.4622 56.304 36.7399 56.2834H30.9476L31.4124 53.3536Z" fill="#5C60BE"></path><path fill-rule="evenodd" clip-rule="evenodd" d="M44.6397 53.3228L43.8465 56.2835L39.7502 56.3149L40.7083 53.2914L44.6397 53.3228ZM55.6069 53.3228L54.7869 56.2835L50.5558 56.3149L51.5454 53.2914L55.6069 53.3228ZM65.6965 53.3228L64.8891 56.2835L60.7157 56.3149L61.6915 53.2914L65.6965 53.3228ZM80.1686 53.3228L79.3646 56.2835L75.2106 56.3149L76.1819 53.2914L80.1686 53.3228ZM47.1172 49.1768L46.4052 52.138H60.4993L60.4684 52.0757L61.2421 49.2076L47.1172 49.1768Z" fill="#5C60BE"></path><path fill-rule="evenodd" clip-rule="evenodd" d="M61.9543 52.138L62.6669 49.2076L68.6447 49.1768C69.3059 49.2076 69.7502 49.5508 69.8838 49.9248L70.8453 53.2914C71.619 52.1694 72.3933 51.0462 73.1682 49.9248C73.4468 49.488 73.8494 49.2076 74.4684 49.1768H81.2838L80.4473 52.1386H75.7702C74.9748 52.1797 74.3964 52.7507 74.2211 53.292L72.5795 56.284L68.1496 56.2526L67.5307 53.3228C67.3856 52.7718 67.0556 52.1271 66.2602 52.1386H61.9543V52.138Z" fill="#5C60BE"></path><path d="M6.81107 -0.000244141H87.6965C89.5545 -0.000244141 91.2464 0.683817 92.4752 1.78528C93.7286 2.91016 94.5086 4.46957 94.5086 6.19228V94.1593C94.5086 95.8826 93.7291 97.4425 92.4752 98.5668C91.2464 99.6689 89.5545 100.352 87.6965 100.352H6.81107C4.9536 100.352 3.26172 99.6689 2.03292 98.5668C0.779 97.4425 0.000152588 95.8826 0.000152588 94.1593V6.19285C0.000152588 4.47014 0.778429 2.91016 2.03292 1.78585C3.26172 0.683818 4.9536 -0.000244141 6.81107 -0.000244141ZM87.6965 1.67279H6.81107C5.383 1.67279 4.08682 2.19412 3.15038 3.03407C2.23906 3.85117 1.67319 4.96977 1.67319 6.19285V94.1598C1.67319 95.3835 2.23906 96.5021 3.15038 97.3192C4.08739 98.1592 5.383 98.6799 6.81107 98.6799H87.6965C89.1251 98.6799 90.4208 98.1592 91.3578 97.3192C92.2691 96.5015 92.8344 95.3829 92.8344 94.1598V6.19285C92.8344 4.96977 92.2691 3.85117 91.3578 3.03407C90.4213 2.19412 89.1251 1.67279 87.6965 1.67279Z" fill="#5C60BE"></path></svg>