<svg xmlns="http://www.w3.org/2000/svg" width="100" height="100" viewBox="0 0 100 100" fill="none"><path d="M50 0C63.7708 0 76.27 5.61542 85.3272 14.6727C94.3845 23.7294 99.9999 36.2297 99.9999 49.9994V50.0005C99.9999 63.7708 94.3845 76.27 85.3272 85.3272C76.27 94.3845 63.7708 99.9999 50.0011 99.9999H50.0005C36.2308 99.9999 23.7306 94.3845 14.6733 85.3272C5.61599 76.27 0 63.7708 0 50.0005V49.9994C0 36.2297 5.61542 23.73 14.6727 14.6727C23.73 5.61542 36.2297 0 49.9988 0H50ZM50 1.42021H49.9988C36.6212 1.42021 24.4771 6.87632 15.6764 15.6764C6.87575 24.4765 1.42021 36.6217 1.42021 49.9994V50.0005C1.42021 63.3788 6.87632 75.5229 15.6764 84.3235C24.4771 93.1242 36.6223 98.5797 50 98.5809H50.0005C63.3782 98.5797 75.5229 93.1242 84.3235 84.3235C93.1242 75.5229 98.5797 63.3782 98.5797 50.0005V49.9994C98.5797 36.6217 93.1242 24.4771 84.3235 15.6764C75.5229 6.87575 63.3788 1.42021 50 1.42021Z" fill="#5C60BE"></path><path fill-rule="evenodd" clip-rule="evenodd" d="M8.16214 24.0351L27.4409 60.1225H72.6004L91.7938 24.0351C72.3347 -7.47366 27.1752 -6.11319 8.16214 24.0351ZM9.16244 58.7945L10.0842 60.7268C9.45604 61.0927 9.05148 61.5183 8.86998 61.9991C8.6896 62.4827 8.71236 63.0403 8.93996 63.6662C9.18122 64.3285 9.50384 64.7775 9.90555 65.0108C10.3095 65.2452 10.7004 65.2941 11.0765 65.1576C11.3172 65.0699 11.497 64.9243 11.6142 64.7229C11.732 64.5209 11.7889 64.2159 11.7866 63.8193C11.7804 63.5479 11.7297 62.9436 11.6307 62.0076C11.5027 60.8042 11.5573 59.9052 11.794 59.3162C12.1275 58.4861 12.6988 57.9239 13.5056 57.6303C14.0239 57.4414 14.5651 57.4124 15.1232 57.5404C15.682 57.6707 16.1833 57.9706 16.6203 58.4383C17.059 58.9049 17.4214 59.533 17.7071 60.3177C18.1725 61.5979 18.2419 62.6648 17.9182 63.5137C17.5921 64.365 16.9645 64.9783 16.0399 65.3527L15.2012 63.3248C15.6917 63.0483 15.9995 62.7194 16.1247 62.3467C16.2493 61.9746 16.2049 61.4955 15.9938 60.9163C15.7765 60.3183 15.4811 59.8926 15.1141 59.6451C14.8769 59.4841 14.6248 59.4517 14.3614 59.5473C14.1207 59.6349 13.9511 59.8153 13.855 60.0798C13.7309 60.419 13.7326 61.1336 13.8623 62.2204C13.9904 63.3083 14.0143 64.1408 13.9363 64.712C13.8589 65.2833 13.6484 65.788 13.3099 66.217C12.9713 66.6472 12.4768 66.9818 11.8327 67.2162C11.2503 67.4286 10.6186 67.4667 10.0148 67.326C9.38492 67.1872 8.83754 66.864 8.37381 66.3616C7.91008 65.8591 7.51576 65.1627 7.19371 64.2768C6.72486 62.9886 6.66227 61.8898 7.00708 60.9817C7.35189 60.0736 8.0694 59.3436 9.1613 58.7945H9.16244ZM12.948 75.1332L20.3352 69.9599L18.4871 67.3203L19.9916 66.2665L24.9396 73.3335L23.4351 74.3873L21.5916 71.7545L14.2043 76.9278L12.948 75.1332ZM26.452 88.4858L24.5993 86.9854L25.4141 84.4727L22.0405 81.741L19.7941 83.0935L17.987 81.6311L28.1032 75.8547L29.9052 77.3136L26.452 88.4858ZM26.0189 82.6081L27.3914 78.5375L23.7151 80.7446L26.0189 82.6081ZM34.2648 80.5188L38.0521 81.8246C38.9056 82.1182 39.5366 82.409 39.9389 82.6935C40.4703 83.0681 40.8919 83.5781 41.1599 84.1706C41.4325 84.7709 41.5696 85.4389 41.5668 86.1712C41.5651 86.9046 41.4001 87.7513 41.0689 88.7129C40.7776 89.5584 40.4208 90.2509 40.002 90.7897C39.4882 91.4463 38.9124 91.9254 38.2785 92.2241C37.7983 92.4506 37.2179 92.5564 36.5397 92.5422C36.0316 92.528 35.3937 92.3897 34.6296 92.1268L30.7302 90.7846L34.2648 80.5188ZM35.7403 82.9689L33.3971 89.7678L34.9454 90.3015C35.5235 90.5007 35.9536 90.6105 36.233 90.6361C36.5972 90.6685 36.926 90.6207 37.2145 90.4972C37.5058 90.3726 37.8023 90.1041 38.0999 89.6927C38.398 89.2813 38.6848 88.6782 38.9579 87.8833C39.2305 87.0918 39.3699 86.4585 39.3761 85.9851C39.383 85.5128 39.3005 85.1117 39.1303 84.7879C38.9608 84.4625 38.6962 84.1899 38.3377 83.9731C38.0709 83.8098 37.5138 83.5811 36.67 83.2898L35.7403 82.9689ZM47.3694 94.5559L47.8417 85.5498L44.6246 85.3808L44.7207 83.547L53.3359 83.9982L53.2392 85.8332L50.03 85.6642L49.5578 94.6702L47.3694 94.5559ZM57.8452 94.2014L54.8779 83.8525L56.9837 83.2482L59.4475 91.8401L64.6862 90.3374L65.1909 92.0956L57.8452 94.2014ZM66.7204 86.0699C66.1036 85.1544 65.7201 84.2906 65.5756 83.4838C65.4711 82.8885 65.473 82.2793 65.5813 81.6846C65.6882 81.0821 65.8948 80.5489 66.198 80.0897C66.5981 79.4752 67.1659 78.9182 67.8982 78.4249C69.2228 77.5315 70.5623 77.2271 71.9125 77.5116C73.2638 77.7984 74.4343 78.6752 75.4221 80.1387C76.4013 81.5913 76.7734 82.995 76.5367 84.3464C76.3011 85.6989 75.5222 86.8238 74.201 87.7148C72.8627 88.6173 71.5227 88.9274 70.1833 88.6452C68.8405 88.3601 67.6871 87.502 66.7204 86.0699ZM68.5514 84.743C69.2393 85.7632 69.995 86.38 70.8206 86.5877C71.6462 86.7965 72.4229 86.6554 73.1466 86.1677C73.8698 85.679 74.288 85.0167 74.4001 84.1831C74.5122 83.3472 74.2169 82.4061 73.5131 81.3637C72.8183 80.3327 72.0718 79.7148 71.278 79.5122C70.4854 79.3102 69.7122 79.4621 68.9634 79.9668C68.2157 80.4715 67.7821 81.1373 67.6712 81.9583C67.5602 82.7794 67.8521 83.7108 68.5514 84.7464V84.743ZM82.4076 80.9062L73.8528 74.2251L75.203 72.497L78.5692 75.1264L81.2127 71.7426L77.8465 69.1121L79.1956 67.3852L87.7494 74.0686L86.4003 75.7955L82.6608 72.8726L80.0161 76.2575L83.7567 79.1793L82.4076 80.9062ZM90.7445 68.8816L80.4212 65.5274L81.079 63.4995L89.3471 61.5149L82.4526 59.2741L83.0813 57.3361L93.4057 60.6909L92.7258 62.7837L84.6421 64.7587L91.3733 66.9471L90.7445 68.8816Z" fill="#5C60BE"></path><path fill-rule="evenodd" clip-rule="evenodd" d="M36.1732 54.5983H33.8967V46.0178C33.0648 46.7962 32.0833 47.3737 30.9538 47.7447V45.6798C31.549 45.4858 32.196 45.1148 32.8896 44.5737C33.586 44.0303 34.0668 43.397 34.3251 42.6721H36.1727V54.5983H36.1732ZM39.627 51.8511L41.8285 51.6099C41.8825 52.0588 42.0248 52.3911 42.2513 52.6068C42.4771 52.8213 42.7793 52.93 43.1503 52.93C43.6208 52.93 44.0214 52.7132 44.3491 52.2819C44.6769 51.8506 44.8903 50.9516 44.9807 49.5917C44.4095 50.2557 43.6914 50.588 42.8333 50.588C41.8996 50.588 41.0934 50.2278 40.4162 49.5074C39.7391 48.7871 39.3983 47.8454 39.3983 46.6898C39.3983 45.4869 39.7562 44.5145 40.472 43.7771C41.1878 43.0397 42.0993 42.671 43.2055 42.671C44.4089 42.671 45.3984 43.1364 46.1699 44.0678C46.9415 44.9993 47.3301 46.5339 47.3301 48.6665C47.3301 50.8378 46.9273 52.4048 46.1227 53.3658C45.3187 54.328 44.2689 54.8082 42.9796 54.8082C42.0527 54.8082 41.3005 54.5601 40.7292 54.0668C40.1556 53.5723 39.7869 52.8332 39.6253 51.85H39.627V51.8511ZM44.7799 46.8758C44.7799 46.143 44.6097 45.5734 44.2735 45.1688C43.9372 44.7637 43.5446 44.5612 43.1002 44.5612C42.6797 44.5612 42.3286 44.7273 42.0527 45.059C41.7744 45.3908 41.6345 45.9364 41.6345 46.6909C41.6345 47.4585 41.7858 48.0235 42.0874 48.3814C42.389 48.7387 42.7708 48.9202 43.2237 48.9202C43.659 48.9202 44.0299 48.7478 44.327 48.403C44.6268 48.0582 44.7776 47.5472 44.7776 46.8787L44.7799 46.8758ZM48.0761 54.8025L51.0172 42.5185H52.7265L49.7535 54.8002L48.0761 54.8025ZM61.1067 52.4833L61.1044 54.5983H53.1231C53.2096 53.8005 53.4696 53.0415 53.9009 52.3257C54.3322 51.6099 55.1891 50.6597 56.4625 49.4779C57.4884 48.5231 58.1183 47.8739 58.3493 47.5336C58.6617 47.0636 58.8181 46.5976 58.8181 46.1413C58.8181 45.6343 58.6827 45.2422 58.4113 44.9703C58.1388 44.6983 57.7598 44.5606 57.279 44.5606C56.8056 44.5606 56.4255 44.7051 56.1456 44.9896C55.8656 45.2741 55.7035 45.7526 55.6596 46.4167L53.3905 46.1885C53.5236 44.9361 53.9504 44.0348 54.6616 43.4914C55.3729 42.9464 56.2651 42.6727 57.3353 42.6727C58.508 42.6727 59.4304 42.9896 60.099 43.6212C60.767 44.2528 61.1038 45.0397 61.1038 45.9802C61.1038 46.5145 61.0071 47.0232 60.817 47.5063C60.6247 47.9894 60.3192 48.4958 59.9044 49.0261C59.629 49.3754 59.1311 49.8813 58.413 50.5396C57.695 51.1996 57.2375 51.6366 57.0486 51.8523C56.8732 52.0482 56.7174 52.2607 56.5831 52.4867L61.1067 52.4833ZM66.4945 42.6721C67.6438 42.6721 68.5451 43.084 69.1915 43.9051C69.9625 44.8752 70.3506 46.4901 70.3506 48.741C70.3506 50.988 69.9602 52.6051 69.1824 53.5871C68.54 54.3963 67.6433 54.8008 66.4939 54.8008C65.3383 54.8008 64.4046 54.3576 63.6979 53.4682C62.99 52.58 62.6367 50.9954 62.6367 48.7171C62.6367 46.4815 63.027 44.8713 63.8037 43.888C64.4467 43.0766 65.3434 42.6721 66.4945 42.6721ZM66.4945 44.5583C66.2179 44.5583 65.9721 44.6488 65.7565 44.8235C65.5408 44.9981 65.3707 45.3151 65.2541 45.768C65.0999 46.3563 65.0196 47.3481 65.0196 48.741C65.0196 50.1333 65.0908 51.0932 65.2285 51.6122C65.3684 52.1345 65.5477 52.481 65.7588 52.6534C65.9721 52.8258 66.2179 52.9146 66.4945 52.9146C66.7676 52.9146 67.0134 52.8258 67.229 52.6511C67.4447 52.4742 67.616 52.1601 67.7337 51.7078C67.8891 51.1257 67.9693 50.1328 67.9693 48.741C67.9693 47.3481 67.8982 46.391 67.7582 45.8693C67.6171 45.3475 67.4384 44.9981 67.2268 44.8235C67.0216 44.6517 66.762 44.5586 66.4945 44.5606V44.5583ZM40.0925 11.3972H48.2855V21.8559C48.2855 22.6485 48.3771 23.3018 48.566 23.8144C48.7549 24.322 49.2101 24.5786 49.931 24.5786C50.632 24.5547 51.0804 24.31 51.2755 23.844C51.4724 23.3831 51.5703 22.6776 51.5703 21.7217V11.3972H59.8065V22.1069C59.8065 24.8352 58.9519 26.8813 57.2426 28.2571C55.5265 29.633 53.0343 30.3209 49.7563 30.3209C48.2223 30.3209 46.8505 30.1405 45.6527 29.7849C44.4555 29.4236 43.4399 28.8984 42.6131 28.1991C41.7801 27.4992 41.1497 26.6594 40.7298 25.6682C40.3024 24.6776 40.0925 23.5584 40.0925 22.3106V11.3972ZM82.5834 27.8287L87.5234 24.0636C83.7396 15.5384 77.4215 11.2248 71.0391 16.4647C68.6641 19.7831 69.5944 24.3203 72.8337 28.6185C74.1241 30.7465 72.7381 31.9061 70.9287 29.5294C69.3508 27.7018 68.078 25.518 66.9446 23.1726L61.7394 26.314C66.1127 36.2806 71.1921 41.1204 78.9168 35.8953C81.7197 32.8598 81.1382 28.8899 78.1953 24.3311C76.4394 21.8281 78.7831 20.8579 79.7834 22.908C80.9396 24.3942 81.6673 26.3243 82.5834 27.8287ZM27.0158 17.659L23.0806 12.8538C14.6925 16.9335 10.6026 23.3973 16.0621 29.5937C19.4613 31.8504 23.9632 30.7624 28.1458 27.3752C30.2272 26.0113 31.4352 27.3559 29.1222 29.2472C27.3515 30.8882 25.2132 32.2356 22.9088 33.4509L26.23 38.5435C36.0372 33.8253 40.6973 28.5786 35.2048 21.0417C32.0736 18.3469 28.1259 19.0661 23.6724 22.166C21.2325 24.009 20.3073 21.5595 22.321 20.4875C23.7668 19.2795 25.5444 18.6269 27.0158 17.659Z" fill="#090B34"></path></svg>