<svg xmlns="http://www.w3.org/2000/svg" xmlns:xlink="http://www.w3.org/1999/xlink" width="200" zoomAndPan="magnify" viewBox="0 0 150 149.999998" height="200" preserveAspectRatio="xMidYMid meet" version="1.0"><defs><g/><clipPath id="95a0e70dc7"><path d="M 30.875 37 L 51 37 L 51 56 L 30.875 56 Z M 30.875 37 " clip-rule="nonzero"/></clipPath><clipPath id="af5e31d493"><path d="M 79 2.902344 L 94 2.902344 L 94 29 L 79 29 Z M 79 2.902344 " clip-rule="nonzero"/></clipPath><clipPath id="cad5daab89"><path d="M 30.875 57 L 51 57 L 51 76 L 30.875 76 Z M 30.875 57 " clip-rule="nonzero"/></clipPath><clipPath id="bb6f7d66a5"><path d="M 41 65 L 68 65 L 68 109.402344 L 41 109.402344 Z M 41 65 " clip-rule="nonzero"/></clipPath><clipPath id="bcb7c43ba2"><path d="M 99 49 L 119.117188 49 L 119.117188 68 L 99 68 Z M 99 49 " clip-rule="nonzero"/></clipPath></defs><g clip-path="url(#95a0e70dc7)"><path fill="#80cc28" d="M 30.878906 37.398438 C 30.878906 37.398438 54.972656 35.441406 50.074219 53.753906 C 38.984375 58.789062 35.96875 50.046875 33.980469 43.546875 C 32.882812 39.953125 30.878906 37.398438 30.878906 37.398438 " fill-opacity="1" fill-rule="nonzero"/></g><path fill="#80cc28" d="M 50.980469 12.429688 C 50.980469 12.429688 69.398438 28.140625 53.027344 37.613281 C 41.636719 33.304688 45.667969 24.984375 48.839844 18.980469 C 50.597656 15.660156 50.980469 12.429688 50.980469 12.429688 " fill-opacity="1" fill-rule="nonzero"/><g clip-path="url(#af5e31d493)"><path fill="#80cc28" d="M 87.945312 2.910156 C 87.945312 2.910156 69.527344 18.621094 85.902344 28.09375 C 97.289062 23.785156 93.261719 15.464844 90.085938 9.457031 C 88.328125 6.136719 87.945312 2.910156 87.945312 2.910156 " fill-opacity="1" fill-rule="nonzero"/></g><path fill="#80cc28" d="M 97.210938 20.882812 C 97.210938 20.882812 82.929688 33.066406 95.628906 40.414062 C 104.460938 37.070312 101.335938 30.617188 98.871094 25.960938 C 97.511719 23.386719 97.210938 20.882812 97.210938 20.882812 " fill-opacity="1" fill-rule="nonzero"/><path fill="#80cc28" d="M 54.917969 37.359375 C 54.917969 37.359375 72.113281 36.195312 68.445312 49.203125 C 60.492188 52.683594 58.425781 46.425781 57.070312 41.773438 C 56.324219 39.199219 54.917969 37.359375 54.917969 37.359375 " fill-opacity="1" fill-rule="nonzero"/><path fill="#1c6434" d="M 96.773438 32.3125 C 96.773438 31.515625 96.125 30.867188 95.332031 30.867188 C 94.535156 30.867188 93.890625 31.515625 93.890625 32.3125 C 93.890625 33.109375 94.535156 33.757812 95.332031 33.757812 C 96.125 33.757812 96.773438 33.109375 96.773438 32.3125 Z M 94.636719 34.769531 C 93.566406 34.464844 92.785156 33.480469 92.785156 32.3125 C 92.785156 30.902344 93.925781 29.757812 95.332031 29.757812 C 96.738281 29.757812 97.878906 30.902344 97.878906 32.3125 C 97.878906 33.402344 97.199219 34.328125 96.242188 34.695312 L 96.242188 58.558594 L 80.367188 74.488281 L 80.367188 96.203125 L 78.757812 96.203125 L 78.757812 73.820312 L 94.636719 57.890625 L 94.636719 34.769531 " fill-opacity="1" fill-rule="nonzero"/><path fill="#1c6434" d="M 87.726562 20.363281 C 87.726562 19.566406 87.082031 18.917969 86.285156 18.917969 C 85.492188 18.917969 84.847656 19.566406 84.847656 20.363281 C 84.847656 21.164062 85.492188 21.808594 86.285156 21.808594 C 87.082031 21.808594 87.726562 21.164062 87.726562 20.363281 Z M 85.523438 22.800781 C 84.492188 22.476562 83.742188 21.507812 83.742188 20.363281 C 83.742188 18.953125 84.882812 17.8125 86.285156 17.8125 C 87.691406 17.8125 88.832031 18.953125 88.832031 20.363281 C 88.832031 21.476562 88.121094 22.421875 87.132812 22.773438 L 87.132812 44.757812 L 80.367188 51.546875 L 80.367188 66.640625 L 78.757812 66.640625 L 78.757812 50.878906 L 85.523438 44.089844 L 85.523438 22.800781 " fill-opacity="1" fill-rule="nonzero"/><path fill="#1c6434" d="M 44.28125 49.511719 C 45.078125 49.511719 45.722656 48.863281 45.722656 48.066406 C 45.722656 47.269531 45.078125 46.621094 44.28125 46.621094 C 43.484375 46.621094 42.839844 47.269531 42.839844 48.066406 C 42.839844 48.863281 43.484375 49.511719 44.28125 49.511719 Z M 44.28125 45.511719 C 45.6875 45.511719 46.828125 46.65625 46.828125 48.066406 C 46.828125 48.488281 46.722656 48.890625 46.539062 49.242188 L 60.183594 62.933594 L 60.183594 71.453125 L 67.371094 78.660156 L 67.371094 89.484375 L 65.761719 89.484375 L 65.761719 79.328125 L 58.578125 72.121094 L 58.578125 63.601562 L 45.386719 50.363281 C 45.050781 50.527344 44.675781 50.621094 44.28125 50.621094 C 42.875 50.621094 41.734375 49.476562 41.734375 48.066406 C 41.734375 46.65625 42.875 45.511719 44.28125 45.511719 " fill-opacity="1" fill-rule="nonzero"/><g clip-path="url(#cad5daab89)"><path fill="#80cc28" d="M 30.878906 57.320312 C 30.878906 57.320312 54.972656 55.363281 50.074219 73.675781 C 38.984375 78.710938 35.96875 69.96875 33.980469 63.46875 C 32.882812 59.875 30.878906 57.320312 30.878906 57.320312 " fill-opacity="1" fill-rule="nonzero"/></g><g clip-path="url(#bb6f7d66a5)"><path fill="#1c6434" d="M 44.28125 69.433594 C 45.078125 69.433594 45.722656 68.785156 45.722656 67.988281 C 45.722656 67.191406 45.078125 66.542969 44.28125 66.542969 C 43.484375 66.542969 42.839844 67.191406 42.839844 67.988281 C 42.839844 68.785156 43.484375 69.433594 44.28125 69.433594 Z M 44.28125 65.433594 C 45.6875 65.433594 46.828125 66.578125 46.828125 67.988281 C 46.828125 68.414062 46.722656 68.8125 46.539062 69.164062 L 60.183594 82.855469 L 60.183594 91.375 L 67.371094 98.582031 L 67.371094 109.402344 L 65.761719 109.402344 L 65.761719 99.25 L 58.578125 92.042969 L 58.578125 83.523438 L 45.386719 70.285156 C 45.050781 70.449219 44.675781 70.542969 44.28125 70.542969 C 42.875 70.542969 41.734375 69.398438 41.734375 67.988281 C 41.734375 66.578125 42.875 65.433594 44.28125 65.433594 " fill-opacity="1" fill-rule="nonzero"/></g><g clip-path="url(#bcb7c43ba2)"><path fill="#80cc28" d="M 119.378906 49.570312 C 119.378906 49.570312 95.285156 47.617188 100.1875 65.929688 C 111.277344 70.964844 114.289062 62.222656 116.277344 55.71875 C 117.378906 52.128906 119.378906 49.570312 119.378906 49.570312 " fill-opacity="1" fill-rule="nonzero"/></g><path fill="#1c6434" d="M 107.417969 60.238281 C 107.417969 59.441406 106.773438 58.796875 105.980469 58.796875 C 105.183594 58.796875 104.539062 59.441406 104.539062 60.238281 C 104.539062 61.039062 105.183594 61.683594 105.980469 61.683594 C 106.773438 61.683594 107.417969 61.039062 107.417969 60.238281 Z M 108.523438 60.238281 C 108.523438 61.652344 107.386719 62.792969 105.980469 62.792969 C 105.582031 62.792969 105.210938 62.703125 104.875 62.539062 L 91.683594 75.773438 L 91.683594 84.292969 L 84.5 91.503906 L 84.5 101.65625 L 82.890625 101.65625 L 82.890625 90.835938 L 90.074219 83.625 L 90.074219 75.105469 L 103.71875 61.414062 C 103.539062 61.0625 103.433594 60.664062 103.433594 60.238281 C 103.433594 58.828125 104.574219 57.6875 105.980469 57.6875 C 107.386719 57.6875 108.523438 58.828125 108.523438 60.238281 " fill-opacity="1" fill-rule="nonzero"/><path fill="#1c6434" d="M 53.148438 29.203125 C 52.355469 29.203125 51.707031 29.847656 51.707031 30.648438 C 51.707031 31.445312 52.355469 32.09375 53.148438 32.09375 C 53.945312 32.09375 54.589844 31.445312 54.589844 30.648438 C 54.589844 29.847656 53.945312 29.203125 53.148438 29.203125 Z M 54.050781 33.035156 L 54.050781 47.417969 L 67.371094 60.78125 L 67.371094 73.347656 L 65.761719 73.347656 L 65.761719 61.449219 L 52.441406 48.085938 L 52.441406 33.101562 C 51.378906 32.792969 50.601562 31.8125 50.601562 30.648438 C 50.601562 29.238281 51.742188 28.09375 53.148438 28.09375 C 54.554688 28.09375 55.695312 29.238281 55.695312 30.648438 C 55.695312 31.738281 55.011719 32.667969 54.050781 33.035156 " fill-opacity="1" fill-rule="nonzero"/><path fill="#1c6434" d="M 63.042969 42.359375 C 62.25 42.359375 61.605469 43.007812 61.605469 43.804688 C 61.605469 44.605469 62.25 45.25 63.042969 45.25 C 63.839844 45.25 64.484375 44.605469 64.484375 43.804688 C 64.484375 43.007812 63.839844 42.359375 63.042969 42.359375 Z M 63.042969 46.359375 C 61.636719 46.359375 60.5 45.21875 60.5 43.804688 C 60.5 42.394531 61.636719 41.25 63.042969 41.25 C 64.449219 41.25 65.589844 42.394531 65.589844 43.804688 C 65.589844 44.203125 65.5 44.574219 65.335938 44.910156 L 73.699219 53.296875 L 73.699219 104.203125 L 72.09375 104.203125 L 72.09375 53.964844 L 64.222656 46.070312 C 63.867188 46.253906 63.46875 46.359375 63.042969 46.359375 " fill-opacity="1" fill-rule="nonzero"/><g fill="#1c6434" fill-opacity="1"><g transform="translate(2.437001, 133.675043)"><g><path d="M 14.050781 -19.871094 L 14.050781 -12.207031 L 6.558594 -12.207031 L 6.558594 -19.871094 L 2.269531 -19.871094 L 2.269531 0 L 6.558594 0 L 6.558594 -8.203125 L 14.050781 -8.203125 L 14.050781 0 L 18.339844 0 L 18.339844 -19.871094 Z M 14.050781 -19.871094 "/></g></g></g><g fill="#1c6434" fill-opacity="1"><g transform="translate(23.074541, 133.675043)"><g><path d="M 1.988281 -17.375 L 6.101562 -17.375 L 6.101562 -21.207031 L 1.988281 -21.207031 Z M 1.988281 0 L 6.132812 0 L 6.132812 -15.328125 L 1.988281 -15.328125 Z M 1.988281 0 "/></g></g></g><g fill="#1c6434" fill-opacity="1"><g transform="translate(31.193296, 133.675043)"><g><path d="M 2.328125 -17.375 L 6.445312 -17.375 L 6.445312 -21.207031 L 2.328125 -21.207031 Z M -1.277344 5.535156 L 0.710938 5.535156 C 4.089844 5.535156 6.472656 3.152344 6.472656 -0.199219 L 6.472656 -15.328125 L 2.328125 -15.328125 L 2.328125 -0.511719 C 2.328125 0.964844 1.53125 1.730469 0.0585938 1.730469 L -1.277344 1.730469 Z M -1.277344 5.535156 "/></g></g></g><g fill="#1c6434" fill-opacity="1"><g transform="translate(39.652699, 133.675043)"><g><path d="M 14.476562 -15.328125 L 14.050781 -13.882812 C 12.71875 -15.046875 10.984375 -15.753906 9 -15.753906 C 4.398438 -15.753906 0.964844 -12.292969 0.964844 -7.664062 C 0.964844 -3.039062 4.398438 0.453125 9 0.453125 C 10.957031 0.453125 12.660156 -0.226562 13.96875 -1.390625 L 14.335938 0 L 17.574219 0 L 17.574219 -15.328125 Z M 9.339844 -3.464844 C 6.925781 -3.464844 5.167969 -5.28125 5.167969 -7.664062 C 5.167969 -10.078125 6.925781 -11.867188 9.339844 -11.867188 C 11.753906 -11.867188 13.511719 -10.078125 13.511719 -7.664062 C 13.511719 -5.25 11.753906 -3.464844 9.339844 -3.464844 Z M 9.339844 -3.464844 "/></g></g></g><g fill="#1c6434" fill-opacity="1"><g transform="translate(59.239906, 133.675043)"><g><path d="M 8.972656 0.453125 C 13.3125 0.453125 16.179688 -2.328125 16.179688 -6.472656 L 16.179688 -15.328125 L 12.035156 -15.328125 L 12.035156 -6.925781 C 12.035156 -4.769531 10.902344 -3.464844 8.972656 -3.464844 C 7.070312 -3.464844 5.90625 -4.742188 5.90625 -6.925781 L 5.90625 -15.328125 L 1.761719 -15.328125 L 1.761719 -6.472656 C 1.761719 -2.328125 4.65625 0.453125 8.972656 0.453125 Z M 8.972656 0.453125 "/></g></g></g><g fill="#1c6434" fill-opacity="1"><g transform="translate(77.209045, 133.675043)"><g><path d="M 15.953125 -19.871094 L 0.597656 -19.871094 L 0.597656 -15.867188 L 6.132812 -15.867188 L 6.132812 0 L 10.417969 0 L 10.417969 -15.867188 L 15.953125 -15.867188 Z M 15.953125 -19.871094 "/></g></g></g><g fill="#1c6434" fill-opacity="1"><g transform="translate(93.787203, 133.675043)"><g><path d="M 16.863281 -7.691406 C 16.863281 -12.121094 13.625 -15.753906 8.914062 -15.753906 C 4.371094 -15.753906 0.964844 -12.265625 0.964844 -7.664062 C 0.964844 -3.066406 4.398438 0.453125 8.914062 0.453125 C 12.492188 0.453125 15.414062 -1.675781 16.523438 -5.023438 L 12.179688 -5.023438 C 11.554688 -3.917969 10.363281 -3.234375 8.914062 -3.234375 C 6.898438 -3.234375 5.535156 -4.398438 5.167969 -6.5 L 16.777344 -6.5 C 16.835938 -6.898438 16.863281 -7.296875 16.863281 -7.691406 Z M 8.914062 -12.207031 C 10.789062 -12.207031 12.121094 -11.183594 12.71875 -9.3125 L 5.28125 -9.3125 C 5.761719 -11.128906 7.070312 -12.207031 8.914062 -12.207031 Z M 8.914062 -12.207031 "/></g></g></g><g fill="#1c6434" fill-opacity="1"><g transform="translate(111.614401, 133.675043)"><g><path d="M 9.113281 0.453125 C 13.117188 0.453125 16.265625 -2.15625 16.976562 -6.019531 L 12.804688 -6.019531 C 12.09375 -4.371094 10.789062 -3.464844 9.113281 -3.464844 C 6.898438 -3.464844 5.167969 -5.308594 5.167969 -7.664062 C 5.167969 -10.050781 6.871094 -11.867188 9.113281 -11.867188 C 10.757812 -11.867188 12.148438 -10.957031 12.804688 -9.453125 L 16.917969 -9.453125 C 16.179688 -13.230469 13.117188 -15.753906 9.140625 -15.753906 C 4.484375 -15.753906 0.964844 -12.292969 0.964844 -7.691406 C 0.964844 -3.09375 4.484375 0.453125 9.113281 0.453125 Z M 9.113281 0.453125 "/></g></g></g><g fill="#1c6434" fill-opacity="1"><g transform="translate(129.356435, 133.675043)"><g><path d="M 10.757812 -15.671875 C 8.914062 -15.671875 7.296875 -14.988281 6.132812 -13.882812 L 6.132812 -20.835938 L 1.988281 -20.835938 L 1.988281 0 L 6.132812 0 L 6.132812 -8.035156 C 6.132812 -10.53125 7.496094 -12.035156 9.566406 -12.035156 C 11.410156 -12.035156 12.234375 -10.902344 12.234375 -8.601562 L 12.234375 0 L 16.378906 0 L 16.378906 -9.3125 C 16.378906 -13.199219 14.222656 -15.671875 10.757812 -15.671875 Z M 10.757812 -15.671875 "/></g></g></g></svg>