<svg xmlns="http://www.w3.org/2000/svg" width="162" height="49" viewBox="0 0 162 49" fill="none"><path d="M37.3802 11.1078L35.3994 9.96933L33.8445 9.08385L32.5027 12.2463L19.5953 42.5635C19.3823 42.5213 19.2119 42.4792 19.1054 42.4159L12.8435 38.8318L30.4792 11.0656L32.311 8.17729L30.7348 7.29181L28.4558 9.92717L6.58147 35.2688L4.30245 33.9617C3.87646 33.7298 3.42918 32.9497 3.42918 32.4648V30.5673L26.7519 8.93627L29.3717 6.51174L27.6464 5.52084L22.5772 2.63249C21.853 2.23191 20.9372 2 19.9787 2C19.0415 2 18.1044 2.23191 17.4015 2.63249L2.59851 11.1078C1.10756 11.9511 0 13.8486 0 15.5352V32.4648C0 34.1514 1.10756 36.07 2.59851 36.9133L17.4015 45.3675C18.1257 45.7681 19.0415 46 20 46C20.9585 46 21.8743 45.7681 22.5985 45.3675L37.4015 36.9133C38.8711 36.07 40 34.1514 40 32.4648V15.5352C39.9787 13.8486 38.8711 11.9511 37.3802 11.1078ZM3.42918 15.5352C3.42918 15.0503 3.87646 14.2702 4.30245 14.0383L19.1054 5.58409C19.2545 5.49976 19.574 5.39435 19.9787 5.39435C20.3834 5.39435 20.7029 5.47868 20.852 5.58409L24.5154 7.6713L3.42918 22.1974V15.5352ZM36.5495 32.4648C36.5495 32.9497 36.1022 33.7298 35.6763 33.9617L27.9659 38.368L34.5048 13.3848L35.6763 14.0383C36.1022 14.2913 36.5495 15.0503 36.5495 15.5352V32.4648Z" fill="url(#paint0_linear_2_196)"></path><path d="M57.4434 29.4609H63.7275C62.4922 25.7979 61.4556 22.7524 60.6177 20.3247C59.9194 22.355 58.8613 25.4004 57.4434 29.4609ZM49.1934 39L58.6196 15.5391H62.7769L72.2837 39H67.6592L65.3872 33.2798H55.9126L53.689 39H49.1934ZM75.0391 39V28.7681C75.0391 27.5972 75.0122 26.4907 74.9585 25.4487C74.9048 24.396 74.8511 23.6387 74.7974 23.1768L74.7168 22.4678H78.9546V24.6753C79.5239 23.8159 80.2812 23.166 81.2266 22.7256C82.1826 22.2744 83.1064 22.0488 83.998 22.0488C84.9541 22.0488 85.792 22.1777 86.5117 22.4355C87.2314 22.6826 87.8652 23.0908 88.4131 23.6602C88.9717 24.2188 89.396 24.9922 89.686 25.9805C89.9761 26.9688 90.1211 28.1665 90.1211 29.5737V39H86.125V29.2998C86.125 27.8389 85.894 26.8076 85.4321 26.2061C84.981 25.5938 84.229 25.2876 83.1763 25.2876C82.7896 25.2876 82.3652 25.3735 81.9033 25.5454C81.4414 25.7173 80.9902 25.959 80.5498 26.2705C80.1201 26.5713 79.7603 26.9741 79.4702 27.479C79.1802 27.9731 79.0352 28.5156 79.0352 29.1064V39H75.0391ZM104.107 38.9839H102.496C101.852 38.9839 101.293 38.9678 100.82 38.9355C100.348 38.9033 99.8589 38.8335 99.354 38.7261C98.8599 38.6187 98.4355 38.479 98.0811 38.3071C97.7373 38.1245 97.4043 37.8828 97.082 37.582C96.7598 37.2812 96.502 36.9214 96.3086 36.5024C96.1152 36.0728 95.9595 35.5625 95.8413 34.9717C95.7339 34.3809 95.6802 33.7041 95.6802 32.9414V25.1426H92.2319V22.4678H95.8413V18.6006L99.6602 17.4243V22.4678H103.979V25.1426H99.6602V33.1831C99.6602 33.6987 99.6978 34.1177 99.7729 34.4399C99.8589 34.7515 99.9824 35.0146 100.144 35.2295C100.305 35.4336 100.573 35.584 100.949 35.6807C101.336 35.7773 101.755 35.8418 102.206 35.874C102.657 35.9062 103.291 35.9224 104.107 35.9224V38.9839ZM111.181 28.752H119.399C119.206 27.5811 118.771 26.6841 118.094 26.061C117.417 25.438 116.59 25.1265 115.612 25.1265C114.463 25.1265 113.501 25.4487 112.728 26.0933C111.955 26.7378 111.439 27.624 111.181 28.752ZM115.902 39.3706C113.12 39.3706 110.923 38.5757 109.312 36.9858C107.711 35.396 106.911 33.3174 106.911 30.75C106.911 29.5898 107.104 28.4888 107.491 27.4468C107.878 26.4048 108.42 25.481 109.119 24.6753C109.828 23.8696 110.719 23.2305 111.793 22.7578C112.878 22.2852 114.076 22.0488 115.387 22.0488C116.697 22.0488 117.841 22.2744 118.819 22.7256C119.796 23.1768 120.57 23.8105 121.139 24.627C121.708 25.4326 122.127 26.3403 122.396 27.3501C122.675 28.3599 122.815 29.4771 122.815 30.7017C122.815 31.0132 122.788 31.2495 122.734 31.4106H111.133C111.197 33.022 111.686 34.2144 112.599 34.9878C113.523 35.7612 114.748 36.1479 116.273 36.1479C118.056 36.1479 119.796 35.5571 121.494 34.3755L122.573 37.2759C121.531 37.9956 120.479 38.5273 119.415 38.8711C118.362 39.2041 117.191 39.3706 115.902 39.3706ZM134.98 39.3706C133.638 39.3706 132.408 39.1343 131.291 38.6616C130.184 38.189 129.276 37.5498 128.567 36.7441C127.858 35.9385 127.311 35.02 126.924 33.9888C126.537 32.9468 126.344 31.8564 126.344 30.7178C126.344 29.085 126.677 27.6187 127.343 26.3188C128.02 25.0083 129.013 23.9717 130.324 23.209C131.645 22.4355 133.181 22.0488 134.932 22.0488C137.532 22.0488 139.53 22.79 140.926 24.2725L139.492 26.8506C138.3 25.7979 136.919 25.2715 135.351 25.2715C133.783 25.2715 132.58 25.7656 131.742 26.7539C130.904 27.7422 130.485 29.0688 130.485 30.7339C130.485 32.356 130.931 33.6665 131.822 34.6655C132.714 35.6538 133.933 36.1479 135.48 36.1479C135.695 36.1479 135.91 36.1372 136.125 36.1157C136.339 36.0942 136.533 36.0674 136.705 36.0352C136.876 36.0029 137.054 35.96 137.236 35.9062C137.43 35.8418 137.591 35.7881 137.72 35.7451C137.849 35.6914 137.994 35.6216 138.155 35.5356C138.316 35.4497 138.439 35.3853 138.525 35.3423C138.622 35.2886 138.74 35.2134 138.88 35.1167C139.02 35.02 139.111 34.9556 139.154 34.9233C139.208 34.8911 139.293 34.832 139.412 34.7461C139.541 34.6494 139.61 34.5957 139.621 34.585L140.83 37.5176C139.906 38.1621 138.982 38.6348 138.058 38.9355C137.134 39.2256 136.108 39.3706 134.98 39.3706ZM144.197 39V15.5229H148.193V24.6108C148.591 23.8481 149.289 23.2305 150.288 22.7578C151.287 22.2852 152.238 22.0488 153.14 22.0488C153.903 22.0488 154.596 22.1401 155.219 22.3228C155.853 22.5054 156.384 22.7471 156.814 23.0479C157.244 23.3486 157.62 23.7192 157.942 24.1597C158.264 24.5894 158.517 25.0298 158.699 25.481C158.882 25.9214 159.027 26.4102 159.134 26.9473C159.252 27.4844 159.328 27.9731 159.36 28.4136C159.403 28.854 159.424 29.3159 159.424 29.7993V39H155.428V29.6704C155.428 28.1128 155.187 26.9956 154.703 26.3188C154.22 25.6313 153.495 25.2876 152.528 25.2876C151.432 25.2876 150.433 25.6689 149.531 26.4316C148.639 27.1836 148.193 28.0537 148.193 29.042V39H144.197Z" fill="#000060"></path><defs><linearGradient id="paint0_linear_2_196" x1="0" y1="46" x2="40" y2="9.5" gradientUnits="userSpaceOnUse"><stop stop-color="#522DF0"></stop><stop offset="1" stop-color="#4E95ED"></stop><stop offset="1" stop-color="#000060" stop-opacity="0"></stop></linearGradient></defs></svg>