<svg xmlns="http://www.w3.org/2000/svg" xmlns:xlink="http://www.w3.org/1999/xlink" width="261" zoomAndPan="magnify" viewBox="0 0 195.75 195.749994" height="261" preserveAspectRatio="xMidYMid meet" version="1.0"><defs><g/><clipPath id="d45778d49b"><path d="M 40.234375 51 L 67 51 L 67 75 L 40.234375 75 Z M 40.234375 51 " clip-rule="nonzero"/></clipPath><clipPath id="9bcb61dabe"><path d="M 103 6.402344 L 122 6.402344 L 122 40 L 103 40 Z M 103 6.402344 " clip-rule="nonzero"/></clipPath><clipPath id="3443d032be"><path d="M 40.234375 77 L 67 77 L 67 101 L 40.234375 101 Z M 40.234375 77 " clip-rule="nonzero"/></clipPath><clipPath id="8ec5580f6e"><path d="M 54 87 L 88 87 L 88 144.976562 L 54 144.976562 Z M 54 87 " clip-rule="nonzero"/></clipPath><clipPath id="21a9aada56"><path d="M 129 67 L 155.257812 67 L 155.257812 91 L 129 91 Z M 129 67 " clip-rule="nonzero"/></clipPath></defs><g clip-path="url(#d45778d49b)"><path fill="#80cc28" d="M 40.238281 51.285156 C 40.238281 51.285156 71.644531 48.742188 65.253906 72.570312 C 50.800781 79.117188 46.871094 67.742188 44.28125 59.285156 C 42.847656 54.609375 40.238281 51.285156 40.238281 51.285156 " fill-opacity="1" fill-rule="nonzero"/></g><path fill="#80cc28" d="M 66.441406 18.800781 C 66.441406 18.800781 90.441406 39.242188 69.105469 51.566406 C 54.257812 45.960938 59.511719 35.136719 63.648438 27.320312 C 65.9375 23 66.441406 18.800781 66.441406 18.800781 " fill-opacity="1" fill-rule="nonzero"/><g clip-path="url(#9bcb61dabe)"><path fill="#80cc28" d="M 114.617188 6.414062 C 114.617188 6.414062 90.613281 26.851562 111.953125 39.179688 C 126.796875 33.570312 121.546875 22.746094 117.40625 14.933594 C 115.121094 10.613281 114.617188 6.414062 114.617188 6.414062 " fill-opacity="1" fill-rule="nonzero"/></g><path fill="#80cc28" d="M 126.699219 29.796875 C 126.699219 29.796875 108.082031 45.652344 124.632812 55.210938 C 136.144531 50.859375 132.070312 42.464844 128.863281 36.40625 C 127.085938 33.054688 126.699219 29.796875 126.699219 29.796875 " fill-opacity="1" fill-rule="nonzero"/><path fill="#80cc28" d="M 71.574219 51.234375 C 71.574219 51.234375 93.984375 49.722656 89.203125 66.648438 C 78.835938 71.175781 76.144531 63.03125 74.378906 56.976562 C 73.402344 53.628906 71.574219 51.234375 71.574219 51.234375 " fill-opacity="1" fill-rule="nonzero"/><path fill="#1c6434" d="M 126.125 44.671875 C 126.125 43.632812 125.28125 42.789062 124.246094 42.789062 C 123.207031 42.789062 122.367188 43.632812 122.367188 44.671875 C 122.367188 45.707031 123.207031 46.550781 124.246094 46.550781 C 125.28125 46.550781 126.125 45.707031 126.125 44.671875 Z M 123.339844 47.863281 C 121.949219 47.46875 120.929688 46.191406 120.929688 44.671875 C 120.929688 42.835938 122.414062 41.347656 124.246094 41.347656 C 126.078125 41.347656 127.5625 42.835938 127.5625 44.671875 C 127.5625 46.085938 126.679688 47.289062 125.433594 47.769531 L 125.433594 78.816406 L 104.738281 99.546875 L 104.738281 127.800781 L 102.644531 127.800781 L 102.644531 98.675781 L 123.339844 77.949219 L 123.339844 47.863281 " fill-opacity="1" fill-rule="nonzero"/><path fill="#1c6434" d="M 114.335938 29.125 C 114.335938 28.085938 113.492188 27.242188 112.457031 27.242188 C 111.421875 27.242188 110.578125 28.085938 110.578125 29.125 C 110.578125 30.164062 111.421875 31.003906 112.457031 31.003906 C 113.492188 31.003906 114.335938 30.164062 114.335938 29.125 Z M 111.464844 32.296875 C 110.117188 31.871094 109.140625 30.613281 109.140625 29.125 C 109.140625 27.289062 110.625 25.800781 112.457031 25.800781 C 114.289062 25.800781 115.777344 27.289062 115.777344 29.125 C 115.777344 30.570312 114.847656 31.800781 113.558594 32.257812 L 113.558594 60.863281 L 104.738281 69.695312 L 104.738281 89.332031 L 102.644531 89.332031 L 102.644531 68.824219 L 111.464844 59.992188 L 111.464844 32.296875 " fill-opacity="1" fill-rule="nonzero"/><path fill="#1c6434" d="M 57.707031 67.046875 C 58.742188 67.046875 59.582031 66.203125 59.582031 65.167969 C 59.582031 64.128906 58.742188 63.285156 57.707031 63.285156 C 56.667969 63.285156 55.828125 64.128906 55.828125 65.167969 C 55.828125 66.203125 56.667969 67.046875 57.707031 67.046875 Z M 57.707031 61.84375 C 59.539062 61.84375 61.023438 63.332031 61.023438 65.167969 C 61.023438 65.71875 60.886719 66.238281 60.648438 66.695312 L 78.433594 84.507812 L 78.433594 95.59375 L 87.800781 104.972656 L 87.800781 119.054688 L 85.703125 119.054688 L 85.703125 105.84375 L 76.339844 96.464844 L 76.339844 85.378906 L 59.144531 68.15625 C 58.710938 68.367188 58.222656 68.488281 57.707031 68.488281 C 55.871094 68.488281 54.386719 67 54.386719 65.167969 C 54.386719 63.332031 55.871094 61.84375 57.707031 61.84375 " fill-opacity="1" fill-rule="nonzero"/><g clip-path="url(#3443d032be)"><path fill="#80cc28" d="M 40.238281 77.207031 C 40.238281 77.207031 71.644531 74.660156 65.253906 98.488281 C 50.800781 105.039062 46.871094 93.664062 44.28125 85.207031 C 42.847656 80.53125 40.238281 77.207031 40.238281 77.207031 " fill-opacity="1" fill-rule="nonzero"/></g><g clip-path="url(#8ec5580f6e)"><path fill="#1c6434" d="M 57.707031 92.96875 C 58.742188 92.96875 59.582031 92.125 59.582031 91.085938 C 59.582031 90.046875 58.742188 89.207031 57.707031 89.207031 C 56.667969 89.207031 55.828125 90.046875 55.828125 91.085938 C 55.828125 92.125 56.667969 92.96875 57.707031 92.96875 Z M 57.707031 87.761719 C 59.539062 87.761719 61.023438 89.25 61.023438 91.085938 C 61.023438 91.640625 60.886719 92.15625 60.648438 92.617188 L 78.433594 110.429688 L 78.433594 121.515625 L 87.800781 130.894531 L 87.800781 144.972656 L 85.703125 144.972656 L 85.703125 131.765625 L 76.339844 122.382812 L 76.339844 111.296875 L 59.144531 94.078125 C 58.710938 94.289062 58.222656 94.410156 57.707031 94.410156 C 55.871094 94.410156 54.386719 92.921875 54.386719 91.085938 C 54.386719 89.25 55.871094 87.761719 57.707031 87.761719 " fill-opacity="1" fill-rule="nonzero"/></g><g clip-path="url(#21a9aada56)"><path fill="#80cc28" d="M 155.589844 67.125 C 155.589844 67.125 124.1875 64.582031 130.574219 88.410156 C 145.03125 94.957031 148.957031 83.582031 151.546875 75.125 C 152.980469 70.453125 155.589844 67.125 155.589844 67.125 " fill-opacity="1" fill-rule="nonzero"/></g><path fill="#1c6434" d="M 140 81.003906 C 140 79.96875 139.160156 79.125 138.125 79.125 C 137.085938 79.125 136.246094 79.96875 136.246094 81.003906 C 136.246094 82.042969 137.085938 82.886719 138.125 82.886719 C 139.160156 82.886719 140 82.042969 140 81.003906 Z M 141.441406 81.003906 C 141.441406 82.84375 139.957031 84.328125 138.125 84.328125 C 137.609375 84.328125 137.121094 84.207031 136.683594 83.996094 L 119.492188 101.21875 L 119.492188 112.304688 L 110.125 121.683594 L 110.125 134.890625 L 108.03125 134.890625 L 108.03125 120.816406 L 117.394531 111.433594 L 117.394531 100.347656 L 135.179688 82.535156 C 134.941406 82.078125 134.804688 81.558594 134.804688 81.003906 C 134.804688 79.171875 136.292969 77.683594 138.125 77.683594 C 139.957031 77.683594 141.441406 79.171875 141.441406 81.003906 " fill-opacity="1" fill-rule="nonzero"/><path fill="#1c6434" d="M 69.265625 40.621094 C 68.226562 40.621094 67.386719 41.464844 67.386719 42.503906 C 67.386719 43.542969 68.226562 44.382812 69.265625 44.382812 C 70.300781 44.382812 71.140625 43.542969 71.140625 42.503906 C 71.140625 41.464844 70.300781 40.621094 69.265625 40.621094 Z M 70.4375 45.609375 L 70.4375 64.320312 L 87.800781 81.710938 L 87.800781 98.0625 L 85.703125 98.0625 L 85.703125 82.578125 L 68.34375 65.191406 L 68.34375 45.695312 C 66.957031 45.292969 65.945312 44.019531 65.945312 42.503906 C 65.945312 40.667969 67.433594 39.179688 69.265625 39.179688 C 71.097656 39.179688 72.582031 40.667969 72.582031 42.503906 C 72.582031 43.925781 71.691406 45.132812 70.4375 45.609375 " fill-opacity="1" fill-rule="nonzero"/><path fill="#1c6434" d="M 82.164062 57.742188 C 81.125 57.742188 80.285156 58.585938 80.285156 59.625 C 80.285156 60.660156 81.125 61.503906 82.164062 61.503906 C 83.199219 61.503906 84.039062 60.660156 84.039062 59.625 C 84.039062 58.585938 83.199219 57.742188 82.164062 57.742188 Z M 82.164062 62.945312 C 80.332031 62.945312 78.84375 61.460938 78.84375 59.625 C 78.84375 57.789062 80.332031 56.300781 82.164062 56.300781 C 83.996094 56.300781 85.480469 57.789062 85.480469 59.625 C 85.480469 60.136719 85.359375 60.625 85.152344 61.058594 L 96.050781 71.972656 L 96.050781 138.207031 L 93.957031 138.207031 L 93.957031 72.84375 L 83.695312 62.566406 C 83.238281 62.808594 82.714844 62.945312 82.164062 62.945312 " fill-opacity="1" fill-rule="nonzero"/><g fill="#1c6434" fill-opacity="1"><g transform="translate(3.176232, 176.841496)"><g><path d="M 18.316406 -25.898438 L 18.316406 -15.910156 L 8.546875 -15.910156 L 8.546875 -25.898438 L 2.960938 -25.898438 L 2.960938 0 L 8.546875 0 L 8.546875 -10.691406 L 18.316406 -10.691406 L 18.316406 0 L 23.902344 0 L 23.902344 -25.898438 Z M 18.316406 -25.898438 "/></g></g></g><g fill="#1c6434" fill-opacity="1"><g transform="translate(30.073869, 176.841496)"><g><path d="M 2.589844 -22.644531 L 7.953125 -22.644531 L 7.953125 -27.636719 L 2.589844 -27.636719 Z M 2.589844 0 L 7.992188 0 L 7.992188 -19.980469 L 2.589844 -19.980469 Z M 2.589844 0 "/></g></g></g><g fill="#1c6434" fill-opacity="1"><g transform="translate(40.65533, 176.841496)"><g><path d="M 3.035156 -22.644531 L 8.398438 -22.644531 L 8.398438 -27.636719 L 3.035156 -27.636719 Z M -1.664062 7.214844 L 0.925781 7.214844 C 5.328125 7.214844 8.4375 4.105469 8.4375 -0.257812 L 8.4375 -19.980469 L 3.035156 -19.980469 L 3.035156 -0.664062 C 3.035156 1.257812 1.996094 2.257812 0.0742188 2.257812 L -1.664062 2.257812 Z M -1.664062 7.214844 "/></g></g></g><g fill="#1c6434" fill-opacity="1"><g transform="translate(51.680771, 176.841496)"><g><path d="M 18.871094 -19.980469 L 18.316406 -18.09375 C 16.574219 -19.609375 14.320312 -20.535156 11.730469 -20.535156 C 5.734375 -20.535156 1.257812 -16.019531 1.257812 -9.988281 C 1.257812 -3.957031 5.734375 0.59375 11.730469 0.59375 C 14.28125 0.59375 16.5 -0.296875 18.203125 -1.8125 L 18.683594 0 L 22.902344 0 L 22.902344 -19.980469 Z M 12.171875 -4.515625 C 9.027344 -4.515625 6.734375 -6.882812 6.734375 -9.988281 C 6.734375 -13.136719 9.027344 -15.464844 12.171875 -15.464844 C 15.316406 -15.464844 17.613281 -13.136719 17.613281 -9.988281 C 17.613281 -6.84375 15.316406 -4.515625 12.171875 -4.515625 Z M 12.171875 -4.515625 "/></g></g></g><g fill="#1c6434" fill-opacity="1"><g transform="translate(77.209473, 176.841496)"><g><path d="M 11.691406 0.59375 C 17.351562 0.59375 21.089844 -3.035156 21.089844 -8.4375 L 21.089844 -19.980469 L 15.6875 -19.980469 L 15.6875 -9.027344 C 15.6875 -6.214844 14.207031 -4.515625 11.691406 -4.515625 C 9.210938 -4.515625 7.695312 -6.179688 7.695312 -9.027344 L 7.695312 -19.980469 L 2.292969 -19.980469 L 2.292969 -8.4375 C 2.292969 -3.035156 6.066406 0.59375 11.691406 0.59375 Z M 11.691406 0.59375 "/></g></g></g><g fill="#1c6434" fill-opacity="1"><g transform="translate(100.629289, 176.841496)"><g><path d="M 20.792969 -25.898438 L 0.777344 -25.898438 L 0.777344 -20.683594 L 7.992188 -20.683594 L 7.992188 0 L 13.578125 0 L 13.578125 -20.683594 L 20.792969 -20.683594 Z M 20.792969 -25.898438 "/></g></g></g><g fill="#1c6434" fill-opacity="1"><g transform="translate(122.236191, 176.841496)"><g><path d="M 21.976562 -10.027344 C 21.976562 -15.796875 17.757812 -20.535156 11.617188 -20.535156 C 5.699219 -20.535156 1.257812 -15.984375 1.257812 -9.988281 C 1.257812 -3.996094 5.734375 0.59375 11.617188 0.59375 C 16.28125 0.59375 20.089844 -2.183594 21.535156 -6.550781 L 15.871094 -6.550781 C 15.058594 -5.105469 13.503906 -4.21875 11.617188 -4.21875 C 8.992188 -4.21875 7.214844 -5.734375 6.734375 -8.472656 L 21.867188 -8.472656 C 21.941406 -8.992188 21.976562 -9.507812 21.976562 -10.027344 Z M 11.617188 -15.910156 C 14.058594 -15.910156 15.796875 -14.578125 16.574219 -12.136719 L 6.882812 -12.136719 C 7.511719 -14.503906 9.210938 -15.910156 11.617188 -15.910156 Z M 11.617188 -15.910156 "/></g></g></g><g fill="#1c6434" fill-opacity="1"><g transform="translate(145.471011, 176.841496)"><g><path d="M 11.875 0.59375 C 17.09375 0.59375 21.199219 -2.8125 22.125 -7.84375 L 16.6875 -7.84375 C 15.761719 -5.699219 14.058594 -4.515625 11.875 -4.515625 C 8.992188 -4.515625 6.734375 -6.917969 6.734375 -9.988281 C 6.734375 -13.097656 8.953125 -15.464844 11.875 -15.464844 C 14.023438 -15.464844 15.835938 -14.28125 16.6875 -12.320312 L 22.050781 -12.320312 C 21.089844 -17.242188 17.09375 -20.535156 11.914062 -20.535156 C 5.847656 -20.535156 1.257812 -16.019531 1.257812 -10.027344 C 1.257812 -4.03125 5.847656 0.59375 11.875 0.59375 Z M 11.875 0.59375 "/></g></g></g><g fill="#1c6434" fill-opacity="1"><g transform="translate(168.594834, 176.841496)"><g><path d="M 14.023438 -20.421875 C 11.617188 -20.421875 9.507812 -19.535156 7.992188 -18.09375 L 7.992188 -27.15625 L 2.589844 -27.15625 L 2.589844 0 L 7.992188 0 L 7.992188 -10.472656 C 7.992188 -13.726562 9.769531 -15.6875 12.46875 -15.6875 C 14.875 -15.6875 15.945312 -14.207031 15.945312 -11.210938 L 15.945312 0 L 21.347656 0 L 21.347656 -12.136719 C 21.347656 -17.203125 18.535156 -20.421875 14.023438 -20.421875 Z M 14.023438 -20.421875 "/></g></g></g></svg>