<svg xmlns="http://www.w3.org/2000/svg" width="184" height="53" viewBox="0 0 184 53" fill="none"><path d="M42.9872 11.3496L40.7093 10.0559L38.9212 9.0497L37.3781 12.6434L22.5346 47.0947C22.2897 47.0468 22.0937 46.9989 21.9712 46.927L14.77 42.8542L35.0511 11.3017L37.1576 8.01951L35.345 7.01328L32.7242 10.008L7.56869 38.8053L4.94782 37.3199C4.45793 37.0564 3.94356 36.17 3.94356 35.6189V33.4627L30.7646 8.88199L33.7774 6.12684L31.7934 5.00082L25.9638 1.7186C25.131 1.2634 24.0777 0.999863 22.9755 0.999863C21.8978 0.999863 20.82 1.2634 20.0117 1.7186L2.98829 11.3496C1.2737 12.308 0 14.4642 0 16.3808V35.6189C0 37.5356 1.2737 39.7157 2.98829 40.674L20.0117 50.2811C20.8445 50.7363 21.8978 50.9999 23 50.9999C24.1022 50.9999 25.1555 50.7363 25.9883 50.2811L43.0117 40.674C44.7018 39.7157 46 37.5356 46 35.6189V16.3808C45.9755 14.4642 44.7018 12.308 42.9872 11.3496ZM3.94356 16.3808C3.94356 15.8298 4.45793 14.9433 4.94782 14.6798L21.9712 5.07269C22.1427 4.97686 22.5101 4.85707 22.9755 4.85707C23.4409 4.85707 23.8083 4.95291 23.9798 5.07269L28.1928 7.44452L3.94356 23.9515V16.3808ZM42.032 35.6189C42.032 36.17 41.5176 37.0564 41.0277 37.3199L32.1608 42.3271L39.6805 13.9371L41.0277 14.6798C41.5176 14.9673 42.032 15.8298 42.032 16.3808V35.6189Z" fill="url(#paint0_linear_2_122)"></path><path d="M70.2109 31.5936H77.0664C75.7188 27.5975 74.5879 24.2753 73.6738 21.6268C72.9121 23.8417 71.7578 27.1639 70.2109 31.5936ZM61.2109 41.9999L71.4941 16.4061H76.0293L86.4004 41.9999H81.3555L78.877 35.7596H68.541L66.1152 41.9999H61.2109ZM89.4062 41.9999V30.8378C89.4062 29.5604 89.377 28.3534 89.3184 27.2167C89.2598 26.0682 89.2012 25.2421 89.1426 24.7381L89.0547 23.9647H93.6777V26.3729C94.2988 25.4354 95.125 24.7264 96.1562 24.246C97.1992 23.7538 98.207 23.5077 99.1797 23.5077C100.223 23.5077 101.137 23.6483 101.922 23.9296C102.707 24.1991 103.398 24.6444 103.996 25.2655C104.605 25.8749 105.068 26.7186 105.385 27.7967C105.701 28.8749 105.859 30.1815 105.859 31.7167V41.9999H101.5V31.4178C101.5 29.8241 101.248 28.6991 100.744 28.0428C100.252 27.3749 99.4316 27.0409 98.2832 27.0409C97.8613 27.0409 97.3984 27.1346 96.8945 27.3221C96.3906 27.5096 95.8984 27.7733 95.418 28.1131C94.9492 28.4413 94.5566 28.8807 94.2402 29.4315C93.9238 29.9706 93.7656 30.5624 93.7656 31.2069V41.9999H89.4062ZM121.117 41.9823H119.359C118.656 41.9823 118.047 41.9647 117.531 41.9296C117.016 41.8944 116.482 41.8182 115.932 41.701C115.393 41.5838 114.93 41.4315 114.543 41.244C114.168 41.0448 113.805 40.7811 113.453 40.453C113.102 40.1249 112.82 39.7323 112.609 39.2753C112.398 38.8065 112.229 38.2499 112.1 37.6053C111.982 36.9608 111.924 36.2225 111.924 35.3905V26.8827H108.162V23.9647H112.1V19.746L116.266 18.4628V23.9647H120.977V26.8827H116.266V35.6542C116.266 36.2167 116.307 36.6737 116.389 37.0253C116.482 37.3651 116.617 37.6522 116.793 37.8866C116.969 38.1092 117.262 38.2733 117.672 38.3788C118.094 38.4842 118.551 38.5546 119.043 38.5897C119.535 38.6249 120.227 38.6424 121.117 38.6424V41.9823ZM128.834 30.8202H137.799C137.588 29.5428 137.113 28.5643 136.375 27.8846C135.637 27.2049 134.734 26.8651 133.668 26.8651C132.414 26.8651 131.365 27.2167 130.521 27.9198C129.678 28.6229 129.115 29.5897 128.834 30.8202ZM133.984 42.4042C130.949 42.4042 128.553 41.537 126.795 39.8026C125.049 38.0682 124.176 35.8006 124.176 32.9999C124.176 31.7342 124.387 30.5331 124.809 29.3963C125.23 28.2596 125.822 27.2518 126.584 26.3729C127.357 25.494 128.33 24.7967 129.502 24.2811C130.686 23.7655 131.992 23.5077 133.422 23.5077C134.852 23.5077 136.1 23.7538 137.166 24.246C138.232 24.7381 139.076 25.4296 139.697 26.3202C140.318 27.1991 140.775 28.1893 141.068 29.2909C141.373 30.3924 141.525 31.6112 141.525 32.9471C141.525 33.287 141.496 33.5448 141.438 33.7206H128.781C128.852 35.4784 129.385 36.7792 130.381 37.6229C131.389 38.4667 132.725 38.8885 134.389 38.8885C136.334 38.8885 138.232 38.244 140.084 36.9549L141.262 40.119C140.125 40.9042 138.977 41.4842 137.816 41.8592C136.668 42.2225 135.391 42.4042 133.984 42.4042ZM154.797 42.4042C153.332 42.4042 151.99 42.1463 150.771 41.6307C149.564 41.1151 148.574 40.4178 147.801 39.5389C147.027 38.66 146.43 37.6581 146.008 36.5331C145.586 35.3963 145.375 34.2069 145.375 32.9647C145.375 31.1835 145.738 29.5838 146.465 28.1659C147.203 26.7362 148.287 25.6053 149.717 24.7733C151.158 23.9296 152.834 23.5077 154.744 23.5077C157.58 23.5077 159.76 24.3163 161.283 25.9335L159.719 28.746C158.418 27.5975 156.912 27.0233 155.201 27.0233C153.49 27.0233 152.178 27.5624 151.264 28.6405C150.35 29.7186 149.893 31.1659 149.893 32.9823C149.893 34.7518 150.379 36.1815 151.352 37.2713C152.324 38.3495 153.654 38.8885 155.342 38.8885C155.576 38.8885 155.811 38.8768 156.045 38.8534C156.279 38.8299 156.49 38.8006 156.678 38.7655C156.865 38.7303 157.059 38.6835 157.258 38.6249C157.469 38.5546 157.645 38.496 157.785 38.4491C157.926 38.3905 158.084 38.3143 158.26 38.2206C158.436 38.1268 158.57 38.0565 158.664 38.0096C158.77 37.951 158.898 37.869 159.051 37.7635C159.203 37.6581 159.303 37.5878 159.35 37.5526C159.408 37.5174 159.502 37.453 159.631 37.3592C159.771 37.2538 159.848 37.1952 159.859 37.1835L161.178 40.3827C160.17 41.0858 159.162 41.6014 158.154 41.9296C157.146 42.246 156.027 42.4042 154.797 42.4042ZM164.852 41.9999V16.3885H169.211V26.3026C169.645 25.4706 170.406 24.7967 171.496 24.2811C172.586 23.7655 173.623 23.5077 174.607 23.5077C175.439 23.5077 176.195 23.6073 176.875 23.8065C177.566 24.0057 178.146 24.2694 178.615 24.5975C179.084 24.9256 179.494 25.3299 179.846 25.8104C180.197 26.2792 180.473 26.7596 180.672 27.2518C180.871 27.7323 181.029 28.2655 181.146 28.8514C181.275 29.4374 181.357 29.9706 181.393 30.451C181.439 30.9315 181.463 31.4354 181.463 31.9628V41.9999H177.104V31.8221C177.104 30.1229 176.84 28.9042 176.312 28.1659C175.785 27.4159 174.994 27.0409 173.939 27.0409C172.744 27.0409 171.654 27.4569 170.67 28.2889C169.697 29.1092 169.211 30.0585 169.211 31.1366V41.9999H164.852Z" fill="#333333"></path><defs><linearGradient id="paint0_linear_2_122" x1="0" y1="50.9999" x2="48.779" y2="45.3057" gradientUnits="userSpaceOnUse"><stop stop-color="#770993"></stop><stop offset="1" stop-color="#0F1755"></stop></linearGradient></defs></svg>