<svg width="184" height="53" viewBox="0 0 184 53" fill="none" xmlns="http://www.w3.org/2000/svg">
<path d="M42.9872 11.3495L40.7093 10.0558L38.9212 9.04959L37.3781 12.6433L22.5346 47.0946C22.2897 47.0467 22.0937 46.9988 21.9712 46.9269L14.77 42.8541L35.0511 11.3016L37.1576 8.0194L35.345 7.01317L32.7242 10.0079L7.56869 38.8052L4.94782 37.3198C4.45793 37.0563 3.94356 36.1699 3.94356 35.6188V33.4626L30.7646 8.88188L33.7774 6.12673L31.7934 5.00071L25.9638 1.71849C25.131 1.26329 24.0777 0.999756 22.9755 0.999756C21.8978 0.999756 20.82 1.26329 20.0117 1.71849L2.98829 11.3495C1.2737 12.3079 0 14.4641 0 16.3807V35.6188C0 37.5355 1.2737 39.7156 2.98829 40.6739L20.0117 50.281C20.8445 50.7362 21.8978 50.9998 23 50.9998C24.1022 50.9998 25.1555 50.7362 25.9883 50.281L43.0117 40.6739C44.7018 39.7156 46 37.5355 46 35.6188V16.3807C45.9755 14.4641 44.7018 12.3079 42.9872 11.3495ZM3.94356 16.3807C3.94356 15.8297 4.45793 14.9432 4.94782 14.6797L21.9712 5.07259C22.1427 4.97676 22.5101 4.85697 22.9755 4.85697C23.4409 4.85697 23.8083 4.9528 23.9798 5.07259L28.1928 7.44441L3.94356 23.9514V16.3807ZM42.032 35.6188C42.032 36.1699 41.5176 37.0563 41.0277 37.3198L32.1608 42.327L39.6805 13.937L41.0277 14.6797C41.5176 14.9672 42.032 15.8297 42.032 16.3807V35.6188Z" fill="url(#paint0_linear_1029_2100)"/>
<path d="M70.2109 31.5935H77.0664C75.7188 27.5974 74.5879 24.2751 73.6738 21.6267C72.9121 23.8416 71.7578 27.1638 70.2109 31.5935ZM61.2109 41.9998L71.4941 16.406H76.0293L86.4004 41.9998H81.3555L78.877 35.7595H68.541L66.1152 41.9998H61.2109ZM89.4062 41.9998V30.8376C89.4062 29.5603 89.377 28.3533 89.3184 27.2166C89.2598 26.0681 89.2012 25.2419 89.1426 24.738L89.0547 23.9646H93.6777V26.3728C94.2988 25.4353 95.125 24.7263 96.1562 24.2458C97.1992 23.7537 98.207 23.5076 99.1797 23.5076C100.223 23.5076 101.137 23.6482 101.922 23.9294C102.707 24.199 103.398 24.6443 103.996 25.2654C104.605 25.8748 105.068 26.7185 105.385 27.7966C105.701 28.8748 105.859 30.1814 105.859 31.7166V41.9998H101.5V31.4177C101.5 29.824 101.248 28.699 100.744 28.0427C100.252 27.3748 99.4316 27.0408 98.2832 27.0408C97.8613 27.0408 97.3984 27.1345 96.8945 27.322C96.3906 27.5095 95.8984 27.7732 95.418 28.113C94.9492 28.4412 94.5566 28.8806 94.2402 29.4314C93.9238 29.9705 93.7656 30.5623 93.7656 31.2068V41.9998H89.4062ZM121.117 41.9822H119.359C118.656 41.9822 118.047 41.9646 117.531 41.9294C117.016 41.8943 116.482 41.8181 115.932 41.7009C115.393 41.5837 114.93 41.4314 114.543 41.2439C114.168 41.0447 113.805 40.781 113.453 40.4529C113.102 40.1248 112.82 39.7322 112.609 39.2751C112.398 38.8064 112.229 38.2498 112.1 37.6052C111.982 36.9607 111.924 36.2224 111.924 35.3904V26.8826H108.162V23.9646H112.1V19.7458L116.266 18.4626V23.9646H120.977V26.8826H116.266V35.6541C116.266 36.2166 116.307 36.6736 116.389 37.0251C116.482 37.365 116.617 37.6521 116.793 37.8865C116.969 38.1091 117.262 38.2732 117.672 38.3787C118.094 38.4841 118.551 38.5544 119.043 38.5896C119.535 38.6248 120.227 38.6423 121.117 38.6423V41.9822ZM128.834 30.8201H137.799C137.588 29.5427 137.113 28.5642 136.375 27.8845C135.637 27.2048 134.734 26.865 133.668 26.865C132.414 26.865 131.365 27.2166 130.521 27.9197C129.678 28.6228 129.115 29.5896 128.834 30.8201ZM133.984 42.4041C130.949 42.4041 128.553 41.5369 126.795 39.8025C125.049 38.0681 124.176 35.8005 124.176 32.9998C124.176 31.7341 124.387 30.533 124.809 29.3962C125.23 28.2595 125.822 27.2517 126.584 26.3728C127.357 25.4939 128.33 24.7966 129.502 24.281C130.686 23.7654 131.992 23.5076 133.422 23.5076C134.852 23.5076 136.1 23.7537 137.166 24.2458C138.232 24.738 139.076 25.4294 139.697 26.3201C140.318 27.199 140.775 28.1892 141.068 29.2908C141.373 30.3923 141.525 31.6111 141.525 32.947C141.525 33.2869 141.496 33.5447 141.438 33.7205H128.781C128.852 35.4783 129.385 36.7791 130.381 37.6228C131.389 38.4666 132.725 38.8884 134.389 38.8884C136.334 38.8884 138.232 38.2439 140.084 36.9548L141.262 40.1189C140.125 40.9041 138.977 41.4841 137.816 41.8591C136.668 42.2224 135.391 42.4041 133.984 42.4041ZM154.797 42.4041C153.332 42.4041 151.99 42.1462 150.771 41.6306C149.564 41.115 148.574 40.4177 147.801 39.5388C147.027 38.6599 146.43 37.658 146.008 36.533C145.586 35.3962 145.375 34.2068 145.375 32.9646C145.375 31.1833 145.738 29.5837 146.465 28.1658C147.203 26.7361 148.287 25.6052 149.717 24.7732C151.158 23.9294 152.834 23.5076 154.744 23.5076C157.58 23.5076 159.76 24.3162 161.283 25.9333L159.719 28.7458C158.418 27.5974 156.912 27.0232 155.201 27.0232C153.49 27.0232 152.178 27.5623 151.264 28.6404C150.35 29.7185 149.893 31.1658 149.893 32.9822C149.893 34.7517 150.379 36.1814 151.352 37.2712C152.324 38.3494 153.654 38.8884 155.342 38.8884C155.576 38.8884 155.811 38.8767 156.045 38.8533C156.279 38.8298 156.49 38.8005 156.678 38.7654C156.865 38.7302 157.059 38.6833 157.258 38.6248C157.469 38.5544 157.645 38.4958 157.785 38.449C157.926 38.3904 158.084 38.3142 158.26 38.2205C158.436 38.1267 158.57 38.0564 158.664 38.0095C158.77 37.9509 158.898 37.8689 159.051 37.7634C159.203 37.658 159.303 37.5876 159.35 37.5525C159.408 37.5173 159.502 37.4529 159.631 37.3591C159.771 37.2537 159.848 37.1951 159.859 37.1833L161.178 40.3826C160.17 41.0857 159.162 41.6013 158.154 41.9294C157.146 42.2458 156.027 42.4041 154.797 42.4041ZM164.852 41.9998V16.3884H169.211V26.3025C169.645 25.4705 170.406 24.7966 171.496 24.281C172.586 23.7654 173.623 23.5076 174.607 23.5076C175.439 23.5076 176.195 23.6072 176.875 23.8064C177.566 24.0056 178.146 24.2693 178.615 24.5974C179.084 24.9255 179.494 25.3298 179.846 25.8103C180.197 26.2791 180.473 26.7595 180.672 27.2517C180.871 27.7322 181.029 28.2654 181.146 28.8513C181.275 29.4373 181.357 29.9705 181.393 30.4509C181.439 30.9314 181.463 31.4353 181.463 31.9626V41.9998H177.104V31.822C177.104 30.1228 176.84 28.9041 176.312 28.1658C175.785 27.4158 174.994 27.0408 173.939 27.0408C172.744 27.0408 171.654 27.4568 170.67 28.2888C169.697 29.1091 169.211 30.0583 169.211 31.1365V41.9998H164.852Z" fill="#333333"/>
<defs>
<linearGradient id="paint0_linear_1029_2100" x1="0" y1="50.9998" x2="48.779" y2="45.3056" gradientUnits="userSpaceOnUse">
<stop stop-color="#770993"/>
<stop offset="1" stop-color="#0F1755"/>
</linearGradient>
</defs>
</svg>
